<?xml version="1.0" encoding="utf-8"?>
<!-- Generator: Adobe Illustrator 24.0.2, SVG Export Plug-In . SVG Version: 6.00 Build 0)  -->
<svg version="1.1" id="Layer_1" xmlns="http://www.w3.org/2000/svg" xmlns:xlink="http://www.w3.org/1999/xlink" x="0px" y="0px"
	 viewBox="0 0 300 300" style="enable-background:new 0 0 300 300;" xml:space="preserve">
<style type="text/css">
	.st0{fill:#FFFFFF;}
	.st1{fill:#085587;}
	.st2{fill:#1182E7;}
	.st3{fill:#1181E7;}
	.st4{fill:#0C5487;}
	.st5{fill:#1081E7;}
	.st6{fill:#094D83;}
	.st7{fill:#014E83;}
	.st8{fill:#055386;}
	.st9{fill:#004A7F;}
	.st10{fill:#01487F;}
	.st11{fill:#03487D;}
	.st12{fill:#1E6090;}
	.st13{fill:#014E82;}
	.st14{fill:#035184;}
	.st15{fill:#67AEF0;}
	.st16{fill:#1A5D8D;}
	.st17{fill:#01467E;}
	.st18{fill:#E45D24;}
	.st19{fill:#E24F10;}
	.st20{fill:#115588;}
	.st21{fill:#004A81;}
	.st22{fill:#346A98;}
	.st23{fill:#045285;}
	.st24{fill:#087DE6;}
	.st25{fill:#E04704;}
	.st26{fill:#0074E4;}
	.st27{fill:#E14604;}
	.st28{fill:#5184A9;}
	.st29{fill:#01457C;}
	.st30{fill:#88A7C1;}
	.st31{fill:#E66630;}
	.st32{fill:#246392;}
	.st33{fill:#015183;}
	.st34{fill:#E56128;}
	.st35{fill:#4F83A8;}
	.st36{fill:#0E5388;}
	.st37{fill:#4D81A6;}
	.st38{fill:#067CE6;}
	.st39{fill:#296794;}
	.st40{fill:#077AE6;}
	.st41{fill:#1B5F8F;}
	.st42{fill:#256292;}
	.st43{fill:#E35114;}
	.st44{fill:#E45C21;}
	.st45{fill:#94B0C8;}
	.st46{fill:#0180F8;}
	.st47{fill:#1D6290;}
	.st48{fill:#356E9A;}
	.st49{fill:#3D77A0;}
	.st50{fill:#316B98;}
	.st51{fill:#DF3D01;}
	.st52{fill:#004A80;}
	.st53{fill:#E75212;}
	.st54{fill:#E24D0F;}
	.st55{fill:#2A6392;}
	.st56{fill:#1D6190;}
	.st57{fill:#F6D4CB;}
	.st58{fill:#E7703F;}
	.st59{fill:#014B80;}
	.st60{fill:#094E82;}
	.st61{fill:#044F83;}
	.st62{fill:#0177E6;}
	.st63{fill:#0E4B7E;}
	.st64{fill:#E9EEF4;}
	.st65{fill:#FEFEFD;}
	.st66{fill:#769BB9;}
	.st67{fill:#024F83;}
	.st68{fill:#01467D;}
	.st69{fill:#11598A;}
	.st70{fill:#FEFEFE;}
	.st71{fill:#055286;}
	.st72{fill:#00457C;}
	.st73{fill:#01477D;}
	.st74{fill:#044E83;}
	.st75{fill:#8AAEC7;}
	.st76{fill:#3D78A0;}
	.st77{fill:#206592;}
	.st78{fill:#00487F;}
	.st79{fill:#F7F9FB;}
	.st80{fill:#01497F;}
	.st81{fill:#005084;}
	.st82{fill:#9CBBCF;}
	.st83{fill:#00487E;}
	.st84{fill:#00477F;}
	.st85{fill:#8FB1C9;}
	.st86{fill:#004980;}
	.st87{fill:#00447C;}
	.st88{fill:#015084;}
	.st89{fill:#7098B7;}
	.st90{fill:#246191;}
	.st91{fill:#074F83;}
	.st92{fill:#C6D6E2;}
	.st93{fill:#004C81;}
	.st94{fill:#C7D6E2;}
	.st95{fill:#DEE7EE;}
	.st96{fill:#6B94B4;}
	.st97{fill:#014A7F;}
	.st98{fill:#014A80;}
	.st99{fill:#9DBCCF;}
	.st100{fill:#FDFDFD;}
	.st101{fill:#90B2C9;}
	.st102{fill:#01477F;}
	.st103{fill:#014078;}
	.st104{fill:#5C8AAE;}
	.st105{fill:#FDFEFE;}
	.st106{fill:#E1E8EF;}
	.st107{fill:#0179E6;}
	.st108{fill:#084F84;}
	.st109{fill:#0D5787;}
	.st110{fill:#0E4F82;}
	.st111{fill:#35719B;}
	.st112{fill:#266493;}
	.st113{fill:#95B1C9;}
	.st114{fill:#D2DEE8;}
	.st115{fill:#A6BDD1;}
	.st116{fill:#D2DFE8;}
	.st117{fill:#0F588A;}
	.st118{fill:#D3DEE8;}
	.st119{fill:#CFDCE7;}
	.st120{fill:#C6D5E1;}
	.st121{fill:#C1D1E0;}
	.st122{fill:#D1DDE7;}
	.st123{fill:#BBCCDC;}
	.st124{fill:#C7D7E3;}
	.st125{fill:#D1DEE7;}
	.st126{fill:#1D5E8E;}
	.st127{fill:#C1D1DF;}
	.st128{fill:#A5BED1;}
	.st129{fill:#D3DEE9;}
	.st130{fill:#C5D3E1;}
	.st131{fill:#E2EAEF;}
	.st132{fill:#CEDBE6;}
	.st133{fill:#EAF0F5;}
	.st134{fill:#DCE5ED;}
	.st135{fill:#4479A0;}
	.st136{fill:#5284A9;}
	.st137{fill:#F0F7FC;}
	.st138{fill:#027AE6;}
	.st139{fill:#004079;}
	.st140{fill:#18598A;}
	.st141{fill:#003F78;}
	.st142{fill:#014D82;}
	.st143{fill:#3F759E;}
	.st144{fill:#C4D4E1;}
	.st145{fill:#0E5689;}
	.st146{fill:#ABC3D4;}
	.st147{fill:#D4DFE9;}
	.st148{fill:#1F6090;}
	.st149{fill:#2E6795;}
	.st150{fill:#CFDCE6;}
	.st151{fill:#C5D5E2;}
	.st152{fill:#145789;}
	.st153{fill:#E6EBF0;}
	.st154{fill:#CFDAE6;}
	.st155{fill:#DFE8EC;}
	.st156{fill:#B7CBDB;}
	.st157{fill:#D0DBE7;}
	.st158{fill:#C5D5E1;}
	.st159{fill:#BED0DD;}
	.st160{fill:#C6D3DF;}
	.st161{fill:#226190;}
	.st162{fill:#D1DDE8;}
	.st163{fill:#BBCDDC;}
	.st164{fill:#03477C;}
	.st165{fill:#5887AC;}
	.st166{fill:#256392;}
	.st167{fill:#6691B2;}
	.st168{fill:#E3EEF2;}
	.st169{fill:#105186;}
	.st170{fill:#236492;}
	.st171{fill:#F1E3DB;}
	.st172{fill:#AE6858;}
	.st173{fill:#37739D;}
	.st174{fill:#175789;}
	.st175{fill:#E5EBF1;}
	.st176{fill:#BDCDDF;}
	.st177{fill:#0E4980;}
	.st178{fill:#145A8C;}
	.st179{fill:#025085;}
	.st180{fill:#80A2BE;}
	.st181{fill:#A3B8CF;}
	.st182{fill:#5D8CAF;}
	.st183{fill:#E1EAF3;}
	.st184{fill:#9EBCCF;}
	.st185{fill:#EDF3F7;}
	.st186{fill:#054F84;}
	.st187{fill:#296593;}
	.st188{fill:#256493;}
	.st189{fill:#236292;}
	.st190{fill:#276493;}
	.st191{fill:#B8CDDC;}
	.st192{fill:#D4DFE8;}
	.st193{fill:#F8F5F8;}
	.st194{fill:#003C77;}
</style>
<g>
	<rect x="96.1" y="195.78" class="st0" width="114.47" height="36.45"/>
	<path class="st1" d="M110.08,115.24c-0.04,21.86-0.06,43.71-0.17,65.57c-0.01,2.27,0.6,3.09,3.04,3.24
		c12.02,0.73,12.02,0.81,12.02-11.14c0-34.44-0.01-68.89,0.03-103.33c0-2.27-1.05-4.99,2.46-6.13c1.47-0.48,0.73-2.35,0.83-3.6
		c0.36-4.58-0.68-9.21,0.59-13.75c1.48,4.05,0.06,8.27,0.65,11.67c0.76-3.62-1.43-8.23,1.42-12.32c0.08-0.21,0.13-0.42,0.16-0.64
		c4.23-0.74,8.15-2.9,12.58-2.75c2,0.67,4,0.5,5.99-0.04c4.76-0.12,9.13,1.55,13.55,2.97c-0.2,0.77-0.74,0.99-1.48,0.88
		c0.45,0.51,0.97,0.04,1.45,0.06c1.44,0.07,2.58,0.55,3.31,1.84c0.08,4.51-0.41,9.02-0.06,13.52c0.08,1-0.58,2.32,0.89,2.94
		l-0.13-0.14c0.8,1.82,1.32,3.65,1.31,5.72c-0.05,39.43-0.03,78.86-0.07,118.28c0,0.93,0.59,2.06,0.06,2.38
		c0.16-0.61-0.02-1.83-0.01-2.99c0.01-38.27,0-76.54,0.02-114.8c0-2.81-0.03-5.6-0.54-8.37c3.65,0.22,1.86,3.05,1.86,4.52
		c0.12,38.29,0.09,76.59,0.09,114.88c0,12.04,0,12.04-12.1,12.04c-19.14,0-38.28,0.08-57.42-0.06c-3.36-0.03-4.66,0.66-4.56,4.32
		c0.29,10.77,0.19,21.54,0.24,32.31c0.94,1.46,2.42,0.78,3.64,0.78c35.86,0.04,71.73,0.04,107.59-0.01c1.16,0,2.71,0.83,3.51-0.87
		l0.03,0.3l-0.3-0.01c1.06-0.32,0.9-1.2,0.9-1.99c0.01-11,0.01-22,0.01-33c0-0.7-0.14-1.28-0.77-1.66
		c-10.12-0.03-20.25-0.2-30.37-0.03c-3.26,0.05-4.28-0.85-4.21-4.16c0.21-9.92,0.09-19.84,0.07-29.76
		c-0.01-2.07-0.23-4.03,2.91-3.85c3.2,0.18,2.07-2.42,2.07-3.94c0.08-12.73,0.01-25.46,0.09-38.19c0.01-1.53-0.84-3.29,0.7-4.62
		c1.07,7.38,0.3,14.81,0.45,22.21c0.14,6.7,0.03,13.4,0.04,20.09c0.02-12.19,0.03-24.39,0-36.58c-0.01-2.11-0.03-4.18,1.18-6.03
		c3.75-0.47,5.43-2.39,4.64-6.26c-0.23-1.11-0.07-2.31-0.03-3.47c0.05-1.69,0.79-3.05,2.61-2.87c1.49,0.14,1.96,1.45,2.05,2.94
		c0.16,2.6-1.28,6.22,0.73,7.51c1.73,1.11,5.07-0.29,7.7-0.53c8.53-0.78,8.53-0.77,8.53-9.34c0-6.13-0.05-12.26,0.04-18.38
		c0.02-1.55-0.74-3.35,0.91-4.62c0.89,0.78,0.61,1.82,0.61,2.78c-0.01,8.71,0.02,17.43,0.01,26.15c0.05-9.17,0-18.35,1.01-27.52
		c1,9.09,0.98,18.18,0.98,27.27c0.31-9.35-0.54-18.71,0.5-28.05c1.55,8.29,0.51,16.7,0.92,25.05c0.23,4.72,1.61,6.44,6.09,6.47
		c2.12,0.01,4.34-0.15,6.35,0.87c-0.63,1.07-1.77,0.38-2.68,0.75c1.28-0.07,2.49-0.06,3.7-0.06c1.66-0.19,3.84,0.97,4.51-1.75
		c0.21-1.77,0.03-3.55,0.17-5.31c0.08-0.95,0.12-2.21,1.27-2.32c1.61-0.16,1.47,1.32,1.62,2.37c0.11,0.79,0.11,1.6,0.35,2.38
		c0.71,1.6-0.71,3.6,0.94,5.02c1.73,0.06,3.48,0.01,5.05,0.94c1.21,1.85,1.2,3.91,1.2,6.02c-0.03,28.16-0.04,56.32,0.03,84.49
		c0,1.7-0.86,3.63,0.72,5.14c6.62,0.88,6.62,0.88,6.62-5.61c0-10.61-0.03-21.22,0.03-31.83c0.01-1.55-0.71-3.36,0.99-4.6
		c1.23,4.21,0.49,8.51,0.55,12.77c0.13,9.08,0.04,18.17,0.05,27.25c0.02-11.71,0.2-23.42-0.08-35.12c-0.1-4.24,1.3-5.45,5.35-5.15
		c7.61,0.55,15.25,0.43,22.87,1.01c2.73,0.21,3.85,1.3,3.84,3.99c-0.03,18.97-0.02,37.94,0,56.92c0.01-19.13,0.01-38.27,0.03-57.4
		c0-1.28-0.51-2.66,0.47-3.83c1.76,0.76,0.89,2.31,0.9,3.46c0.08,27.5-0.01,55.01,0.21,82.51c0.03,3.93-1.24,4.52-4.78,4.51
		c-29.28-0.12-58.57-0.05-87.85-0.03c-55.91,0.04-111.83,0.09-167.74,0.13c-8.59,0.01-8.61-0.01-8.58-8.65
		c0.03-10.77,0.1-21.54,0.16-32.31c0.79-10.34,0.29-20.7,0.31-31.05c0.02-8.87,0.46-17.75-0.29-26.61
		c1.94-6.37,5.92-11.72,8.91-17.56c3.46-6.77,7.16-13.42,10.88-20.05c2.03-3.61,8.68-3.85,10.57-0.3
		c7.2,13.56,15.03,26.8,21.57,40.7c-1.55,5.47-0.02,11.12-0.77,16.64c0.62-5.53-0.67-11.16,0.77-16.64
		c1.84,6.21,0.11,12.59,0.92,18.84c3.97,1.08,7.93,1.44,11.85-0.22c-0.02-19.34-0.03-38.68-0.09-58.02
		c-0.01-1.77,0.54-3.66-0.8-5.25c0.29-0.11,0.57-0.22,0.86-0.34c2.3,0.38,1.58,2.2,1.58,3.53c0.03,18.84,0.04,37.68,0.04,56.52
		c0.01-18.97,0.04-37.95,0.01-56.91c-0.25-1.96,1.4-2.17,2.59-2.8c0.33-0.23,0.68-0.43,1.03-0.63c0.49-0.29,0.99-0.57,1.44-0.92
		c0.41-0.38,0.8-0.79,1.16-1.22c0.73-0.92,1.41-1.94,2.85-1.67c0.36,0.14,0.65,0.38,0.86,0.69c1.23,0.7,0.66-0.68,1.06-0.94
		c0.55-1.14,1.42-1.84,2.67-2.06c2.12,0.09,3.97,0.57,4.34,3.09c-0.08,0.47-0.29,0.87-0.63,1.21c-1.41,0.68-2.5,1.75-3.55,2.87
		c-0.29,0.3-0.7,0.48-0.89,0.89c0.65,0.16,0.77-0.54,1.2-0.75c0.81-0.76,1.56-1.58,2.53-2.15c0.88-0.37,1.8-0.52,2.74-0.61
		c0.73-0.08,1.45-0.12,2.18-0.18c1.72-0.17,3.49-1.04,5.12,0.3C110.67,113.83,110.56,114.55,110.08,115.24z"/>
	<path class="st2" d="M138.91,219.66c-3.92,5.66-10.31,6.66-15.25,2.39c-0.99-0.86-2.35-1.69-0.93-3.17
		c1.04-1.09,1.78-3.12,3.95-1.72c0.28,0.18,0.53,0.4,0.82,0.56c1.98,1.15,4.02,1.88,5.86-0.12c1.13-1.24,1.11-2.84,0.15-4.13
		c-1.62-2.17-3.73-1.55-5.82-0.69c-3.96,1.62-5.24,0.66-4.82-3.61c0.05-0.49,0.09-0.99,0.15-1.48c1.14-9.37,3.28-10.87,12.58-9.3
		c2.01,0.34,2.39,1.28,2.36,2.98c-0.03,1.68-0.79,2.38-2.45,2.32c-1.49-0.05-3.01-0.19-4.47,0.03c-3.05,0.46-3.49,1.84-1.09,3.9
		c1.04,0.15,2.08,0.14,3.12,0.01c2.52-0.24,3.84,1.34,4.95,3.24C139.54,213.67,138.77,216.71,138.91,219.66z"/>
	<path class="st3" d="M119.04,209.74c-0.29,1.22,0.35,2.18,0.79,3.25c1.75,4.28,0.51,8.2-3.1,10.29c-3.95,2.29-8.73,1.31-11.53-2.4
		c-0.74-0.98-2.18-2.11-0.39-3.26c1.2-0.77,2.29-2.83,4.2-0.98c0.59,0.57,1.19,1.18,1.89,1.58c1.56,0.9,2.95,0.57,3.74-1.06
		c0.72-1.48-0.12-2.48-1.39-3.22c-4.58-2.69-4.63-3.2-0.35-5.78c1.11-0.67,1.96-1.41,1.63-2.7c-0.41-1.58-1.73-1.81-3.17-1.61
		c-0.16,0.02-0.32,0.08-0.47,0.15c-2.15,0.92-5.19,2.19-5.75-0.79c-0.5-2.67,2.5-4.39,5.33-4.8c3.43-0.5,6.67-0.25,8.53,3.35
		C119.03,204.43,118.98,207.08,119.04,209.74z"/>
	<path class="st4" d="M110.24,72.26c3.23,0.66,4.69,3.11,5.93,5.79c0.51,2.94-0.72,4.54-3.7,4.81c-0.77-0.2-1.32-0.68-1.73-1.34
		c-0.56-0.96-0.18-1.9,0.09-2.85c-0.55,0.78-0.72,1.74-1.18,2.54c-0.68,0.77-0.33,1.26,0.47,1.64c0.54,0.39,0.9,0.9,1.11,1.52
		c0.15,0.99-0.33,1.72-1.01,2.35c-0.92,0.61-1.84,1.23-1.49,2.57c0.09,0.62,0.1,1.24,0.07,1.86c-0.1,1.22,0.64,1.76,1.68,2.07
		c0.84,0.34,1.62,0.74,1.87,1.7c0.02,0.94-0.37,1.72-0.93,2.43c-0.29,0.28-0.63,0.51-0.98,0.7c-0.67,0.36-1.06,0.83-0.49,1.6
		c0.37,0.49,0.65,1.02,0.8,1.61c0.11,0.67,0.03,1.32-0.23,1.94c-0.33,0.61-0.82,1.06-1.47,1.34c-0.46,0.07-0.88-0.01-1.28-0.25
		c-0.78-1.04-1.94-1.63-2.89-2.39c-0.65,0.78,0.45,0.47,0.51,0.79c0.71,0.45,1.5,0.77,1.96,1.51c0.56,1.23,0.12,2.24-0.65,3.19
		c-0.67,0.67-1.43,1.15-2.42,1.1c-0.4-0.18-0.73-0.45-1-0.79c-0.54-0.91-1.37-1.48-2.3-1.94c-0.54-0.33-0.99-0.75-1.37-1.24
		c-0.47-0.68-0.83-1.42-1.11-2.19c-0.17-0.57-0.21-1.16-0.12-1.75c0.1-0.53,0.21-1.07,0.17-1.62c-0.19-0.53-0.56-0.93-0.96-1.31
		c-0.76-0.69-1.52-1.37-1.93-2.35c-0.09-0.42-0.06-0.84,0.08-1.24c0.32-0.55,0.77-0.95,1.34-1.19c0.28-0.1,0.85-0.14,0.86-0.23
		c0.08-0.63-0.58-0.58-0.93-0.84c-0.56-0.33-0.97-0.77-1.28-1.33c-0.13-0.43-0.13-0.86-0.02-1.29c0.32-0.6,0.79-1.03,1.4-1.31
		c1.14-0.26,1.64-0.8,0.83-1.92c-0.09-0.18-0.17-0.36-0.25-0.53c-0.09-0.39-0.06-0.78,0.06-1.16c0.44-0.64,0.97-1.21,1.31-1.92
		c0.25-0.56,0.57-1.08,1.09-1.44c0.39-0.17,0.8-0.27,1.23-0.31c1.7,0.27,2.71-0.83,3.73-1.9c1.12-1.04,1.62-2.42,2.07-3.83
		c0.41-1.06,0.83-2.11,1.79-2.82C109.43,71.87,109.86,71.96,110.24,72.26z"/>
	<path class="st5" d="M158.22,218.79c-0.37,1.08-0.75,2.17-1.12,3.25c-2.12,0.4-3.8-0.43-5.27-1.86c-0.26-0.4-0.44-0.84-0.53-1.31
		c0.17-2.95,0.38-5.9,0.51-8.85c0.17-3.62-1.32-4.79-4.7-4.01c-0.36-0.24-0.44-0.49-0.23-0.74c0.2-0.25-0.33-0.1-0.27,0.1
		c1.03,3.71,0.86,7.42,0.13,11.14c-0.01,0.03,0.26,0.18,0.38,0.16c0.15-0.02,0.29-0.14,0.45-0.22c1.7,0.67,2.53,2.07,3.15,3.66
		c0.08,2.38-0.32,4.31-3.47,3.57c-1.68-1.71-5.11-1.66-5.13-5.04c0.07-4.64-0.21-9.28-0.16-13.92c0.81-4.39,3.82-6.32,7.94-6.47
		c3.88-0.15,7,1.33,8.16,5.47C158.03,208.75,157.76,213.77,158.22,218.79z"/>
	<path class="st6" d="M97.07,93.17c-0.29,0.36-0.58,0.72-0.86,1.08c-0.41,0.03-0.77,0.16-0.68,0.66c0.05,0.26,0.33,0.37,0.64,0.35
		c0.63,0.69,1.27,1.39,1.9,2.08c0.55,0.6,0.56,1.27,0.28,1.99c-0.69,1.12-1.67,1.66-3.01,1.45c-0.67-0.19-1.22-0.59-1.71-1.06
		c-0.88-0.89-1.94-1.55-2.99-2.18c-0.47-0.1-0.97-0.28-1.03,0.5c0.27,0.7,0.73,1.32,0.69,2.1c-0.14,0.39-0.34,0.75-0.57,1.1
		c-0.87,1.24-1.2,2.7-1.68,4.09c-0.14,0.41-0.34,0.79-0.57,1.15c-0.92,1.11-2.14,2.02-2.41,3.56c-0.11,0.41-0.26,0.8-0.44,1.18
		c-0.94,1.4-1.74,2.91-3.32,3.75l-0.24,0.17c-1.56-0.45-2.55-1.54-3.35-2.87c1.38-1.97,2.27-4.2,3.32-6.35
		c0.88-1.21,1.8-2.39,2.43-3.74c0.85-0.92,0.6-1.51-0.59-1.82c-0.29-0.33-0.5-0.7-0.63-1.12c-0.16-0.64-0.18-1.28-0.13-1.93
		c0.54-2.03-0.93-2.91-2.26-3.87c-0.24-0.4-0.36-0.82-0.38-1.28c0.18-1.25,0.93-2.02,2.08-2.43c0.64-0.44,1.96,0.43,2.03-1.07
		c-0.47-0.7-1.2-1.01-1.89-1.38c-0.93-0.47-1.88-0.9-2.76-1.46c-0.54-0.38-0.96-0.86-1.23-1.46c-0.09-0.43-0.06-0.86,0.1-1.28
		c0.53-0.76,1.25-1.19,2.19-1.2c0.85,0.09,1.65,0.37,2.43,0.71c1.06,0.55,1.98,1.4,3.24,1.53c0.82,0.13,1.62,0.3,2.35,0.71
		c0.91,0.87,1.93,1.37,3.24,1.04c0.94,0.08,1.64,0.54,2.13,1.33c0.41,1.47,0.86,2.89,2.73,3.08c0.34,0.4,0.68,0.79,1.02,1.19
		C97.61,92.05,97.62,92.62,97.07,93.17z"/>
	<path class="st7" d="M284.92,165.07c0,20.85,0,41.69,0,62.54c-0.33,0-0.66,0-1,0.01c0-4.6,0-9.2,0-13.8
		c0-14.26-0.01-28.53,0.01-42.79c0.01-2.66-0.04-5.29-3.73-5.05c-7.66,0.51-15.24-0.74-22.85-1.09c-3.59-0.17-4.54,1.2-4.48,4.59
		c0.17,10.78,0.06,21.56,0.06,32.34c0,1.62,0,3.23,0,4.85c-0.37,0-0.73,0-1.1,0c0-14.01,0-28.01,0-42.02
		c4.97-1.91,10.06-0.75,15.12-0.58c4.1,1.06,8.34-0.27,12.44,0.75C281.24,164.9,283.08,164.98,284.92,165.07z"/>
	<path class="st8" d="M167.98,64.32c0.95,1.65,1.02,3.44,1.02,5.29c-0.02,39.64-0.01,79.27-0.03,118.91c0,1.08-0.17,2.15-0.98,3.2
		c0-1.78,0-3.57,0-5.35c0-36.98,0-73.97,0.01-110.95c0-3.8,0.11-7.6-0.8-11.33C167.5,64.03,167.76,64.11,167.98,64.32z"/>
	<path class="st9" d="M210.84,232.22c-0.93,2.09-2.84,1.37-4.37,1.37c-35.3,0.04-70.6,0.04-105.9,0c-1.56,0-3.42,0.66-4.47-1.27
		C134.35,232.29,172.59,232.25,210.84,232.22z"/>
	<path class="st10" d="M87.83,85.28c-0.91,0-1.81,0.01-2.72,0.01c-0.67-1.05-0.97-2.38-2.27-2.94c-0.77-0.32-1.49-0.74-2.23-1.12
		c-0.92-0.58-1.98-0.37-2.98-0.49c-0.66-0.27-1.02-0.77-1.16-1.45c-0.04-1.17,0.43-2.17,1-3.15c0.81-1.4,2.19-2.15,3.43-3.07
		c0.31-0.89,1.04-0.94,1.81-0.9c0.97-0.52,1.82-0.18,2.65,0.36c0.57,1.39,1.38,2.54,3.02,2.8c0.48,0.83,0.55,1.67,0.07,2.52
		c0.26,0.82-2.75,0.51-0.71,1.94c0.61,0.17-0.25,0.65,0.26,0.23c0.55-0.46-0.4-0.46-0.32-0.83c-0.01-0.43,0.15-0.75,0.48-1
		c1-0.93,2.17-1.36,3.53-1.24c0.41,0.15,0.76,0.39,1.04,0.73c0.7,1.03,1.27,2.15,2.11,3.09c0.39,0.54,0.57,1.11,0.36,1.76
		c-0.95,2.3,2.16,1.58,2.31,3.07c0.43,0.96,0.32,1.82-0.44,2.57c-0.29,0.36-0.57,0.72-0.86,1.08c-1.33-0.06-2.23-0.8-2.93-1.85
		c-0.69-0.38-1.37-0.75-2.06-1.13C90.04,86.12,89.03,85.39,87.83,85.28z"/>
	<path class="st11" d="M244.2,206.67c-2.14-1.43-1.2-3.63-1.21-5.47c-0.06-27.98-0.02-55.96-0.1-83.93
		c-0.01-1.85,1.28-4.59-2.2-5.12c-0.39-0.06-1.1-0.32-0.38-0.79c0.51-0.33,1.28-0.24,1.94-0.34c2.96-0.17,1.99,2.1,1.99,3.47
		C244.27,145.22,244.23,175.95,244.2,206.67z"/>
	<path class="st12" d="M109.94,86.53c0.32-0.74,0.64-1.49,0.97-2.23c0,0,0.09-0.46,0.09-0.46c0.06-0.31,0.18-0.6,0.36-0.87
		c0.15-0.31,0.39-0.5,0.72-0.58c2.65-0.24,3.09-2.54,4.09-4.33c2.77,1.06,3.18,3.67,3.99,6.02c0.51,2.1-1.03,3-2.37,4.01
		c-0.61,0.4-1.26,0.75-1.92,1.07c-2.13,0.96-4.25,1.68-6.1-0.54C109.43,87.88,109.4,87.18,109.94,86.53z"/>
	<path class="st13" d="M213.95,76.62c0,9.75,0,19.49,0,29.24c-0.27,0.01-0.55,0.02-0.82,0.03c0-9.14,0-18.27,0-27.41
		c-0.37,0-0.75-0.01-1.12-0.01c0,9.23,0,18.46,0,27.69c-0.39,0-0.78-0.01-1.17-0.01c0-10.06,0-20.11,0-30.17
		C212.37,73.82,212.98,76.07,213.95,76.62z"/>
	<path class="st14" d="M17.25,157c1.09,1.07,0.81,2.46,0.81,3.75c0.01,16.72,0.01,33.45,0,50.17c0,1.3,0.28,2.68-0.83,3.74
		C17.24,195.44,17.25,176.22,17.25,157z"/>
	<path class="st15" d="M106.14,210.63c-0.22,3.41-3.43,3.86-5.14,4.68c-1.58,0.76-3.82-2.29-3.86-4.18
		c-0.04-2.16,1.67-4.17,3.91-5.25C101.98,208.31,105.62,208.04,106.14,210.63z"/>
	<path class="st16" d="M107.86,74.96c0.09,1.84-0.31,3.41-2.21,4.21c-1.57-0.54-2.82,1.35-4.42,0.57c-0.42-0.26-0.73-0.6-0.95-1.05
		c-0.44-1.21-0.48-2.45-0.34-3.7c0.86-2.7,1.51-5.6,5.23-5.68c2.31-0.08,4.24,0.5,5.07,2.95c-0.46,0.05-0.92,0.1-1.38,0.15
		C108.28,73.16,107.46,73.82,107.86,74.96z"/>
	<path class="st17" d="M183.66,111.01c0.32,0.1,0.63,0.19,0.95,0.29c-3.65,10.84-0.77,22.01-1.58,32.99
		c-0.3,4.09-0.05,8.22-1.04,12.34c0-15.11,0-30.21,0-45.32C182.54,111.21,183.1,111.11,183.66,111.01z"/>
	<path class="st18" d="M190.07,225.68c0.17-0.44,0.34-0.88,0.51-1.32c1.02-2.53,2.99-5.45,5.41-4.23c2,1.01,2.17,4.85,2.28,7.56
		c0.05,1.39-1.24,1.69-2.45,0.68c-1.46-1.21-3.11-0.61-4.71-0.44C190.09,227.49,190.51,226.39,190.07,225.68z"/>
	<path class="st19" d="M190.07,225.68c0.85,0.52,0.91,1.4,1.03,2.25c-2.66,3.02-6.44,1.11-9.59,2.1c-0.84,0.27-1.75-0.89-1.63-2.05
		c0.14-1.29-0.01-3.08,0.76-3.72c1.54-1.29,0.41-5.2,2.64-4.32c2.38,0.93,0.68,3.41-0.75,5.03c-0.73,0.83-0.84,2.3,0.31,2.33
		C185.32,227.34,188.41,229.36,190.07,225.68z"/>
	<path class="st20" d="M88.2,75.38c-1.63,0.22-2.77-0.31-3.14-2.02c-1.16-1.3-0.36-2.76-0.35-4.15c0.49-0.89,1.32-0.96,2.2-0.9
		c1.73-1.12,3.06,1.18,4.74,0.56c3.11,1.88,2.73,3.84,0.14,5.85C90.66,75.33,89.52,75.87,88.2,75.38z"/>
	<path class="st21" d="M210.72,195.86c1.29,0.63,1.25,1.83,1.25,2.99c0,10.27,0,20.53,0,30.8c0,1.17,0.01,2.36-1.39,2.87
		C210.62,220.29,210.67,208.07,210.72,195.86z"/>
	<path class="st20" d="M105.17,69.31c-1.89,1.74-4.01,3.33-4.21,6.21c-0.75,1.2-1.78,1.81-3.24,1.48c-0.51-0.16-0.92-0.46-1.23-0.89
		c-0.74-1.48-0.71-2.98-0.18-4.51c1.12-2.53,3.78-2.37,5.83-3.28C103.19,68.53,104.56,67.79,105.17,69.31z"/>
	<path class="st22" d="M70.76,102.36c-2.12-4.15-2.41-8.52-1.57-13.03c1.16-0.63,2.16-0.02,3.19,0.4c1,0.57,1.95,1.19,2.19,2.44
		c0.03,0.97-0.43,1.69-1.15,2.28c-0.86,0.49-1.78,0.96-1.26,2.25c0.4,1.1,0.84,2.17,0.84,3.36
		C72.71,101.28,72.76,102.81,70.76,102.36z"/>
	<path class="st23" d="M166.92,47.47c0.16,5.31,0.32,10.62,0.49,15.93c-0.09,0.27-0.11,0.55-0.08,0.83
		c-1.79-0.35-2.36-1.59-2.32-3.22c0.11-4.53-0.57-9.12,0.98-13.54C166.29,47.13,166.61,47.15,166.92,47.47z"/>
	<path class="st24" d="M158.22,218.79c-2.08-5-1.77-10.03-0.16-15.07C159.54,208.73,159.2,213.76,158.22,218.79z"/>
	<path class="st25" d="M167.92,229.34c-2.14,1.14-1.99-2.52-3.9-1.85c-0.28-1.91-1.18-3.71-1-5.7c1.23-0.61,2.01-3.25,3.9-0.86
		C167.21,223.74,169.58,226.3,167.92,229.34z"/>
	<path class="st26" d="M141.96,204.73c1.76,4.62,1.52,9.26,0.16,13.92C141.05,214.02,141.08,209.38,141.96,204.73z"/>
	<path class="st27" d="M170.97,225.62c0.3-0.73,0.59-1.46,0.89-2.19c0.74,0.16,1.16,0.66,1.39,1.34c0,1.17-0.8,2.74,1.55,2.6
		c1.38-0.08,2.91-0.4,3.97,1.63c-2.65-0.81-5.07,3.14-7.84-0.25C170.38,227.7,170.22,226.65,170.97,225.62z"/>
	<path class="st28" d="M72.02,90.26c-0.94-0.31-1.89-0.61-2.83-0.92c0.05-2.2,0.25-4.35,1.78-6.12c2.47,0.29,3.52,1.85,3.75,4.16
		C74.32,88.8,74.35,90.63,72.02,90.26z"/>
	<path class="st29" d="M130.95,45.45c0.7,0.24,1.71-0.33,2.07,0.79c-5.14,0.84-2.55,4.84-2.92,7.48c-0.39,2.81-0.09,5.73-1.22,8.58
		c0-5.4,0-10.8,0-16.2C129.38,45.29,130.17,45.38,130.95,45.45z"/>
	<path class="st30" d="M121.89,94.17c0.28,1.79,0.59,3.59-0.77,5.15c-1.19-0.21-0.83,1.68-2.02,1.48c-0.46,0-0.89-0.11-1.29-0.32
		c-0.89-0.82-1.35-1.87-1.59-3.03c-0.09-0.71,0-1.39,0.31-2.05c0.53-0.81,1.33-1.25,2.18-1.64c0.43-0.17,0.87-0.26,1.33-0.3
		C120.76,93.45,121.37,93.7,121.89,94.17z"/>
	<path class="st31" d="M157.88,227.55c-1,0.53-1.96,1.2-3.02,1.56c-1.12,0.39-2.45,1.77-3.49,0.36c-0.88-1.21-0.81-2.77,0.72-3.8
		c0.17-0.02,0.34-0.04,0.52-0.06c0.52-0.08,1.05-0.13,1.58-0.24c0.93-0.24,1.86-0.51,2.82-0.16c0.58,0.28,1,0.72,1.29,1.29
		C158.4,226.95,158.26,227.3,157.88,227.55z"/>
	<path class="st32" d="M81.95,106.02c-1.28,2.17-0.45,5.77-4.24,6.25c-0.26-0.23-0.52-0.46-0.78-0.69c-1.03-1.55,0.44-2.67,0.68-4
		c0.34-1.61,0.94-2.96,2.94-2.9C81.27,104.86,81.68,105.37,81.95,106.02z"/>
	<path class="st33" d="M235.83,105.18c-1.34-0.97-0.55-2.75-1.34-4.33c-1.34,2.96,0.59,5.98-1.46,8.33
		c-0.97-3.34-0.76-6.7-0.12-10.06c1.29-2.23,2.03,0.08,3.01,0.36C236.71,101.39,236.83,103.29,235.83,105.18z"/>
	<path class="st34" d="M163.02,221.79c0.81,1.82,1.54,3.65,1,5.7c-1.71-0.1-2.33,2.48-4.3,1.74c-0.5-1.77-0.47-3.4,1.18-4.62
		C161.77,223.79,161.46,222.09,163.02,221.79z"/>
	<path class="st35" d="M90.05,67.43c3.37-1.68,6.78-1.38,10.21-0.22c-0.88,1.35-2.43,1.87-3.59,2.87c-2.53,2.02-3.56-2.03-5.76-1.41
		C90.16,68.58,89.7,68.28,90.05,67.43z"/>
	<path class="st36" d="M78.01,108.18c0.73,1.48-1.75,1.94-1.08,3.4c-2.33-1.59-3.8-3.84-4.9-6.37c-0.55-0.86,0.03-1.13,0.71-1.35
		c1.91,0.15,3.02,1.58,4.33,2.68C77.56,106.99,77.66,107.66,78.01,108.18z"/>
	<path class="st37" d="M110.08,115.24c-0.04-0.67-0.09-1.34-0.13-2c-0.19-0.81-0.99-1.22-1.28-1.97c-0.1-0.42-0.09-0.83,0.02-1.24
		c0.3-0.59,0.76-1.04,1.33-1.37c1.04-0.45,2.12-0.52,3.22-0.28c0.42,0.14,0.79,0.37,1.09,0.69
		C113.11,111.26,112.87,114.12,110.08,115.24z"/>
	<path class="st38" d="M119.04,209.74c-1.59-2.65-1.54-5.3-0.04-7.96C120.84,204.42,120.84,207.07,119.04,209.74z"/>
	<path class="st39" d="M76.78,79.2c0.42,0.45,0.84,0.9,1.26,1.34c0.12,1.09-0.7,1.35-1.48,1.65c-0.39,0.13-0.79,0.22-1.19,0.32
		c-0.6,0.18-1.2,0.34-1.82,0.42c-0.66,0.02-1.24-0.14-1.65-0.7c-0.02-1.66,0.37-3.12,1.96-3.99C75.18,77.53,76.2,77.68,76.78,79.2z"
		/>
	<path class="st40" d="M138.91,219.66c-1.83-2.78-0.5-5.88-0.9-8.8C140.82,213.54,140.24,216.56,138.91,219.66z"/>
	<path class="st41" d="M95.97,69.56c1.06-1.45,2.36-2.47,4.29-2.35c0.81,0.05,1.55,0.24,1.89,1.1c-1.81,1.06-3.63,2.13-5.44,3.19
		c-0.41,0.11-0.77,0.02-1.05-0.31C95.4,70.58,95.53,70.04,95.97,69.56z"/>
	<path class="st42" d="M232.9,99.11c0.04,3.35,0.08,6.71,0.12,10.06c-0.84,2.36-2.58,1.11-4.04,1c-0.34-0.19-0.46-0.39-0.35-0.6
		c0.1-0.21,0.21-0.32,0.32-0.32c2.16,0.17,3.28-0.39,3.19-2.98C232.07,103.91,231.17,101.33,232.9,99.11z"/>
	<path class="st31" d="M170.97,225.62c-0.02,1.05-0.03,2.09-0.05,3.14c-1.9-4.35-1.87,1.06-3,0.59c-0.33-2.81-0.67-5.61-1-8.42
		C168.1,222.63,168.11,225.35,170.97,225.62z"/>
	<path class="st43" d="M204.91,224.72c3.92,0.22,1.48,2.98,0.87,3.42c-1.51,1.09-3.39,2.47-5.74,0.92c1.17-2.13,5.28-0.95,4.98-4.44
		L204.91,224.72z"/>
	<path class="st44" d="M200.71,221.56c2.63-2.93,5.67-0.72,8.83-1.04c-0.94,2.49-4.68-0.12-4.58,3.14
		C203.02,224.01,201.7,223.11,200.71,221.56z"/>
	<path class="st45" d="M117.88,100.18c0.37,0.01,0.74,0.03,1.1,0.04c0.65,0.67,0.61,1.36,0.03,2.05c0.61,1.8-1.28,2.13-1.9,3.21
		c-0.39,0.21-0.79,0.2-1.19,0.03c-0.69-0.56-1.07-1.31-1.39-2.11c-0.2-0.64-0.21-1.27-0.01-1.92c0.2-0.4,0.49-0.72,0.85-0.98
		C116.17,100.07,116.98,99.73,117.88,100.18z"/>
	<path class="st46" d="M147.25,223.69c2.47-0.27,2.82-1.99,2.75-4c0.62-0.53,1.25-0.61,1.91-0.08l0.05,0.04
		c1,1.74,1.78,3.47-0.3,5.03C150.19,224.38,148.43,225.34,147.25,223.69z"/>
	<path class="st47" d="M121.89,94.17c-0.54,0.03-1.09,0.06-1.63,0.09c-1.54-1.14-0.89-3.09-1.68-4.52c0.33-1.46-0.1-3.45,2.38-3.43
		C121.82,88.86,122,91.5,121.89,94.17z"/>
	<path class="st4" d="M71.9,82.24c0.68,0.03,1.35,0.06,2.03,0.08c0.43,0.04,0.82,0.2,1.17,0.46c0.3,0.32,0.51,0.69,0.66,1.1
		c0.23,0.87,0.23,1.74-0.05,2.6c-0.18,0.41-0.46,0.76-0.81,1.04c-0.45,0.21-0.82,0.12-1.07-0.32c-0.95-1.33-1.91-2.66-2.86-3.99
		C71.28,82.89,71.59,82.57,71.9,82.24z"/>
	<path class="st48" d="M120.96,86.31c-0.64,1.21-1.28,2.43-1.92,3.64c-0.09,0.43-0.35,0.66-0.8,0.67c-0.62-0.14-1.09-0.5-1.48-0.99
		c-0.21-0.35-0.31-0.73-0.32-1.14c0.07-0.4,0.21-0.77,0.42-1.11c1.38-0.83,2.55-1.86,3.29-3.31
		C120.42,84.81,120.69,85.56,120.96,86.31z"/>
	<path class="st49" d="M72.99,104.37c-0.32,0.28-0.64,0.56-0.96,0.84c-1.09-0.66-1.15-1.77-1.28-2.85c1.36-0.7,1.28-1.99,1.34-3.23
		c0.81-1.32,1.65-1.52,2.52-0.05c0.33,1.35,0.07,2.68-0.18,4.01C74.17,103.75,73.7,104.2,72.99,104.37z"/>
	<path class="st50" d="M76.78,79.2c-0.97-0.32-1.94-0.63-2.92-0.95c1.26-1.16,1.33-3.26,3.15-3.98c0.9,0.39,1.47,0.94,0.99,2
		C78.18,77.5,77.55,78.38,76.78,79.2z"/>
	<path class="st51" d="M173.24,224.77c-0.46-0.45-0.92-0.89-1.39-1.34c0.07-0.48,0.01-1.03,0.24-1.42c0.51-0.87,0.28-2.72,1.96-2.19
		c1.66,0.52,0.67,1.87,0.31,2.85C174.09,223.4,173.63,224.07,173.24,224.77z"/>
	<path class="st52" d="M81.94,178.41c-3.9,2.47-7.86,2.09-11.85,0.22C74.05,178.56,77.99,178.49,81.94,178.41z"/>
	<path class="st1" d="M279.4,164.81c-4.15-0.2-8.39,1.08-12.44-0.75C271.12,164.02,275.31,163.57,279.4,164.81z"/>
	<path class="st53" d="M151.67,224.67c0.1-1.68,0.2-3.35,0.3-5.03c1.48,1.3,3.93,0.53,5.14,2.4c-0.04,0.22-0.09,0.43-0.15,0.63
		c-0.14,0.14-0.28,0.27-0.42,0.41c-0.54,0.25-1.12,0.38-1.67,0.6c-1.11,0.4-1.08,2.45-2.81,1.94c0,0,0.01,0.04,0.01,0.04
		C151.94,225.34,151.81,225,151.67,224.67z"/>
	<path class="st54" d="M200.71,221.56c1.81-0.08,2.81,1.44,4.25,2.1c-0.02,0.35-0.03,0.7-0.05,1.05c0,0,0.11-0.1,0.11-0.1
		C203.19,224.14,199.26,226.62,200.71,221.56z"/>
	<path class="st42" d="M235.83,105.18c0.03-1.9,0.05-3.8,0.08-5.7c2.13,3.33,0.15,7.16,1.29,10.61
		C235.01,108.93,236.32,106.8,235.83,105.18z"/>
	<path class="st55" d="M78,76.28c-0.33-0.67-0.66-1.34-0.99-2c0.85-1.84,2.26-1.88,3.9-1.21C80.49,74.63,79.4,75.6,78,76.28z"/>
	<path class="st56" d="M84.7,69.22c2.2,1.21,0.02,2.78,0.35,4.15c-0.78-0.4-1.55-0.79-2.33-1.19C82.66,70.71,82.52,69.19,84.7,69.22
		z"/>
	<path class="st57" d="M160.91,224.61c-0.39,1.54-0.79,3.08-1.18,4.62c-0.62-0.56-1.23-1.12-1.85-1.68
		c0.05-0.29,0.11-0.59,0.18-0.88c-0.03-1.15-0.16-2.34,1.08-3.05C159.72,223.95,160.31,224.28,160.91,224.61z"/>
	<path class="st58" d="M159.13,223.61c0.01,1.15,0.31,2.4-1.08,3.05c-0.37-0.39-0.74-0.77-1.11-1.16c-0.79-0.98-0.74-1.94,0.05-2.89
		c0,0-0.04,0.06-0.04,0.06C157.68,222.99,158.4,223.3,159.13,223.61z"/>
	<path class="st59" d="M147.65,41.68c0.44,0.31,0.89,0.62,1.33,0.93c-1.66,1.31-3.31,1.34-4.95-0.03c0.41-0.32,0.81-0.64,1.22-0.96
		C146.04,41.63,146.84,41.65,147.65,41.68z"/>
	<path class="st60" d="M119.02,102.27c-0.01-0.68-0.02-1.36-0.03-2.05c1.2,0.83,0.41-2.99,2.14-0.91
		C120.82,100.58,120.83,102.07,119.02,102.27z"/>
	<path class="st61" d="M228.95,109.25c0.01,0.31,0.02,0.61,0.04,0.92c-1.6,0-3.21,0-4.98,0c0.92-1.6,2.31-0.71,3.31-1.16
		C227.86,109.09,228.4,109.17,228.95,109.25z"/>
	<path class="st62" d="M133.06,207.62c-1.04,1.42-2.08,1.41-3.12-0.01C130.99,206.74,132.03,206.88,133.06,207.62z"/>
	<path class="st56" d="M90.05,67.43c0.32,0.3,0.64,0.6,0.96,0.9c0.24,0.22,0.32,0.45,0.25,0.69c-0.07,0.24-0.14,0.36-0.21,0.36
		c-1.8,1.28-2.59-1.34-4.14-1.05C87.8,67.48,88.91,67.4,90.05,67.43z"/>
	<path class="st63" d="M116.87,107.3c-0.13,1.29-1.17,0.73-1.85,0.9c0,0-0.24-0.43-0.25-0.43c0.01-0.36,0.16-0.64,0.46-0.85
		c0.3-0.16,0.62-0.25,0.96-0.25C116.54,106.74,116.76,106.96,116.87,107.3z"/>
	<path class="st64" d="M115.88,105.08c0.41,0.13,0.82,0.26,1.23,0.39c-0.02,0.22-0.04,0.43-0.07,0.64
		c-0.25,0.31-0.57,0.48-0.96,0.55c-0.39,0.03-0.76-0.03-1.11-0.19c-0.21-0.34-0.23-0.7-0.1-1.07
		C115.15,105.1,115.48,104.99,115.88,105.08z"/>
	<path class="st65" d="M115.02,108.19c-0.23,0.29-0.46,0.59-0.68,0.88l-0.25-0.05l-0.18,0.18c-0.28-0.4-0.28-0.8,0-1.2
		c0.42-0.24,0.83-0.22,1.24,0.04C115.15,108.05,115.02,108.19,115.02,108.19z"/>
	<path class="st66" d="M115.97,106.47c0.36-0.12,0.72-0.23,1.08-0.35c-0.06,0.39-0.12,0.79-0.18,1.18l-0.44,0.01l-0.43-0.06
		c-0.35-0.16-0.47-0.33-0.36-0.51C115.74,106.56,115.85,106.47,115.97,106.47z"/>
	<path class="st67" d="M81.3,114.97c0.53-1.52,1.04-3.05,2.69-3.79c1.77,1.36,2.57,2.91,0.97,4.93c-1.48,1.53-0.88,3.45-0.88,5.2
		c-0.04,17.19-0.03,34.38-0.03,51.57c0,1.62,0,3.24,0,5.59c-1.51-2.15-0.96-3.79-0.96-5.3c-0.05-17.68-0.01-35.37-0.07-53.05
		C83,118.3,83.92,116,81.3,114.97z"/>
	<path class="st68" d="M108.04,182.61c0-22.26,0-44.53,0-66.79c0.16,0,0.32-0.01,0.48-0.01c0,22.27,0,44.54,0,66.82
		C108.36,182.62,108.2,182.62,108.04,182.61z"/>
	<path class="st69" d="M84.95,116.12c-0.32-1.64-0.64-3.29-0.96-4.93c0.04-0.38,0.07-0.76,0.11-1.14c1.29-0.92,2.03-2.27,2.84-3.57
		c0.03-0.42,0.07-0.84,0.1-1.26c1.71-1.66,3.8-0.66,5.73-0.81c0.45,0.04,0.89,0.15,1.31,0.3c1.39,0.81,2.52,1.87,3.28,3.29
		c0.12,0.46,0,0.86-0.36,1.17c-0.66,0.68-1.31,1.35-1.97,2.03c-0.69,0.59-1.37,0.59-2.03-0.06l0.05,0.06
		c-3.43-2.16-1.99,1.67-3.03,2.45c-0.21,0.24-0.48,0.4-0.79,0.47c-0.28,0.19-0.57,0.35-0.88,0.47c-0.52,0.03-0.95,0.27-1.32,0.62
		C86.83,116.68,86.42,117.63,84.95,116.12z"/>
	<path class="st70" d="M102.02,173.71c2.36,6.48,0.71,13.15,0.88,19.73c0.02,0.92-1.12,0.96-1.92,0.36
		c-1.91-6.15-0.76-12.4-0.66-18.62C100.33,174.28,101.08,173.78,102.02,173.71z"/>
	<path class="st71" d="M177.17,193.85c-0.06-10.4-0.12-20.8-0.16-31.2c-0.01-1.81-0.26-3.84,3.49-3.51
		c-2.53,1.83-2.54,4.08-2.53,6.41c0.06,9.41,0.03,18.82,0.03,28.23C177.74,194.17,177.47,194.19,177.17,193.85z"/>
	<path class="st72" d="M94.25,231.45c0-11.52,0-23.05,0-34.57c0.16,0,0.32,0,0.48,0c0,11.49,0,22.97,0,34.46
		C94.58,231.37,94.41,231.41,94.25,231.45z"/>
	<path class="st73" d="M177.17,193.85c0.27-0.03,0.55-0.05,0.82-0.06c10.6,0,21.2,0,31.81,0
		C198.91,194.17,188.02,195.95,177.17,193.85z"/>
	<path class="st74" d="M96.99,109.17c0.01-0.32,0.01-0.64,0-0.96c-0.04-1.13,0-2.24,0.75-3.19c0.69-0.7,1.56-0.86,2.5-0.8
		c0.3,0.4,0.59,0.8,0.89,1.2c0.67,1.02,1.91,1.06,2.85,1.63c0.03,0.4,0.05,0.81,0.08,1.21c0.33,0.26,0.55,0.58,0.68,0.97
		c0.11,0.61,0.04,1.2-0.22,1.77c-0.45,0.7-1.16,1.06-1.89,1.38c-0.19,0.06-0.38,0.1-0.57,0.16c-0.41,0.01-0.75-0.13-1.03-0.43
		C100.67,109.79,98.8,109.53,96.99,109.17z"/>
	<path class="st75" d="M88.42,172.94c0.75,0,1.49,0,2.24,0c0.52,0.2,0.69,0.57,0.54,1.1c-0.2,0.44-0.4,0.89-0.58,1.34
		c-0.44,5.63-0.42,11.26,0,16.88c0.18,0.45,0.37,0.9,0.58,1.34c0.2,0.52,0.05,0.9-0.44,1.16c-0.8,0-1.61,0-2.41-0.01
		C87.06,187.48,86.92,180.21,88.42,172.94z"/>
	<path class="st76" d="M102.08,132.13c0.63-0.02,1.26-0.03,1.89-0.05c0.92,6.97,0.84,13.93,0.05,20.9c-0.7-0.02-1.4-0.04-2.09-0.06
		c-0.29-0.45-0.43-0.95-0.43-1.49c0.35-5.7,0.24-11.4,0.07-17.11c-0.03-0.26-0.05-0.52-0.07-0.78
		C101.52,133,101.71,132.53,102.08,132.13z"/>
	<path class="st77" d="M102.08,132.13c-0.01,0.27-0.02,0.54-0.01,0.81c-0.54,6.66,0.94,13.4-0.93,20c-0.37,0.02-0.74,0.03-1.1,0.05
		c-0.79-6.97-0.82-13.94,0.01-20.9C100.72,132.1,101.4,132.11,102.08,132.13z"/>
	<path class="st78" d="M90.77,194.76c0.01-0.33,0.03-0.66,0.04-1c-1.27-6.61-1.21-13.22-0.04-19.84c-0.03-0.33-0.07-0.66-0.1-0.99
		c1.81,0.83,1.47,2.51,1.33,3.9C91.41,182.81,93.48,188.95,90.77,194.76z"/>
	<path class="st79" d="M90.02,152.97c-0.33,0-0.65,0-0.98,0c-1.66-6.98-1.53-13.96-0.06-20.94c0.37-0.98,0.73-1.01,1.08,0.01
		C91.57,139.02,91.68,146,90.02,152.97z"/>
	<path class="st80" d="M88.42,172.94c-0.71,7.27-0.57,14.54-0.07,21.81c-2.95-4.64-0.81-9.74-1.2-14.6
		C86.97,177.81,85.78,174.93,88.42,172.94z"/>
	<path class="st77" d="M102.02,173.71c-2.11,4.45-0.55,9.17-0.96,13.75c-0.19,2.1-0.06,4.23-0.08,6.34
		c-0.31-0.01-0.62-0.02-0.93-0.02c-0.84-6.96-0.84-13.92,0-20.89C100.71,173.17,101.36,173.44,102.02,173.71z"/>
	<path class="st81" d="M100.05,172.89c0,6.96,0,13.92,0,20.89c-2.03-0.88-1.03-2.69-0.94-3.94
		C99.5,184.2,97.81,178.43,100.05,172.89z"/>
	<path class="st82" d="M90.02,152.97c0.01-6.98,0.03-13.95,0.04-20.93c0.25,0.02,0.51,0.05,0.76,0.07
		c1.25,6.95,0.88,13.91,0.18,20.87C90.68,152.98,90.35,152.97,90.02,152.97z"/>
	<path class="st83" d="M91.01,152.98c-0.06-6.96-0.12-13.91-0.18-20.87C92.87,139.05,92.59,146.01,91.01,152.98z"/>
	<path class="st84" d="M104.02,152.99c-0.02-6.97-0.03-13.94-0.05-20.9C105.7,139.05,105.63,146.01,104.02,152.99z"/>
	<path class="st85" d="M88.99,132.03c0.02,6.98,0.04,13.96,0.06,20.94c-0.33,0-0.66,0.01-1,0.01c-0.69-6.97-1.04-13.93,0.17-20.88
		C88.48,132.08,88.73,132.06,88.99,132.03z"/>
	<path class="st86" d="M88.22,132.1c-0.06,6.96-0.12,13.92-0.17,20.88C86.48,146.01,86.22,139.05,88.22,132.1z"/>
	<path class="st81" d="M100.04,132.08c0,6.97-0.01,13.94-0.01,20.9C98.41,146.02,98.4,139.05,100.04,132.08z"/>
	<path class="st70" d="M101.13,152.94c-0.03-5.68-0.09-11.37-0.08-17.05c0-1.05-0.42-2.35,1.02-2.94l-0.12,0.33
		c0.99,6.27,0.76,12.55,0.13,18.84c-0.05,0.27-0.1,0.54-0.16,0.82l-0.4,0.06L101.13,152.94z"/>
	<path class="st87" d="M69.17,159.8c0,5.93,0,11.86,0,17.79C68.57,171.64,66.8,165.67,69.17,159.8
		C69.18,159.8,69.17,159.8,69.17,159.8z"/>
	<path class="st88" d="M111.5,185.04c4.11,0,8.22,0,12.32,0c0,0.16,0,0.33,0,0.49c-4.25,0-8.5,0-12.75,0
		C111.21,185.36,111.35,185.2,111.5,185.04z"/>
	<path class="st89" d="M90.01,113.65c-0.02-0.98-0.04-1.95-0.08-2.93c-0.05-1.19-0.1-2.57,1.53-2.52c1.97,0.07,1.55,1.73,1.58,3
		C91.1,110.88,91.13,112.97,90.01,113.65z"/>
	<path class="st90" d="M98,116.63c-0.43,1.83-1.79,1.7-3.07,1.26c-0.4-0.14-0.9-1.17-0.74-1.54c0.52-1.24,2.07-0.48,2.94-1.21
		C97.86,115.38,99.25,115.24,98,116.63z"/>
	<path class="st91" d="M166.92,47.47c-0.31,0-0.62,0-0.93,0.01c-1.65-0.44-3.3-0.87-5.03-1.33c0.63-1.12,1.7-0.51,2.45-0.86
		C164.76,45.71,167.18,44.45,166.92,47.47z"/>
	<path class="st92" d="M98,116.63c-0.29-0.5-0.58-1-0.88-1.49c-0.27-2.03,1.69-1.88,2.67-2.68c0.41,0.03,0.68,0.22,0.79,0.62
		c0.01,0.39-0.1,0.74-0.32,1.05C100.32,115.7,99.24,116.23,98,116.63z"/>
	<path class="st93" d="M191.15,108c0-2.19,0-4.38,0-6.58c0.16-0.01,0.33-0.01,0.49-0.02c0,2.19,0,4.38,0,6.57
		C191.48,107.99,191.31,107.99,191.15,108z"/>
	<path class="st94" d="M92.99,111.14c0.68,0.02,1.35,0.04,2.03,0.06c0.52,1.31,0.84,2.76-1.17,2.74
		C91.19,113.92,93.24,112.1,92.99,111.14z"/>
	<path class="st95" d="M101.95,112.21c0.13-1.32,1.26-1.01,2.05-1.26c1.1-0.53,1.91-0.25,2.44,0.85c0.17,1.21-0.48,1.85-1.57,2.16
		c-0.55,0.05-1.1,0.09-1.65,0.14C102.47,113.69,101.97,113.11,101.95,112.21z"/>
	<path class="st96" d="M104.88,113.96c0.42-0.62,0.85-1.24,1.27-1.86c0.84-0.97,1.93-1,3.08-0.84c0.59,0.54,2.09,0.74,0.72,1.99
		C108.26,113.48,106.57,113.72,104.88,113.96z"/>
	<path class="st97" d="M88.04,221.66c-1.72-2.32-1.51-4.63,0.04-6.94C89.76,217.04,89.77,219.35,88.04,221.66z"/>
	<path class="st98" d="M249.7,208.53c-1.56,0-3.11,0-5.46,0C246.63,207.48,248.24,207.69,249.7,208.53z"/>
	<path class="st99" d="M91.02,221.67c-0.33,0-0.66-0.01-0.99-0.01c-1.39-2.28-1.39-4.57-0.05-6.87c0.33-0.03,0.66-0.05,0.98-0.08
		C91.87,217.02,91.76,219.35,91.02,221.67z"/>
	<path class="st100" d="M89.98,214.79c0.02,2.29,0.03,4.58,0.05,6.87c-0.33,0-0.66,0-0.98,0c-0.74-2.3-0.83-4.59,0.05-6.88
		C89.39,214.61,89.68,214.61,89.98,214.79z"/>
	<path class="st101" d="M89.09,214.78c-0.02,2.29-0.03,4.59-0.05,6.88c-0.33,0-0.67,0-1,0c0.01-2.31,0.03-4.63,0.04-6.94
		C88.42,214.74,88.75,214.76,89.09,214.78z"/>
	<path class="st102" d="M91.02,221.67c-0.02-2.32-0.04-4.64-0.05-6.96C92.67,217.02,92.59,219.34,91.02,221.67z"/>
	<path class="st103" d="M101.95,112.21c1.16,0.14,0.98,1.17,1.27,1.89c-0.99,0.01-1.97,0.02-2.96,0.04
		c-0.08-0.32-0.16-0.64-0.24-0.96c0.51-0.66,1.5-0.34,2.01-0.99L101.95,112.21z"/>
	<path class="st104" d="M102.04,112.19c-0.35,0.97-1.2,0.94-2.01,0.99c-0.19-0.2-0.27-0.44-0.24-0.72c0.41-0.11,0.82-0.23,1.24-0.34
		C101.37,112.14,101.71,112.16,102.04,112.19z"/>
	<path class="st105" d="M87.02,115.22c-0.16-0.83,0.31-1.02,1.01-1c0.24,0.18,0.31,0.35,0.23,0.52c-0.08,0.17-0.16,0.25-0.24,0.25
		C87.68,115.07,87.35,115.15,87.02,115.22z"/>
	<path class="st106" d="M88.01,115c0.01-0.26,0.01-0.52,0.01-0.77c0.4-0.03,0.8-0.06,1.2-0.1C88.99,114.65,88.74,115.16,88.01,115z"
		/>
	<path class="st107" d="M135.06,216.52c0.08-0.88,0.07-2.51,0.25-2.53c1.23-0.14,0.54,0.93,0.65,1.48c0.08,0.39-0.17,0.85-0.27,1.27
		C135.48,216.66,135.27,216.59,135.06,216.52z"/>
	<path class="st108" d="M91.05,69.37c-0.01-0.35-0.03-0.69-0.04-1.04c1.15-1.05,2.41-1.58,2.85,0.45c0.38,1.72,1.24,0.99,2.11,0.78
		c0.08,0.71,0.15,1.42,0.23,2.13c-0.03,1.51-1.28,3.15,0.48,4.47c0.54,0.1,1.09,0.19,1.63,0.29c0.82,1.06,1.81,1.98,2.75,2.93
		l-0.09-0.1c0.63,0.61,0.68,1.28,0.18,1.99c-0.41,0.03-0.83,0.06-1.24,0.09c-0.61,0.56-0.85,1.31-1.14,2.05
		c-0.21,0.34-0.47,0.64-0.76,0.91l-0.14,0.16c-2.17,0.68-2.73-0.57-2.84-2.36c-0.42-0.33-0.84-0.66-1.27-0.99
		c0.42-1.47,0.22-2.56-1.64-2.63c-0.04-0.42-0.08-0.84-0.12-1.26c-0.88-0.75-1.58-1.56-0.99-2.81
		C92.85,72.75,94.23,71.08,91.05,69.37z"/>
	<path class="st109" d="M116.99,89.29c0.33,0.29,0.66,0.57,1,0.86c-0.23,0.84-0.66,1.6-1.08,2.36c-0.22,0.39-0.51,0.72-0.85,1
		c-1.57-0.07-2.12,2.54-4.05,1.53c-0.75-0.3-1.5-0.6-2.25-0.9c-0.66-0.96-1.42-1.86-1.75-3.01c0-0.58,0-1.16,0-1.74
		c0.44-0.91,1.24-1.13,2.17-1.09c1.95,1.72,3.89,0.14,5.84-0.03c0,0,0.45,0.19,0.45,0.18C116.63,88.75,116.8,89.03,116.99,89.29z"/>
	<path class="st110" d="M98.02,105.25c-0.02,1.1,0.17,2.27-1.03,2.96c-1.3-0.65-2.26-1.64-2.93-2.92c-0.48-0.57-1.2-0.59-1.84-0.79
		c-0.6-0.46-0.87-1.08-0.9-1.82c0.27-2.27,1.92-2.48,3.72-2.45c1.01-0.34,2.03-0.69,3.04-1.03c0.16,0.06,0.33,0.13,0.49,0.19
		c0.27,0.24,0.42,0.54,0.45,0.9c0,0.58,0,1.16,0,1.74C98.61,103.08,98.71,104.29,98.02,105.25z"/>
	<path class="st111" d="M112.01,95.04c1.71,0.33,1.67-3.46,3.99-1.68c0.79,0.43,1.11,1.13,1.14,1.99c-0.13,0.69-0.26,1.39-0.39,2.08
		c-0.16,1.1-0.33,2.19-1.85,2.1c-1.36-0.59-2.77-1.09-3.73-2.31C111.05,96.34,111.08,95.52,112.01,95.04z"/>
	<path class="st112" d="M111.18,97.22c1.66-0.07,3.12,0.27,3.84,2c0.62,0.63,0.58,1.25-0.03,1.86l0.09,0.32
		c-1.7,0.54-3.38,0.68-5.04-0.14c-0.35-0.35-0.7-0.69-1.04-1.04c-0.57-1.19,0.08-2.03,0.81-2.85
		C110.26,97.31,110.72,97.27,111.18,97.22z"/>
	<path class="st113" d="M110.04,101.25c1.7-0.7,3.37-0.4,5.04,0.14c0,0.65,0,1.31,0,1.96c0.23,0.21,0.32,0.44,0.28,0.68
		c-0.04,0.25-0.1,0.37-0.16,0.37c-0.39,0.48-0.79,0.95-1.33,1.27c-0.4,0.13-0.82,0.17-1.24,0.12c-0.41-0.11-0.78-0.31-1.11-0.58
		c-0.61-0.6-1.09-1.29-1.27-2.14C110.17,102.47,110.1,101.86,110.04,101.25z"/>
	<path class="st114" d="M101.15,81.27c-0.06-0.66-0.12-1.33-0.18-1.99c1.49,0.4,2.24-0.63,3.3-1.4c1.51-1.11,1.24,0.48,1.38,1.29
		C104.72,81.08,103.79,82.97,101.15,81.27z"/>
	<path class="st115" d="M108.92,81.25c0.4-1.23,0.94-2.43,1.15-3.69c0.2-1.19,0.14-2.51,1.85-2.03c2.01,0.57,0.41,1.72,0.31,2.67
		c-0.12,1.17-1.84,1.54-1.36,2.94c-0.06,0.16-0.13,0.31-0.19,0.47c-0.3,0.17-0.63,0.24-0.98,0.23
		C109.36,81.74,109.1,81.55,108.92,81.25z"/>
	<path class="st116" d="M93.28,87.41c1.2,0.26,2.39,0.55,2.93,1.85c-0.04,0.34-0.08,0.68-0.12,1.01c-1.12,0.73-2.2,1.1-3.33-0.04
		C91.54,89.01,93.12,88.35,93.28,87.41z"/>
	<path class="st117" d="M110.06,109.23c-0.32,0.33-0.64,0.65-0.97,0.98c-0.34,0.34-0.73,0.4-1.17,0.21
		c-0.97-0.94-1.51-2.12-1.9-3.38c0.33-0.92,0.66-1.84,0.99-2.76c0.33-0.4,0.69-0.43,1.07-0.09c0.32,0,0.63,0.01,0.95,0.01
		c0.59,0.43,0.87,1.05,1.06,1.72C110.3,107.03,110.74,108.14,110.06,109.23z"/>
	<path class="st118" d="M97.07,88.19c0.05-0.98,0.09-1.95,0.14-2.93c0.29-0.38,0.54-0.36,0.77,0.05c0.83,0.93,3.33,0.51,2.65,2.5
		C99.98,89.7,98.36,88.8,97.07,88.19z"/>
	<path class="st119" d="M104.02,88.67c1.01,0.28,2.05,0.68,1.72,1.89c-0.17,0.64-0.95,1.47-1.56,1.57c-1.04,0.16-1.85-0.73-2.01-1.7
		C101.97,89.15,103.09,88.93,104.02,88.67z"/>
	<path class="st120" d="M97.98,85.31c-0.26,0.02-0.52,0-0.77-0.05c-1.53-0.55-3.86,0.95-4.58-1.31c-0.32-0.98,1.27-1.6,2.4-1.84
		c1.3,0.36,0.81,2.86,2.84,2.36C97.85,84.76,97.89,85.04,97.98,85.31z"/>
	<path class="st120" d="M105.9,95.9c-0.23,1.33-1.16,1.45-2.23,1.27c-0.61-0.1-1.47-0.04-1.47-0.95c-0.01-1.29,1.15-1.51,2.04-1.71
		C105.22,94.28,105.67,95.05,105.9,95.9z"/>
	<path class="st121" d="M106.02,107.04c1.94,0.24,2.23,1.48,1.9,3.1c-1.73,1.33-2.88,0.45-3.86-1.03c-0.09-0.28-0.09-0.57,0-0.85
		C104.71,107.86,105.36,107.45,106.02,107.04z"/>
	<path class="st122" d="M97.07,93.17c0.02-0.57,0.03-1.14,0.05-1.7c1.21,0.11,2.62-0.77,3.56,0.59c0.16,0.24-0.09,0.91-0.34,1.25
		C99.21,94.89,98.13,93.86,97.07,93.17z"/>
	<path class="st123" d="M104.88,102.87c-1.09,0.01-2.59,0.6-2.5-1.32c0.08-1.76,1.52-1.35,2.65-1.32
		C105.6,101.14,105.9,102.04,104.88,102.87z"/>
	<path class="st124" d="M110.19,88.3c-0.41,0.99-1.32,0.99-2.17,1.09c-1.47-2.36-0.85-3.33,1.92-2.86
		C110.03,87.12,110.11,87.71,110.19,88.3z"/>
	<path class="st125" d="M96.17,95.26c-0.69,0.9-1.61,1.24-2.48,0.49c-0.68-0.58-0.62-1.61,0.1-2.14c0.9-0.66,1.84-0.43,2.42,0.64
		C96.19,94.58,96.18,94.92,96.17,95.26z"/>
	<path class="st126" d="M104.88,102.87c0.37-0.86,0.6-1.74,0.14-2.64c1.13,1.24,2.79,2.07,3.06,3.97c-0.36,0.03-0.72,0.06-1.07,0.09
		C106.06,104.16,105.25,103.85,104.88,102.87z"/>
	<path class="st127" d="M108.02,91.13c2.37-0.02,2.34,1.33,1.75,3.01C107.82,93.91,106.38,93.4,108.02,91.13z"/>
	<path class="st128" d="M98.02,105.25c-0.94-1.47-1.68-2.87,1-3.22c1.04,0.38,1.1,1.3,1.21,2.2
		C99.77,105.16,98.93,105.28,98.02,105.25z"/>
	<path class="st78" d="M109.02,106.23c0-0.67,0-1.35,0-2.02c0.4-0.38,0.81-0.75,1.21-1.13c1.53-0.02,1.75,0.95,1.66,2.16
		C111.29,106.59,110.42,107.17,109.02,106.23z"/>
	<path class="st129" d="M108.92,81.25c0.35,0.02,0.69,0.04,1.04,0.06c0.34,0.22,0.55,0.53,0.59,0.94c-0.06,0.4-0.25,0.72-0.57,0.98
		c-1.19-0.01-2.94,0.76-3.34-0.64C106.16,80.89,107.95,81.41,108.92,81.25z"/>
	<path class="st130" d="M107.86,74.96c-0.34,0.33-0.62,0.8-1.03,0.96c-0.73,0.28-0.88-0.52-0.69-0.79c0.75-1.04,0.56-3.08,2.72-2.72
		C109.2,73.52,108.45,74.21,107.86,74.96z"/>
	<path class="st131" d="M103.97,107.05c-1.3,0.06-3.74,2.11-2.85-1.63C102.5,105.23,104,104.83,103.97,107.05z"/>
	<path class="st132" d="M109.8,97.36c0.41,1.14,0.07,2.07-0.81,2.85c-0.99-0.2-1.91-0.65-1.74-1.78
		C107.48,96.88,108.69,97.11,109.8,97.36z"/>
	<path class="st133" d="M98.13,83.18c-0.31-1.48,0.32-2.05,1.78-1.82c0.02,0.61,0.03,1.22,0.05,1.82
		C99.34,83.86,98.73,83.98,98.13,83.18z"/>
	<path class="st134" d="M98.08,99.19c0-0.62-0.01-1.24-0.01-1.86c1.53-0.36,2.2,0.18,1.88,1.77c-0.61,0.7-1.21,0.75-1.8-0.01
		L98.08,99.19z"/>
	<path class="st109" d="M109.99,83.22c0.02-0.34,0.13-0.64,0.32-0.92c0.16-0.4,0.34-0.79,0.53-1.18c0,0,0.03,0.01,0.03,0.01
		c0.4,0.41,0.8,0.83,1.2,1.24c-0.03,0.33-0.05,0.65-0.07,0.98c-0.33,0.29-0.66,0.59-0.97,0.9c0,0-0.12,0.04-0.12,0.04
		C110.6,83.93,110.3,83.58,109.99,83.22z"/>
	<path class="st135" d="M98.15,99.09c0.6,0,1.2,0.01,1.8,0.01c-0.31,0.39-0.62,0.79-0.93,1.18C98.73,99.89,98.44,99.49,98.15,99.09z
		"/>
	<path class="st136" d="M98.13,83.18c0.61,0,1.22,0.01,1.83,0.01c-0.27,1.03-1.14,1.03-1.95,1.13
		C98.04,83.94,98.09,83.56,98.13,83.18z"/>
	<path class="st137" d="M151.91,219.6c-0.64,0.03-1.27,0.06-1.91,0.08c-1.56-0.56-2.18-1.93-2.86-3.25
		c-0.96-3.46-1.05-6.93,0.03-10.38c0.97-1.36,1.98-2.78,3.98-2.09c1.95,0.68,2.01,2.41,1.91,4.08
		C152.83,211.91,153.86,215.91,151.91,219.6z"/>
	<path class="st138" d="M147.17,206.05c-0.01,3.46-0.02,6.92-0.03,10.38c-0.32,0.29-0.78,2.03-0.97,0.54
		c-0.47-3.81-0.47-7.76,0.02-11.58C146.37,204.05,146.83,205.76,147.17,206.05z"/>
	<path class="st139" d="M78.01,108.18c-0.31-0.31-0.63-0.63-0.94-0.94c-0.95-0.88-1.1-1.96-0.84-3.16c0.12-0.43,0.33-0.82,0.59-1.18
		c0.92-0.87,1.91-1.68,2.68-2.7c0.29-0.31,0.63-0.56,1-0.77c0.76-0.38,1.53-0.73,2.42-0.5c0.08,0.5,0.16,1,0.23,1.5
		c0.28,0.34,0.41,0.73,0.38,1.18c-0.63,1.35-1.25,2.72-2.61,3.55C78.98,105.25,78.76,106.97,78.01,108.18z"/>
	<path class="st68" d="M80.03,93.26c3.24-0.05,4.65,1.09,2.85,4.33c-0.98,0.64-2.03,0.7-3.11,0.31c-1.43-0.74-1.77-1.96-1.5-3.44
		C78.58,93.67,79.01,93.03,80.03,93.26z"/>
	<path class="st140" d="M91.96,103.14c0.41,0.38,0.81,0.76,1.22,1.14c0.12,0.43,0,0.76-0.41,0.98c-1.92,0.99-3.82-0.55-5.73-0.05
		c0.46-1.75,0.44-3.72,2.21-4.88c0.57,0.69,1.16,1.36,1.82,1.96C91.36,102.56,91.66,102.85,91.96,103.14z"/>
	<path class="st141" d="M82.02,90.27c-0.67,0.65-1.34,1.31-2.01,1.96c-0.97,0.89-1.75,0.5-2.45-0.37c-0.35-0.66-0.46-1.37-0.39-2.11
		c0.08-0.47,0.25-0.91,0.5-1.32c0.32-0.35,0.7-0.62,1.14-0.8c0.69-0.18,1.38-0.15,2.05,0.08c0.64,0.29,1.13,0.75,1.46,1.37
		C82.47,89.54,82.37,89.94,82.02,90.27z"/>
	<path class="st142" d="M77.99,91.15c0.42,0.84,1.16,1.08,2.03,1.09c0,0.34,0.01,0.68,0.01,1.03c-0.33,0.33-0.66,0.66-0.99,0.98
		c-0.34,0.33-0.73,0.59-1.17,0.77c-0.71,0.17-1.41,0.13-2.1-0.11c-0.99-0.45-1.36-1.23-1.23-2.28c0-0.73,0.23-1.36,0.86-1.79
		c0.43-0.19,0.88-0.28,1.34-0.28C77.2,90.67,77.62,90.87,77.99,91.15z"/>
	<path class="st143" d="M75.89,81.39c0.72-0.28,1.43-0.57,2.15-0.85c0.94-0.92,1.95-0.93,3.01-0.22c0.4,1.12-0.14,1.71-1.16,2.03
		c-0.73,0.37-1.46,0.73-2.2,1.1c-0.23,0.76-0.73,1.14-1.54,1.09c-0.38-0.31-0.58-0.7-0.62-1.19C75.32,82.65,75.43,81.99,75.89,81.39
		z"/>
	<path class="st144" d="M87.83,85.28c1.78-1.86,2.72-0.88,3.39,1c-0.56,0.78-1.03,1.96-2.07,1.81
		C87.6,87.87,88.34,86.21,87.83,85.28z"/>
	<path class="st145" d="M90.95,96.27c0.76,1.21,2.71,1.05,3.12,2.68c-0.43,1.38-1.72,1.44-2.81,1.82c-0.48-0.06-0.89-0.25-1.23-0.61
		c-0.64-0.69-1.29-1.38-1.93-2.08C88.92,97.29,90,96.88,90.95,96.27z"/>
	<path class="st146" d="M80.91,105.17c-0.14-1.85,1.04-2.95,2.3-4c0.75,0.05,1.37,0.18,0.84,1.15c0.8,2.08-1.27,2.53-2.1,3.7
		C81.61,105.73,81.26,105.45,80.91,105.17z"/>
	<path class="st147" d="M86.93,106.47c0.16,2.06,0.4,4.18-2.84,3.57C83.41,107.57,85.16,107.01,86.93,106.47z"/>
	<path class="st148" d="M82.81,81.42c1.95,0.59,4.15,1.04,2.31,3.87c-1.65,0.32-2.05-1.27-3.04-1.98
		C81.41,82.34,82.06,81.86,82.81,81.42z"/>
	<path class="st149" d="M90.76,100.38c1.1-0.47,2.21-0.95,3.31-1.42c0.32,0.42,0.65,0.84,0.97,1.27c-0.77,1.24-3.14,0.8-3.08,2.91
		c-0.41-0.03-0.83-0.07-1.24-0.1C90.14,102.14,90.19,101.26,90.76,100.38z"/>
	<path class="st150" d="M90.95,96.27c0.32,2.58-1.16,2.36-2.85,1.81C87.58,95.2,88.9,95.17,90.95,96.27z"/>
	<path class="st151" d="M82.02,90.27c0-0.33-0.01-0.67-0.01-1c0.7-1.3,1.58-2,3-0.89c0.28,0.82,0.99,1.64-0.05,2.46
		C83.74,91.79,83.02,90.35,82.02,90.27z"/>
	<path class="st70" d="M84.05,102.32c-0.28-0.38-0.56-0.77-0.84-1.15c-0.04-0.24-0.06-0.49-0.07-0.73c1.12-0.41,2.53-2.16,3.35-0.71
		C87.66,101.8,84.41,100.96,84.05,102.32z"/>
	<path class="st152" d="M85.01,88.38c-1,0.3-2,0.59-3,0.89c-0.33-0.34-0.65-0.69-0.98-1.03c-0.53-0.97,0.06-1.46,0.81-1.88
		C83.04,86.81,84.33,87.11,85.01,88.38z"/>
	<path class="st153" d="M80.13,97.3c0.92,0.1,1.84,0.2,2.75,0.3c0.01,0.45,0.02,0.9,0.03,1.35c-0.62,0.43-1.25,0.86-1.87,1.28
		C79.99,99.48,78.81,98.77,80.13,97.3z"/>
	<path class="st154" d="M81.84,86.36c-0.27,0.63-0.54,1.25-0.81,1.88c-0.6-0.02-1.21-0.04-1.81-0.07c-0.69-0.25-0.83-0.8-0.82-1.44
		c0.09-0.41,0.29-0.75,0.61-1.03C80.11,85.24,80.93,86,81.84,86.36z"/>
	<path class="st65" d="M90.76,100.38c-0.01,0.89-0.03,1.77-0.04,2.66c-1.97-0.1-2.19-1.15-1.47-2.71c0.29,0.07,0.55,0.01,0.78-0.17
		C90.24,100.36,90.48,100.43,90.76,100.38z"/>
	<path class="st155" d="M89.56,91.26c0.54,0.19,1.5-0.09,1.24,0.97c-0.09,0.35-0.6,0.75-0.99,0.85c-0.69,0.18-1.32-0.16-1.49-0.88
		C88.07,91.09,89.08,91.5,89.56,91.26z"/>
	<path class="st119" d="M82.81,81.42c-0.24,0.63-0.49,1.26-0.73,1.9c-0.91,0.08-1.7-0.1-2.19-0.96c0.39-0.68,0.77-1.35,1.16-2.03
		C81.64,80.69,82.22,81.06,82.81,81.42z"/>
	<path class="st70" d="M76.06,84.34c0.54-0.29,1.09-0.59,1.63-0.88c0.08,0.3,0.19,0.58,0.34,0.85c0.53,0.52,0.49,1.15,0.37,1.8
		c-0.27,0.37-0.64,0.56-1.1,0.57c-0.68-0.16-1.17-0.57-1.49-1.18C75.63,85.05,75.73,84.67,76.06,84.34z"/>
	<path class="st156" d="M77.94,85.99c0.03-0.56,0.06-1.12,0.09-1.68c0.7,0.2,0.95,0.72,0.97,1.39c0.1,0.16,0.13,0.33,0.07,0.5
		C78.6,86.66,78.22,86.58,77.94,85.99z"/>
	<path class="st157" d="M91.01,74.42c0.33,0.94,0.66,1.88,0.99,2.81c-1.34,0.37-2.68,0.75-4.02,1.12c0,0,0.08,0.08,0.08,0.08
		c0.05-1.02,0.1-2.04,0.15-3.06C89.13,75.04,89.81,73.99,91.01,74.42z"/>
	<path class="st158" d="M92.12,78.5c1.19-0.63,2.56-2.05,3.65-0.3c1.24,1.98-1.31,1.95-2.02,2.93
		C93.21,80.25,92.67,79.37,92.12,78.5z"/>
	<path class="st159" d="M88.01,80.36c-1.32-0.24-2.98,0.8-3.87-0.93c-0.13-0.26,0.21-0.89,0.49-1.22c1.22-1.44,2.31-0.3,3.43,0.23
		c0,0-0.07-0.09-0.08-0.08c0.02,0.35,0.03,0.69,0.05,1.04c0.31,0.22,0.42,0.43,0.31,0.65C88.22,80.25,88.12,80.36,88.01,80.36z"/>
	<path class="st65" d="M88.01,80.36c0.12-0.32,0.13-0.64,0.02-0.96c0.93,0.56,1.86,1.12,2.79,1.68c-0.29,0.34-0.53,0.92-0.88,0.99
		C88.64,82.33,88.27,81.37,88.01,80.36z"/>
	<path class="st160" d="M116.86,87.38c0.11,0.32,0.17,0.64,0.17,0.98c-0.36,0.25-0.7,0.21-1-0.1l0,0.02
		C116.31,87.98,116.59,87.68,116.86,87.38z"/>
	<path class="st161" d="M111.03,84.25c0.32-0.3,0.65-0.6,0.97-0.9C111.68,83.66,111.35,83.96,111.03,84.25z"/>
	<path class="st162" d="M101.06,79.38c-1.81-0.14-3.71-0.2-2.75-2.93c0.89-0.31,1.77-0.62,2.66-0.93
		C101,76.8,101.03,78.09,101.06,79.38z"/>
	<path class="st163" d="M96.68,76.15c-5.54-0.91-0.92-2.92-0.48-4.47c0.19-0.01,0.36-0.07,0.51-0.18
		C96.76,73.05,97.43,74.61,96.68,76.15z"/>
	<path class="st164" d="M76.16,91.22c-0.37,0.32-0.74,0.65-1.11,0.97c-0.17,0.19-0.34,0.38-0.51,0.57
		c-0.08-0.24-0.16-0.48-0.24-0.72c-0.76-0.6-1.53-1.19-2.29-1.79c0.61-1.02,1.21-2.04,1.82-3.05c0.4,0.03,0.8,0.05,1.2,0.08
		c0.16,0.1,0.33,0.21,0.49,0.31c0.4,0.43,0.71,0.92,0.95,1.46c0.14,0.37,0.21,0.75,0.21,1.14C76.6,90.58,76.43,90.93,76.16,91.22z"
		/>
	<path class="st165" d="M73.98,99.13c-0.63-0.99-1.25-0.06-1.88,0.01c-0.39-0.94-0.78-1.87-1.18-2.81c0.51-0.66,1.22-0.86,2.02-0.84
		c1.09,0.15,1.92,0.69,2.49,1.62c0.29,0.75,0.26,1.49-0.17,2.18C74.78,99.66,74.36,99.6,73.98,99.13z"/>
	<path class="st166" d="M75.02,97.29c-0.57-0.37-1.15-0.75-1.72-1.12c-0.88-0.5-0.82-1.15-0.29-1.87c0.43-0.75,0.86-1.5,1.29-2.25
		c0.24,0.1,0.49,0.15,0.75,0.15c0.07,0.84,0.16,1.67,1.06,2.1c0.5,0.8,0.1,1.5-0.23,2.21C75.66,96.84,75.38,97.1,75.02,97.29z"/>
	<path class="st167" d="M73.01,94.3c0.09,0.62,0.19,1.25,0.28,1.87c-0.79,0.05-1.58,0.1-2.37,0.16c-0.84-0.54-0.97-1.29-0.44-2.07
		C71.31,93.05,72.18,93.9,73.01,94.3z"/>
	<path class="st168" d="M116.15,91.99c-0.35-1.57,0.71-1.74,1.84-1.84c0.35-0.07,0.7-0.13,1.05-0.2c3.2,0.65,0.29,3.02,1.22,4.31
		c0,0-0.46-0.17-0.46-0.17l-0.5,0.02C117.71,94.19,116.81,93.27,116.15,91.99z"/>
	<path class="st169" d="M114.98,101.07c0.01-0.62,0.02-1.24,0.03-1.86c0.58-0.6,1.16-1.19,1.74-1.79c1.13,0.61,1.18,1.66,1.13,2.75
		C117.05,100.9,116.14,101.39,114.98,101.07z"/>
	<path class="st170" d="M116.15,91.99c1.54-0.01,2.58,0.71,3.15,2.12c-0.34,1.07-1.18,1.27-2.15,1.25c-0.84-0.41-1.1-1.14-1.14-2
		C116.06,92.9,116.11,92.44,116.15,91.99z"/>
	<path class="st171" d="M156.99,222.62c-0.02,0.96-0.03,1.93-0.05,2.89c-1.05,0.33-2.11,0.67-3.16,1c-0.42-1.69-0.65-3.29,1.63-3.83
		C155.94,222.65,156.47,222.63,156.99,222.62z"/>
	<path class="st172" d="M155.41,222.67c-1.18,1.01-1.99,2.18-1.63,3.84c-0.76,0.07-1.39-0.11-1.72-0.88
		C154.03,225.59,151.41,220.41,155.41,222.67z"/>
	<path class="st173" d="M77.13,103.29c-0.02,1.32-0.04,2.63-0.06,3.95c-2.1,0.08-2.59-2.09-4.08-2.87c0.28-0.38,0.55-0.76,0.83-1.14
		c1.09,0.23,0.64-1.3,1.51-1.32C76.26,101.95,76.87,102.39,77.13,103.29z"/>
	<path class="st41" d="M109.02,106.23c0.96-0.33,1.91-0.66,2.87-0.99c0.28,0.04,0.56,0.11,0.84,0.2c0.39,0.05,0.68,0.24,0.88,0.58
		c0.17,0.34,0.28,0.69,0.36,1.06c0.03,0.37,0.05,0.74,0.06,1.12c-0.04,0.34-0.09,0.68-0.13,1.02c-1.28,0.01-2.57,0.01-3.85,0.02
		C109.71,108.23,109.37,107.23,109.02,106.23z"/>
	<path class="st174" d="M104.06,109.11c1.26,0.43,2.39,1.37,3.86,1.03c0.39,0.02,0.78,0.05,1.17,0.07c0.04,0.35,0.09,0.7,0.13,1.05
		c-0.79,1.14-1.98,0.83-3.08,0.84c-0.43-0.91-1.33-0.94-2.14-1.14C104.02,110.34,104.04,109.73,104.06,109.11z"/>
	<path class="st175" d="M75.89,81.39c0.06,0.67,0.11,1.33,0.17,2c-0.34,0.37-0.7,0.38-1.06,0.03l0.12-0.26
		c-0.64-0.54-0.69-1.08-0.01-1.62C75.35,81.42,75.61,81.37,75.89,81.39z"/>
	<path class="st176" d="M75.1,81.54c0,0.54,0.01,1.08,0.01,1.62c-0.67,0.11-1.01-0.24-1.18-0.83C74.32,82.07,74.71,81.8,75.1,81.54z
		"/>
	<path class="st177" d="M115,104.14c0-0.26,0.03-0.53,0.08-0.79c1.05,0.21,0.74,1.06,0.81,1.73c-0.3,0.13-0.57,0.29-0.83,0.48
		c-0.14-0.13-0.28-0.25-0.42-0.38C114.63,104.8,114.75,104.45,115,104.14z"/>
	<path class="st178" d="M74.99,83.42c0.35-0.01,0.71-0.02,1.06-0.03c-0.05,0.32-0.05,0.63,0,0.95c-0.09,0.32-0.08,0.63,0.04,0.94
		c0.12,0.19,0.24,0.37,0.36,0.56c-0.09,0.2-0.18,0.41-0.27,0.61c-0.42,0.25-0.81,0.2-1.15-0.15C75.03,85.33,75.01,84.38,74.99,83.42
		z"/>
	<path class="st179" d="M75.04,86.29c0.25,0.01,0.5,0.04,0.75,0.09c0.28,0.14,0.4,0.31,0.38,0.53c-0.03,0.23-0.08,0.35-0.15,0.35
		c-0.33,0.27-0.66,0.29-0.99,0.02c0,0,0,0.01,0,0.01C75.04,86.95,75.04,86.62,75.04,86.29z"/>
	<path class="st170" d="M116.03,88.25c0.33,0.03,0.67,0.07,1,0.1c-0.04,0.31-0.05,0.63-0.04,0.94
		C116.67,88.95,116.35,88.6,116.03,88.25z"/>
	<path class="st180" d="M75.15,102.21c-0.32,0.51,0.29,2.2-1.33,1.02c-0.78-1.4,0.16-2.73,0.16-4.1c0.42-0.06,0.83-0.11,1.25-0.17
		C75.99,100.06,76.06,101.15,75.15,102.21z"/>
	<path class="st181" d="M114.04,108.19c-0.31-0.35-0.63-0.7-0.94-1.04c0.3-0.31,0.67-0.48,1.1-0.54c0.2,0.06,0.4,0.11,0.61,0.17
		c0.16,0.13,0.32,0.27,0.48,0.4c-0.08,0.28-0.12,0.57-0.13,0.87C114.78,108.1,114.41,108.14,114.04,108.19z"/>
	<path class="st182" d="M115.97,106.47c0.01,0.26,0.02,0.52,0.03,0.78c0,0-0.37,0.03-0.37,0.03s-0.36-0.1-0.36-0.1
		c0,0-0.38,0.09-0.38,0.09c-0.3-0.56-0.21-1.04,0.27-1.46C115.43,106.03,115.7,106.25,115.97,106.47z"/>
	<path class="st66" d="M115.17,105.82c-0.09,0.49-0.18,0.97-0.27,1.46c-0.3-0.06-0.61-0.09-0.92-0.08
		c-0.33-0.32-0.65-0.65-0.97-0.99c-0.11-0.25-0.21-0.5-0.28-0.76c0.46-0.08,0.91-0.17,1.37-0.25c0.27-0.3,0.59-0.38,0.98-0.26
		c0.13,0.22,0.12,0.44-0.04,0.64C115.05,105.56,115.17,105.82,115.17,105.82z"/>
	<path class="st183" d="M92.77,105.26c0.14-0.33,0.27-0.65,0.41-0.98c0.3,0.34,0.59,0.67,0.89,1.01
		C93.63,105.28,93.2,105.27,92.77,105.26z"/>
	<path class="st184" d="M90.77,173.93c0.01,6.61,0.03,13.22,0.04,19.84c-0.29,0-0.58-0.01-0.87-0.03
		c-0.7-6.58-0.55-13.16-0.06-19.74C90.18,173.97,90.47,173.94,90.77,173.93z"/>
	<path class="st70" d="M89.88,174c0.02,6.58,0.04,13.16,0.06,19.74C88.38,187.16,88.47,180.58,89.88,174z"/>
	<path class="st185" d="M102.08,152.11c-0.04-6.28-0.09-12.56-0.13-18.84C103.78,139.54,103.52,145.82,102.08,152.11z"/>
	<path class="st186" d="M115.08,104.92c-0.33,0.09-0.65,0.18-0.98,0.26c0.3-0.35,0.59-0.69,0.89-1.04
		C115.01,104.41,115.04,104.67,115.08,104.92z"/>
	<path class="st187" d="M110.84,81.13c-0.18,0.39-0.35,0.78-0.53,1.18c-0.12-0.33-0.23-0.66-0.35-1
		C110.27,81.3,110.56,81.24,110.84,81.13z"/>
	<path class="st188" d="M75.15,102.21c0.02-1.08,0.05-2.16,0.07-3.24c-0.07-0.56-0.14-1.12-0.21-1.68c0.09-0.47,0.19-0.95,0.28-1.42
		c1.18,0.02,1.96-0.66,2.61-1.54c0.38-0.03,0.75-0.05,1.13-0.08c0.13,1.1-0.13,2.34,1.09,3.05c-0.44,1.2,0.25,2.06,0.91,2.93
		c-0.37,0.01-0.75,0.02-1.12,0.03c-1.03,0.9-1.96,1.9-2.86,2.92c0,0,0.07,0.12,0.07,0.12C76.47,102.93,75.81,102.57,75.15,102.21z"
		/>
	<path class="st120" d="M77.06,103.17c-0.21-2.11,0.3-3.51,2.86-2.92C79.94,102.17,79.4,103.54,77.06,103.17z"/>
	<path class="st189" d="M75.03,87.28c0.34,0,0.68,0.01,1.02,0.01c0.19,0.02,0.38,0.03,0.58,0.05c0.39,0.08,0.74,0.23,1.06,0.46
		c0.12,0.15,0.23,0.31,0.34,0.47c-0.03,0.39-0.06,0.78-0.09,1.17c-0.7,0.45-1.36,0.43-1.97-0.18C75.13,88.85,75.01,88.1,75.03,87.28
		z"/>
	<path class="st190" d="M76.05,87.29c-0.01-0.32-0.09-0.63-0.26-0.91c0,0,0.3-0.13,0.3-0.13c0.3-0.31,0.64-0.34,1-0.13
		c0.31,0.11,0.59,0.06,0.85-0.14c0.38,0.07,0.76,0.15,1.13,0.22c0.05,0.66,0.1,1.31,0.14,1.97c-0.4,0.03-0.79,0.06-1.19,0.09
		c0,0,0.03,0.03,0.03,0.03c-0.53-0.64-1.49-0.43-2.04-1.02L76.05,87.29z"/>
	<path class="st191" d="M75.97,89.26c0.66,0.06,1.31,0.12,1.97,0.18c0.02,0.57,0.03,1.14,0.05,1.71c-0.34-0.01-0.68-0.03-1.02-0.04
		c-0.32-0.22-0.6-0.48-0.83-0.79C76.08,89.97,76.03,89.61,75.97,89.26z"/>
	<path class="st192" d="M77.91,94.33c0.29,0.91,0.69,1.97-0.3,2.58c-1.08,0.67-1.69-0.33-2.3-1.04c0.27-0.52,0.54-1.05,0.81-1.57
		C76.71,94.3,77.31,94.32,77.91,94.33z"/>
	<path class="st193" d="M76.14,90.32c0.28,0.26,0.55,0.53,0.83,0.79c0,0-0.39,0.13-0.39,0.13s-0.42-0.02-0.42-0.02
		C76.05,90.92,76.04,90.62,76.14,90.32z"/>
	<path class="st156" d="M77.09,86.12c-0.33,0.04-0.67,0.09-1,0.13c0-0.33,0.01-0.65,0.01-0.98C76.43,85.56,76.76,85.84,77.09,86.12z
		"/>
	<path class="st70" d="M113.02,106.2c0.62,0.04,0.92,0.39,0.97,0.99c-0.3,0.01-0.6-0.01-0.89-0.04
		C113.07,106.83,113.04,106.51,113.02,106.2z"/>
	<path class="st194" d="M76.02,87.27c0.84,0.03,1.61,0.18,2.04,1.02C77.22,88.27,76.45,88.11,76.02,87.27z"/>
	<rect x="160.44" y="190" class="st1" width="24.17" height="5.78"/>
</g>
</svg>
