<?xml version="1.0" encoding="utf-8"?>
<!-- Generator: Adobe Illustrator 24.0.3, SVG Export Plug-In . SVG Version: 6.00 Build 0)  -->
<svg version="1.1" id="Layer_4" xmlns="http://www.w3.org/2000/svg" xmlns:xlink="http://www.w3.org/1999/xlink" x="0px" y="0px"
	 viewBox="0 0 640 257.5" style="enable-background:new 0 0 640 257.5;" xml:space="preserve">
<style type="text/css">
	.st0{clip-path:url(#SVGID_2_);fill:#6AB57B;}
	.st1{display:none;clip-path:url(#SVGID_6_);stroke:#000000;stroke-width:3;stroke-miterlimit:10;}
	.st2{display:none;clip-path:url(#SVGID_12_);fill:#EFCB69;stroke:#010101;stroke-width:3;stroke-miterlimit:10;}
	.st3{fill:none;}
	.st4{fill:#DAD9D9;}
	.st5{font-family:'OpenSans-ExtraBold';}
	.st6{font-size:17.8976px;}
	.st7{letter-spacing:1;}
	.st8{fill:#EB2329;}
	.st9{stroke:#000000;stroke-width:2;stroke-linecap:square;stroke-linejoin:bevel;stroke-miterlimit:10;}
	.st10{font-family:'OpenSans-ExtraBoldItalic';}
	.st11{font-size:54.6868px;}
	.st12{letter-spacing:-2;}
	.st13{fill:#FFFFFF;stroke:#010101;stroke-width:2;stroke-linecap:square;stroke-linejoin:bevel;stroke-miterlimit:10;}
	.st14{display:none;fill:#EB2329;}
	.st15{fill:#FFFFFF;}
	.st16{font-family:'OpenSans-Regular';}
	.st17{font-size:9.4459px;}
</style>
<g id="Layer_5">
	<g>
		<defs>
			<path id="SVGID_1_" d="M577.8,256.8H61.5c-33.1,0-60-26.9-60-60V60.8c0-33.1,26.9-60,60-60h516.4c33.1,0,60,26.9,60,60v136.1
				C637.8,230,611,256.8,577.8,256.8z"/>
		</defs>
		<clipPath id="SVGID_2_">
			<use xlink:href="#SVGID_1_"  style="overflow:visible;"/>
		</clipPath>
		<path class="st0" d="M577.8,256.8H61.5c-33.1,0-60-26.9-60-60V60.8c0-33.1,26.9-60,60-60h516.4c33.1,0,60,26.9,60,60v136.1
			C637.8,230,611,256.8,577.8,256.8z"/>
	</g>
	<g>
		<g>
			<g>
				<defs>
					<path id="SVGID_3_" d="M515.4,307.3c9.8-26.2,19.6-52.3,29.4-78.5c2.4-6.4,4.6-12.8,6.7-19.3c0.8-2.4,1-4.9-0.2-7.4
						c-2.2-4.5-4.5-9-6.5-13.6c-3.2-7.3-6.4-14.7-9.4-22.1c-1-2.3-0.9-4.8-0.4-7.3c1.5-7.3,2.9-14.6,4.4-21.9
						c0.7-3.3,1.4-6.6,2.3-9.8c0.9-3,2.6-5.4,6.1-5.6c10.8-0.7,21.6,0,32.3,1c2.6,0.2,4.8,2.2,5,4.8c0.1,1.7,0,3.6-0.7,5.2
						c-3.6,8.9-15.7,15.3-25.1,13.3c-1.2-0.3-2.4-0.7-3.6-1.1c0.6,1,1.3,2,2.3,2.5c1.4,0.6,1.2,1.5,0.6,2.4
						c-0.6,0.9-1.4,1.8-2.2,2.6c0.1,0.1,0.2,0.2,0.2,0.3c1.3-0.9,2.6-1.8,4.1-2.8c0.1,2.9,2.1,4.6,3.9,6.5
						c5.1,5.5,10.2,11,15.3,16.6c2.5,2.8,3.9,6.2,4.4,9.9c0.9,6.6-1.5,12.3-5.5,17.4c-0.3,0.4-0.7,0.9-1,1.3
						c6.7-6.1,11.3-13.2,8.7-23.3c1,0.4,1.9,0.5,2.4,0.9c2.3,1.9,4.8,3.2,7.8,3.7c3.3,0.6,6.5-0.3,9.7-1.7c1.6,3.1,3.1,6,4.6,8.9
						c0.2-0.1,0.3-0.1,0.5-0.2c-0.8-3-1.7-5.9-2.5-8.9c1.2,0.4,2.5,0.7,3.7,1.1c4.2,1.6,7.7,0.4,10.5-3c0.2-0.2,0.4-0.4,0.5-0.6
						c1.1-1.6,2.3-2,4.3-1.3c2,0.7,4.2,0.9,6.3,1.3c0-0.2,0.1-0.3,0.1-0.5c-2.5-1.1-5.6-0.8-7.6-2.9c3.3-3.8,6.5-7.5,9.9-11.4
						c0,0.5,0.1,0.8,0,1c-1.1,4.2-0.8,8.2,0.8,12.2c0.1,0.2,0.1,0.4,0.1,0.6c0.6,1.9-0.1,3.2-1.5,4.5c-1.1,1.1-2.3,2.4-2.8,3.9
						c-5.2,14.3-13.1,27.1-22.5,39.1c-2.1,2.7-3.7,5.4-4.6,8.8c-6.5,24.5-13.1,49-19.7,73.5C562.9,307.3,539.2,307.3,515.4,307.3z
						 M611.2,133c-1.7,0-2.8,0.6-3.8,2.2c-5.6,9.2-11.3,18.2-17,27.3c-1.8,2.8-1.6,5.5,0.7,7.9c2.8,2.9,6.3,4.3,10.3,4.5
						c2.3,0.1,3.9-1.3,5.2-3c2.6-3.4,5.2-6.8,7.5-10.5c3.2-5.1,6.1-10.3,9.2-15.4c1-1.6,0.8-3.3-0.1-4.8
						C620.4,136.5,616.5,133.7,611.2,133z M584.1,164.8c1.8,0,3.4-0.4,4.4-2c5.9-9.5,11.7-19,17.6-28.5c0.9-1.5,0.8-2.7,0.1-4.2
						c-2.2-4.5-5.2-8.1-10.5-8.3c-2.2-0.1-4.5,0.7-6.8,1.2c-0.4,0.1-0.8,0.7-0.8,1c-0.1,4.6-2,8.7-4.2,12.6c-3,5.3-6,10.7-9,16
						c-1.8,3.2-1.6,5.8,0.8,8.4C578,163.4,580.8,164.8,584.1,164.8z M616.6,181.4c1.5-0.8,3.4-1.3,4.5-2.4c5-5.2,9.8-10.7,14.7-16.1
						c1.1-1.2,1.3-2.3,0.7-3.8c-0.5-1.2-0.9-2.5-1.4-3.7c-1.8-4.6-5.5-6.7-10.1-7.5c-0.4-0.1-1.1,0.4-1.4,0.8
						c-5.3,7.9-10.5,15.8-15.7,23.6c-0.9,1.4-0.8,2.6,0,3.8C609.3,178.8,613.3,181,616.6,181.4z M560.8,120.5
						c3.6-0.5,7.6,2.2,10.9-2.3c0.1,1.4,0.2,2.1,0.2,2.9c2.3,0.1,4.5,0.5,6.8,0.4c3.5-0.2,5.9,1.4,7.7,4.3c1.5-4.9-0.3-9.6-4.7-12
						c-0.6-0.3-1.2-0.6-1.9-0.9c-3.6-1.7-7-1.9-10.4,0.8c-2.8,2.3-5.9,4.3-8.8,6.4C560.6,120.1,560.7,120.3,560.8,120.5z
						 M579.3,141.5c-5.3,4.6-11.1,7.4-18.3,5.4c-0.1,0.2-0.2,0.4-0.3,0.5c0.8,1.1,1.5,2.5,2.6,3.3c2.2,1.4,4.6,2.6,7,3.6
						c0.7,0.3,2.1-0.1,2.5-0.7c2.4-3.8,4.7-7.7,7-11.5C579.6,141.8,579.4,141.7,579.3,141.5z"/>
				</defs>
				<clipPath id="SVGID_4_">
					<use xlink:href="#SVGID_3_"  style="overflow:visible;"/>
				</clipPath>
			</g>
			<g>
				<defs>
					<path id="SVGID_5_" d="M515.4,307.3c9.8-26.2,19.6-52.3,29.4-78.5c2.4-6.4,4.6-12.8,6.7-19.3c0.8-2.4,1-4.9-0.2-7.4
						c-2.2-4.5-4.5-9-6.5-13.6c-3.2-7.3-6.4-14.7-9.4-22.1c-1-2.3-0.9-4.8-0.4-7.3c1.5-7.3,2.9-14.6,4.4-21.9
						c0.7-3.3,1.4-6.6,2.3-9.8c0.9-3,2.6-5.4,6.1-5.6c10.8-0.7,21.6,0,32.3,1c2.6,0.2,4.8,2.2,5,4.8c0.1,1.7,0,3.6-0.7,5.2
						c-3.6,8.9-15.7,15.3-25.1,13.3c-1.2-0.3-2.4-0.7-3.6-1.1c0.6,1,1.3,2,2.3,2.5c1.4,0.6,1.2,1.5,0.6,2.4
						c-0.6,0.9-1.4,1.8-2.2,2.6c0.1,0.1,0.2,0.2,0.2,0.3c1.3-0.9,2.6-1.8,4.1-2.8c0.1,2.9,2.1,4.6,3.9,6.5
						c5.1,5.5,10.2,11,15.3,16.6c2.5,2.8,3.9,6.2,4.4,9.9c0.9,6.6-1.5,12.3-5.5,17.4c-0.3,0.4-0.7,0.9-1,1.3
						c6.7-6.1,11.3-13.2,8.7-23.3c1,0.4,1.9,0.5,2.4,0.9c2.3,1.9,4.8,3.2,7.8,3.7c3.3,0.6,6.5-0.3,9.7-1.7c1.6,3.1,3.1,6,4.6,8.9
						c0.2-0.1,0.3-0.1,0.5-0.2c-0.8-3-1.7-5.9-2.5-8.9c1.2,0.4,2.5,0.7,3.7,1.1c4.2,1.6,7.7,0.4,10.5-3c0.2-0.2,0.4-0.4,0.5-0.6
						c1.1-1.6,2.3-2,4.3-1.3c2,0.7,4.2,0.9,6.3,1.3c0-0.2,0.1-0.3,0.1-0.5c-2.5-1.1-5.6-0.8-7.6-2.9c3.3-3.8,6.5-7.5,9.9-11.4
						c0,0.5,0.1,0.8,0,1c-1.1,4.2-0.8,8.2,0.8,12.2c0.1,0.2,0.1,0.4,0.1,0.6c0.6,1.9-0.1,3.2-1.5,4.5c-1.1,1.1-2.3,2.4-2.8,3.9
						c-5.2,14.3-13.1,27.1-22.5,39.1c-2.1,2.7-3.7,5.4-4.6,8.8c-6.5,24.5-13.1,49-19.7,73.5C562.9,307.3,539.2,307.3,515.4,307.3z
						 M611.2,133c-1.7,0-2.8,0.6-3.8,2.2c-5.6,9.2-11.3,18.2-17,27.3c-1.8,2.8-1.6,5.5,0.7,7.9c2.8,2.9,6.3,4.3,10.3,4.5
						c2.3,0.1,3.9-1.3,5.2-3c2.6-3.4,5.2-6.8,7.5-10.5c3.2-5.1,6.1-10.3,9.2-15.4c1-1.6,0.8-3.3-0.1-4.8
						C620.4,136.5,616.5,133.7,611.2,133z M584.1,164.8c1.8,0,3.4-0.4,4.4-2c5.9-9.5,11.7-19,17.6-28.5c0.9-1.5,0.8-2.7,0.1-4.2
						c-2.2-4.5-5.2-8.1-10.5-8.3c-2.2-0.1-4.5,0.7-6.8,1.2c-0.4,0.1-0.8,0.7-0.8,1c-0.1,4.6-2,8.7-4.2,12.6c-3,5.3-6,10.7-9,16
						c-1.8,3.2-1.6,5.8,0.8,8.4C578,163.4,580.8,164.8,584.1,164.8z M616.6,181.4c1.5-0.8,3.4-1.3,4.5-2.4c5-5.2,9.8-10.7,14.7-16.1
						c1.1-1.2,1.3-2.3,0.7-3.8c-0.5-1.2-0.9-2.5-1.4-3.7c-1.8-4.6-5.5-6.7-10.1-7.5c-0.4-0.1-1.1,0.4-1.4,0.8
						c-5.3,7.9-10.5,15.8-15.7,23.6c-0.9,1.4-0.8,2.6,0,3.8C609.3,178.8,613.3,181,616.6,181.4z M560.8,120.5
						c3.6-0.5,7.6,2.2,10.9-2.3c0.1,1.4,0.2,2.1,0.2,2.9c2.3,0.1,4.5,0.5,6.8,0.4c3.5-0.2,5.9,1.4,7.7,4.3c1.5-4.9-0.3-9.6-4.7-12
						c-0.6-0.3-1.2-0.6-1.9-0.9c-3.6-1.7-7-1.9-10.4,0.8c-2.8,2.3-5.9,4.3-8.8,6.4C560.6,120.1,560.7,120.3,560.8,120.5z
						 M579.3,141.5c-5.3,4.6-11.1,7.4-18.3,5.4c-0.1,0.2-0.2,0.4-0.3,0.5c0.8,1.1,1.5,2.5,2.6,3.3c2.2,1.4,4.6,2.6,7,3.6
						c0.7,0.3,2.1-0.1,2.5-0.7c2.4-3.8,4.7-7.7,7-11.5C579.6,141.8,579.4,141.7,579.3,141.5z"/>
				</defs>
				<use xlink:href="#SVGID_5_"  style="overflow:visible;fill-rule:evenodd;clip-rule:evenodd;"/>
				<clipPath id="SVGID_6_">
					<use xlink:href="#SVGID_5_"  style="overflow:visible;"/>
				</clipPath>
				<path class="st1" d="M323.8,337.7c0-113,0-225.9-0.1-338.9c0-2.6,0.6-3.1,3.1-3.1c111.9,0.1,223.9,0.1,335.8,0
					c2.6,0,3.1,0.6,3.1,3.1c-0.1,111.9-0.1,223.9,0,335.8c0,2.6-0.6,3.1-3.1,3.1C549.7,337.7,436.8,337.7,323.8,337.7z"/>
				
					<use xlink:href="#SVGID_5_"  style="overflow:visible;fill-rule:evenodd;clip-rule:evenodd;fill:none;stroke:#000000;stroke-width:3;stroke-miterlimit:10;"/>
			</g>
			<g>
				<defs>
					<path id="SVGID_7_" d="M515.4,307.3c9.8-26.2,19.6-52.3,29.4-78.5c2.4-6.4,4.6-12.8,6.7-19.3c0.8-2.4,1-4.9-0.2-7.4
						c-2.2-4.5-4.5-9-6.5-13.6c-3.2-7.3-6.4-14.7-9.4-22.1c-1-2.3-0.9-4.8-0.4-7.3c1.5-7.3,2.9-14.6,4.4-21.9
						c0.7-3.3,1.4-6.6,2.3-9.8c0.9-3,2.6-5.4,6.1-5.6c10.8-0.7,21.6,0,32.3,1c2.6,0.2,4.8,2.2,5,4.8c0.1,1.7,0,3.6-0.7,5.2
						c-3.6,8.9-15.7,15.3-25.1,13.3c-1.2-0.3-2.4-0.7-3.6-1.1c0.6,1,1.3,2,2.3,2.5c1.4,0.6,1.2,1.5,0.6,2.4
						c-0.6,0.9-1.4,1.8-2.2,2.6c0.1,0.1,0.2,0.2,0.2,0.3c1.3-0.9,2.6-1.8,4.1-2.8c0.1,2.9,2.1,4.6,3.9,6.5
						c5.1,5.5,10.2,11,15.3,16.6c2.5,2.8,3.9,6.2,4.4,9.9c0.9,6.6-1.5,12.3-5.5,17.4c-0.3,0.4-0.7,0.9-1,1.3
						c6.7-6.1,11.3-13.2,8.7-23.3c1,0.4,1.9,0.5,2.4,0.9c2.3,1.9,4.8,3.2,7.8,3.7c3.3,0.6,6.5-0.3,9.7-1.7c1.6,3.1,3.1,6,4.6,8.9
						c0.2-0.1,0.3-0.1,0.5-0.2c-0.8-3-1.7-5.9-2.5-8.9c1.2,0.4,2.5,0.7,3.7,1.1c4.2,1.6,7.7,0.4,10.5-3c0.2-0.2,0.4-0.4,0.5-0.6
						c1.1-1.6,2.3-2,4.3-1.3c2,0.7,4.2,0.9,6.3,1.3c0-0.2,0.1-0.3,0.1-0.5c-2.5-1.1-5.6-0.8-7.6-2.9c3.3-3.8,6.5-7.5,9.9-11.4
						c0,0.5,0.1,0.8,0,1c-1.1,4.2-0.8,8.2,0.8,12.2c0.1,0.2,0.1,0.4,0.1,0.6c0.6,1.9-0.1,3.2-1.5,4.5c-1.1,1.1-2.3,2.4-2.8,3.9
						c-5.2,14.3-13.1,27.1-22.5,39.1c-2.1,2.7-3.7,5.4-4.6,8.8c-6.5,24.5-13.1,49-19.7,73.5C562.9,307.3,539.2,307.3,515.4,307.3z
						 M611.2,133c-1.7,0-2.8,0.6-3.8,2.2c-5.6,9.2-11.3,18.2-17,27.3c-1.8,2.8-1.6,5.5,0.7,7.9c2.8,2.9,6.3,4.3,10.3,4.5
						c2.3,0.1,3.9-1.3,5.2-3c2.6-3.4,5.2-6.8,7.5-10.5c3.2-5.1,6.1-10.3,9.2-15.4c1-1.6,0.8-3.3-0.1-4.8
						C620.4,136.5,616.5,133.7,611.2,133z M584.1,164.8c1.8,0,3.4-0.4,4.4-2c5.9-9.5,11.7-19,17.6-28.5c0.9-1.5,0.8-2.7,0.1-4.2
						c-2.2-4.5-5.2-8.1-10.5-8.3c-2.2-0.1-4.5,0.7-6.8,1.2c-0.4,0.1-0.8,0.7-0.8,1c-0.1,4.6-2,8.7-4.2,12.6c-3,5.3-6,10.7-9,16
						c-1.8,3.2-1.6,5.8,0.8,8.4C578,163.4,580.8,164.8,584.1,164.8z M616.6,181.4c1.5-0.8,3.4-1.3,4.5-2.4c5-5.2,9.8-10.7,14.7-16.1
						c1.1-1.2,1.3-2.3,0.7-3.8c-0.5-1.2-0.9-2.5-1.4-3.7c-1.8-4.6-5.5-6.7-10.1-7.5c-0.4-0.1-1.1,0.4-1.4,0.8
						c-5.3,7.9-10.5,15.8-15.7,23.6c-0.9,1.4-0.8,2.6,0,3.8C609.3,178.8,613.3,181,616.6,181.4z M560.8,120.5
						c3.6-0.5,7.6,2.2,10.9-2.3c0.1,1.4,0.2,2.1,0.2,2.9c2.3,0.1,4.5,0.5,6.8,0.4c3.5-0.2,5.9,1.4,7.7,4.3c1.5-4.9-0.3-9.6-4.7-12
						c-0.6-0.3-1.2-0.6-1.9-0.9c-3.6-1.7-7-1.9-10.4,0.8c-2.8,2.3-5.9,4.3-8.8,6.4C560.6,120.1,560.7,120.3,560.8,120.5z
						 M579.3,141.5c-5.3,4.6-11.1,7.4-18.3,5.4c-0.1,0.2-0.2,0.4-0.3,0.5c0.8,1.1,1.5,2.5,2.6,3.3c2.2,1.4,4.6,2.6,7,3.6
						c0.7,0.3,2.1-0.1,2.5-0.7c2.4-3.8,4.7-7.7,7-11.5C579.6,141.8,579.4,141.7,579.3,141.5z"/>
				</defs>
				<clipPath id="SVGID_8_">
					<use xlink:href="#SVGID_7_"  style="overflow:visible;"/>
				</clipPath>
			</g>
		</g>
		<g>
			<g>
				<defs>
					<path id="SVGID_9_" d="M504.4,296.3c9.8-26.2,19.6-52.3,29.4-78.5c2.4-6.4,4.6-12.8,6.7-19.3c0.8-2.4,1-4.9-0.2-7.4
						c-2.2-4.5-4.5-9-6.5-13.6c-3.2-7.3-6.4-14.7-9.4-22.1c-1-2.3-0.9-4.8-0.4-7.3c1.5-7.3,2.9-14.6,4.4-21.9
						c0.7-3.3,1.4-6.6,2.3-9.8c0.9-3,2.6-5.4,6.1-5.6c10.8-0.7,21.6,0,32.3,1c2.6,0.2,4.8,2.2,5,4.8c0.1,1.7,0,3.6-0.7,5.2
						c-3.6,8.9-15.7,15.3-25.1,13.3c-1.2-0.3-2.4-0.7-3.6-1.1c0.6,1,1.3,2,2.3,2.5c1.4,0.6,1.2,1.5,0.6,2.4
						c-0.6,0.9-1.4,1.8-2.2,2.6c0.1,0.1,0.2,0.2,0.2,0.3c1.3-0.9,2.6-1.8,4.1-2.8c0.1,2.9,2.1,4.6,3.9,6.5
						c5.1,5.5,10.2,11,15.3,16.6c2.5,2.8,3.9,6.2,4.4,9.9c0.9,6.6-1.5,12.3-5.5,17.4c-0.3,0.4-0.7,0.9-1,1.3
						c6.7-6.1,11.3-13.2,8.7-23.3c1,0.4,1.9,0.5,2.4,0.9c2.3,1.9,4.8,3.2,7.8,3.7c3.3,0.6,6.5-0.3,9.7-1.7c1.6,3.1,3.1,6,4.6,8.9
						c0.2-0.1,0.3-0.1,0.5-0.2c-0.8-3-1.7-5.9-2.5-8.9c1.2,0.4,2.5,0.7,3.7,1.1c4.2,1.6,7.7,0.4,10.5-3c0.2-0.2,0.4-0.4,0.5-0.6
						c1.1-1.6,2.3-2,4.3-1.3c2,0.7,4.2,0.9,6.3,1.3c0-0.2,0.1-0.3,0.1-0.5c-2.5-1.1-5.6-0.8-7.6-2.9c3.3-3.8,6.5-7.5,9.9-11.4
						c0,0.5,0.1,0.8,0,1c-1.1,4.2-0.8,8.2,0.8,12.2c0.1,0.2,0.1,0.4,0.1,0.6c0.6,1.9-0.1,3.2-1.5,4.5c-1.1,1.1-2.3,2.4-2.8,3.9
						c-5.2,14.3-13.1,27.1-22.5,39.1c-2.1,2.7-3.7,5.4-4.6,8.8c-6.5,24.5-13.1,49-19.7,73.5C551.9,296.3,528.2,296.3,504.4,296.3z
						 M600.2,122c-1.7,0-2.8,0.6-3.8,2.2c-5.6,9.2-11.3,18.2-17,27.3c-1.8,2.8-1.6,5.5,0.7,7.9c2.8,2.9,6.3,4.3,10.3,4.5
						c2.3,0.1,3.9-1.3,5.2-3c2.6-3.4,5.2-6.8,7.5-10.5c3.2-5.1,6.1-10.3,9.2-15.4c1-1.6,0.8-3.3-0.1-4.8
						C609.4,125.5,605.5,122.7,600.2,122z M573.1,153.8c1.8,0,3.4-0.4,4.4-2c5.9-9.5,11.7-19,17.6-28.5c0.9-1.5,0.8-2.7,0.1-4.2
						c-2.2-4.5-5.2-8.1-10.5-8.3c-2.2-0.1-4.5,0.7-6.8,1.2c-0.4,0.1-0.8,0.7-0.8,1c-0.1,4.6-2,8.7-4.2,12.6c-3,5.3-6,10.7-9,16
						c-1.8,3.2-1.6,5.8,0.8,8.4C567,152.4,569.8,153.8,573.1,153.8z M605.6,170.4c1.5-0.8,3.4-1.3,4.5-2.4c5-5.2,9.8-10.7,14.7-16.1
						c1.1-1.2,1.3-2.3,0.7-3.8c-0.5-1.2-0.9-2.5-1.4-3.7c-1.8-4.6-5.5-6.7-10.1-7.5c-0.4-0.1-1.1,0.4-1.4,0.8
						c-5.3,7.9-10.5,15.8-15.7,23.6c-0.9,1.4-0.8,2.6,0,3.8C598.3,167.8,602.3,170,605.6,170.4z M549.8,109.5
						c3.6-0.5,7.6,2.2,10.9-2.3c0.1,1.4,0.2,2.1,0.2,2.9c2.3,0.1,4.5,0.5,6.8,0.4c3.5-0.2,5.9,1.4,7.7,4.3c1.5-4.9-0.3-9.6-4.7-12
						c-0.6-0.3-1.2-0.6-1.9-0.9c-3.6-1.7-7-1.9-10.4,0.8c-2.8,2.3-5.9,4.3-8.8,6.4C549.6,109.1,549.7,109.3,549.8,109.5z
						 M568.3,130.5c-5.3,4.6-11.1,7.4-18.3,5.4c-0.1,0.2-0.2,0.4-0.3,0.5c0.8,1.1,1.5,2.5,2.6,3.3c2.2,1.4,4.6,2.6,7,3.6
						c0.7,0.3,2.1-0.1,2.5-0.7c2.4-3.8,4.7-7.7,7-11.5C568.6,130.8,568.4,130.7,568.3,130.5z"/>
				</defs>
				<clipPath id="SVGID_10_">
					<use xlink:href="#SVGID_9_"  style="overflow:visible;"/>
				</clipPath>
			</g>
			<g>
				<defs>
					<path id="SVGID_11_" d="M504.4,296.3c9.8-26.2,19.6-52.3,29.4-78.5c2.4-6.4,4.6-12.8,6.7-19.3c0.8-2.4,1-4.9-0.2-7.4
						c-2.2-4.5-4.5-9-6.5-13.6c-3.2-7.3-6.4-14.7-9.4-22.1c-1-2.3-0.9-4.8-0.4-7.3c1.5-7.3,2.9-14.6,4.4-21.9
						c0.7-3.3,1.4-6.6,2.3-9.8c0.9-3,2.6-5.4,6.1-5.6c10.8-0.7,21.6,0,32.3,1c2.6,0.2,4.8,2.2,5,4.8c0.1,1.7,0,3.6-0.7,5.2
						c-3.6,8.9-15.7,15.3-25.1,13.3c-1.2-0.3-2.4-0.7-3.6-1.1c0.6,1,1.3,2,2.3,2.5c1.4,0.6,1.2,1.5,0.6,2.4
						c-0.6,0.9-1.4,1.8-2.2,2.6c0.1,0.1,0.2,0.2,0.2,0.3c1.3-0.9,2.6-1.8,4.1-2.8c0.1,2.9,2.1,4.6,3.9,6.5
						c5.1,5.5,10.2,11,15.3,16.6c2.5,2.8,3.9,6.2,4.4,9.9c0.9,6.6-1.5,12.3-5.5,17.4c-0.3,0.4-0.7,0.9-1,1.3
						c6.7-6.1,11.3-13.2,8.7-23.3c1,0.4,1.9,0.5,2.4,0.9c2.3,1.9,4.8,3.2,7.8,3.7c3.3,0.6,6.5-0.3,9.7-1.7c1.6,3.1,3.1,6,4.6,8.9
						c0.2-0.1,0.3-0.1,0.5-0.2c-0.8-3-1.7-5.9-2.5-8.9c1.2,0.4,2.5,0.7,3.7,1.1c4.2,1.6,7.7,0.4,10.5-3c0.2-0.2,0.4-0.4,0.5-0.6
						c1.1-1.6,2.3-2,4.3-1.3c2,0.7,4.2,0.9,6.3,1.3c0-0.2,0.1-0.3,0.1-0.5c-2.5-1.1-5.6-0.8-7.6-2.9c3.3-3.8,6.5-7.5,9.9-11.4
						c0,0.5,0.1,0.8,0,1c-1.1,4.2-0.8,8.2,0.8,12.2c0.1,0.2,0.1,0.4,0.1,0.6c0.6,1.9-0.1,3.2-1.5,4.5c-1.1,1.1-2.3,2.4-2.8,3.9
						c-5.2,14.3-13.1,27.1-22.5,39.1c-2.1,2.7-3.7,5.4-4.6,8.8c-6.5,24.5-13.1,49-19.7,73.5C551.9,296.3,528.2,296.3,504.4,296.3z
						 M600.2,122c-1.7,0-2.8,0.6-3.8,2.2c-5.6,9.2-11.3,18.2-17,27.3c-1.8,2.8-1.6,5.5,0.7,7.9c2.8,2.9,6.3,4.3,10.3,4.5
						c2.3,0.1,3.9-1.3,5.2-3c2.6-3.4,5.2-6.8,7.5-10.5c3.2-5.1,6.1-10.3,9.2-15.4c1-1.6,0.8-3.3-0.1-4.8
						C609.4,125.5,605.5,122.7,600.2,122z M573.1,153.8c1.8,0,3.4-0.4,4.4-2c5.9-9.5,11.7-19,17.6-28.5c0.9-1.5,0.8-2.7,0.1-4.2
						c-2.2-4.5-5.2-8.1-10.5-8.3c-2.2-0.1-4.5,0.7-6.8,1.2c-0.4,0.1-0.8,0.7-0.8,1c-0.1,4.6-2,8.7-4.2,12.6c-3,5.3-6,10.7-9,16
						c-1.8,3.2-1.6,5.8,0.8,8.4C567,152.4,569.8,153.8,573.1,153.8z M605.6,170.4c1.5-0.8,3.4-1.3,4.5-2.4c5-5.2,9.8-10.7,14.7-16.1
						c1.1-1.2,1.3-2.3,0.7-3.8c-0.5-1.2-0.9-2.5-1.4-3.7c-1.8-4.6-5.5-6.7-10.1-7.5c-0.4-0.1-1.1,0.4-1.4,0.8
						c-5.3,7.9-10.5,15.8-15.7,23.6c-0.9,1.4-0.8,2.6,0,3.8C598.3,167.8,602.3,170,605.6,170.4z M549.8,109.5
						c3.6-0.5,7.6,2.2,10.9-2.3c0.1,1.4,0.2,2.1,0.2,2.9c2.3,0.1,4.5,0.5,6.8,0.4c3.5-0.2,5.9,1.4,7.7,4.3c1.5-4.9-0.3-9.6-4.7-12
						c-0.6-0.3-1.2-0.6-1.9-0.9c-3.6-1.7-7-1.9-10.4,0.8c-2.8,2.3-5.9,4.3-8.8,6.4C549.6,109.1,549.7,109.3,549.8,109.5z
						 M568.3,130.5c-5.3,4.6-11.1,7.4-18.3,5.4c-0.1,0.2-0.2,0.4-0.3,0.5c0.8,1.1,1.5,2.5,2.6,3.3c2.2,1.4,4.6,2.6,7,3.6
						c0.7,0.3,2.1-0.1,2.5-0.7c2.4-3.8,4.7-7.7,7-11.5C568.6,130.8,568.4,130.7,568.3,130.5z"/>
				</defs>
				<use xlink:href="#SVGID_11_"  style="overflow:visible;fill-rule:evenodd;clip-rule:evenodd;fill:#EFCB69;"/>
				<clipPath id="SVGID_12_">
					<use xlink:href="#SVGID_11_"  style="overflow:visible;"/>
				</clipPath>
				<path class="st2" d="M312.8,326.7c0-113,0-225.9-0.1-338.9c0-2.6,0.6-3.1,3.1-3.1c111.9,0.1,223.9,0.1,335.8,0
					c2.6,0,3.1,0.6,3.1,3.1c-0.1,111.9-0.1,223.9,0,335.8c0,2.6-0.6,3.1-3.1,3.1C538.7,326.7,425.8,326.7,312.8,326.7z"/>
				
					<use xlink:href="#SVGID_11_"  style="overflow:visible;fill-rule:evenodd;clip-rule:evenodd;fill:none;stroke:#010101;stroke-width:3;stroke-miterlimit:10;"/>
			</g>
			<g>
				<defs>
					<path id="SVGID_13_" d="M504.4,296.3c9.8-26.2,19.6-52.3,29.4-78.5c2.4-6.4,4.6-12.8,6.7-19.3c0.8-2.4,1-4.9-0.2-7.4
						c-2.2-4.5-4.5-9-6.5-13.6c-3.2-7.3-6.4-14.7-9.4-22.1c-1-2.3-0.9-4.8-0.4-7.3c1.5-7.3,2.9-14.6,4.4-21.9
						c0.7-3.3,1.4-6.6,2.3-9.8c0.9-3,2.6-5.4,6.1-5.6c10.8-0.7,21.6,0,32.3,1c2.6,0.2,4.8,2.2,5,4.8c0.1,1.7,0,3.6-0.7,5.2
						c-3.6,8.9-15.7,15.3-25.1,13.3c-1.2-0.3-2.4-0.7-3.6-1.1c0.6,1,1.3,2,2.3,2.5c1.4,0.6,1.2,1.5,0.6,2.4
						c-0.6,0.9-1.4,1.8-2.2,2.6c0.1,0.1,0.2,0.2,0.2,0.3c1.3-0.9,2.6-1.8,4.1-2.8c0.1,2.9,2.1,4.6,3.9,6.5
						c5.1,5.5,10.2,11,15.3,16.6c2.5,2.8,3.9,6.2,4.4,9.9c0.9,6.6-1.5,12.3-5.5,17.4c-0.3,0.4-0.7,0.9-1,1.3
						c6.7-6.1,11.3-13.2,8.7-23.3c1,0.4,1.9,0.5,2.4,0.9c2.3,1.9,4.8,3.2,7.8,3.7c3.3,0.6,6.5-0.3,9.7-1.7c1.6,3.1,3.1,6,4.6,8.9
						c0.2-0.1,0.3-0.1,0.5-0.2c-0.8-3-1.7-5.9-2.5-8.9c1.2,0.4,2.5,0.7,3.7,1.1c4.2,1.6,7.7,0.4,10.5-3c0.2-0.2,0.4-0.4,0.5-0.6
						c1.1-1.6,2.3-2,4.3-1.3c2,0.7,4.2,0.9,6.3,1.3c0-0.2,0.1-0.3,0.1-0.5c-2.5-1.1-5.6-0.8-7.6-2.9c3.3-3.8,6.5-7.5,9.9-11.4
						c0,0.5,0.1,0.8,0,1c-1.1,4.2-0.8,8.2,0.8,12.2c0.1,0.2,0.1,0.4,0.1,0.6c0.6,1.9-0.1,3.2-1.5,4.5c-1.1,1.1-2.3,2.4-2.8,3.9
						c-5.2,14.3-13.1,27.1-22.5,39.1c-2.1,2.7-3.7,5.4-4.6,8.8c-6.5,24.5-13.1,49-19.7,73.5C551.9,296.3,528.2,296.3,504.4,296.3z
						 M600.2,122c-1.7,0-2.8,0.6-3.8,2.2c-5.6,9.2-11.3,18.2-17,27.3c-1.8,2.8-1.6,5.5,0.7,7.9c2.8,2.9,6.3,4.3,10.3,4.5
						c2.3,0.1,3.9-1.3,5.2-3c2.6-3.4,5.2-6.8,7.5-10.5c3.2-5.1,6.1-10.3,9.2-15.4c1-1.6,0.8-3.3-0.1-4.8
						C609.4,125.5,605.5,122.7,600.2,122z M573.1,153.8c1.8,0,3.4-0.4,4.4-2c5.9-9.5,11.7-19,17.6-28.5c0.9-1.5,0.8-2.7,0.1-4.2
						c-2.2-4.5-5.2-8.1-10.5-8.3c-2.2-0.1-4.5,0.7-6.8,1.2c-0.4,0.1-0.8,0.7-0.8,1c-0.1,4.6-2,8.7-4.2,12.6c-3,5.3-6,10.7-9,16
						c-1.8,3.2-1.6,5.8,0.8,8.4C567,152.4,569.8,153.8,573.1,153.8z M605.6,170.4c1.5-0.8,3.4-1.3,4.5-2.4c5-5.2,9.8-10.7,14.7-16.1
						c1.1-1.2,1.3-2.3,0.7-3.8c-0.5-1.2-0.9-2.5-1.4-3.7c-1.8-4.6-5.5-6.7-10.1-7.5c-0.4-0.1-1.1,0.4-1.4,0.8
						c-5.3,7.9-10.5,15.8-15.7,23.6c-0.9,1.4-0.8,2.6,0,3.8C598.3,167.8,602.3,170,605.6,170.4z M549.8,109.5
						c3.6-0.5,7.6,2.2,10.9-2.3c0.1,1.4,0.2,2.1,0.2,2.9c2.3,0.1,4.5,0.5,6.8,0.4c3.5-0.2,5.9,1.4,7.7,4.3c1.5-4.9-0.3-9.6-4.7-12
						c-0.6-0.3-1.2-0.6-1.9-0.9c-3.6-1.7-7-1.9-10.4,0.8c-2.8,2.3-5.9,4.3-8.8,6.4C549.6,109.1,549.7,109.3,549.8,109.5z
						 M568.3,130.5c-5.3,4.6-11.1,7.4-18.3,5.4c-0.1,0.2-0.2,0.4-0.3,0.5c0.8,1.1,1.5,2.5,2.6,3.3c2.2,1.4,4.6,2.6,7,3.6
						c0.7,0.3,2.1-0.1,2.5-0.7c2.4-3.8,4.7-7.7,7-11.5C568.6,130.8,568.4,130.7,568.3,130.5z"/>
				</defs>
				<clipPath id="SVGID_14_">
					<use xlink:href="#SVGID_13_"  style="overflow:visible;"/>
				</clipPath>
			</g>
		</g>
	</g>
</g>
<g id="Layer_1">
	<g>
		<rect x="4" y="145.9" class="st3" width="173" height="91.8"/>
		<text transform="matrix(1 0 0 1 27.7407 161.2471)"><tspan x="0" y="0" class="st4 st5 st6 st7">DEMOCRACY</tspan><tspan x="-20.6" y="34.8" class="st4 st5 st6 st7">SUSTAINABILITY</tspan><tspan x="24.5" y="69.6" class="st4 st5 st6 st7">JUSTICE</tspan></text>
	</g>
	<path class="st8" d="M245.6,36.9L24.4,56.3c-5.6,0.5-9.7,5.4-9.2,11l0,0.1c0.5,5.6,5.4,9.7,11,9.2l221.3-19.4
		c5.6-0.5,9.7-5.4,9.2-11l0-0.1C256.1,40.6,251.2,36.4,245.6,36.9z"/>
	<path class="st8" d="M278.3,90.7l-249,21.8c-5.6,0.5-9.7,5.4-9.2,11l0,0.1c0.5,5.6,5.4,9.7,11,9.2l249-21.8c5.6-0.5,9.7-5.4,9.2-11
		l0-0.1C288.8,94.3,283.9,90.2,278.3,90.7z"/>
	<g>
		<g>
			
				<rect x="23.7" y="17" transform="matrix(0.9962 -8.715608e-02 8.715608e-02 0.9962 -7.1393 17.4623)" class="st3" width="345.4" height="147.1"/>
			<text transform="matrix(0.9962 -8.716000e-02 8.716000e-02 0.9962 22.002 78.9419)"><tspan x="0" y="0" class="st9 st10 st11 st12">OUR CITY, </tspan><tspan x="0" y="53.7" class="st9 st10 st11 st12">OUR PLAN!</tspan></text>
		</g>
		<g>
			
				<rect x="15.7" y="9" transform="matrix(0.9962 -8.715608e-02 8.715608e-02 0.9962 -6.4724 16.7346)" class="st3" width="345.4" height="147.1"/>
			<text transform="matrix(0.9962 -8.716000e-02 8.716000e-02 0.9962 14.002 70.9419)"><tspan x="0" y="0" class="st13 st10 st11 st12">OUR CITY, </tspan><tspan x="0" y="53.7" class="st13 st10 st11 st12">OUR PLAN!</tspan></text>
		</g>
	</g>
	<path class="st14" d="M547.6,6.9L320.1,26.8c-5.9,0.5-10.3,5.7-9.8,11.6l7.5,86c0.5,5.9,5.7,10.3,11.6,9.8L557,114.4
		c5.9-0.5,10.3-5.7,9.8-11.6l-7.5-86C558.7,10.8,553.5,6.4,547.6,6.9z"/>
	<path class="st8" d="M557.4,29.5L342,48.3c-5.6,0.5-9.7,5.4-9.2,11l0,0.1c0.5,5.6,5.4,9.7,11,9.2l215.4-18.8
		c5.6-0.5,9.7-5.4,9.2-11l0-0.1C567.9,33.1,563,29,557.4,29.5z"/>
	<path class="st8" d="M523.3,92.1l-168.5,14.7c-5.6,0.5-9.7,5.4-9.2,11l0,0.1c0.5,5.6,5.4,9.7,11,9.2l168.5-14.7
		c5.6-0.5,9.7-5.4,9.2-11l0-0.1C533.8,95.8,528.9,91.6,523.3,92.1z"/>
	<g>
		<g>
			
				<rect x="353.3" y="12" transform="matrix(0.9962 -8.715608e-02 8.715608e-02 0.9962 -5.4517 46.1713)" class="st3" width="345.4" height="147.1"/>
			<text transform="matrix(0.9962 -8.716000e-02 8.716000e-02 0.9962 351.6145 73.9691)"><tspan x="0" y="0" class="st9 st10 st11 st12">JOIN the </tspan><tspan x="0" y="53.7" class="st9 st10 st11 st12">DPCAP!</tspan></text>
		</g>
		<g>
			
				<rect x="345.3" y="4" transform="matrix(0.9962 -8.715608e-02 8.715608e-02 0.9962 -4.7849 45.4436)" class="st3" width="345.4" height="147.1"/>
			<text transform="matrix(0.9962 -8.716000e-02 8.716000e-02 0.9962 343.6145 65.9691)"><tspan x="0" y="0" class="st13 st10 st11 st12">JOIN the </tspan><tspan x="0" y="53.7" class="st13 st10 st11 st12">DPCAP!</tspan></text>
		</g>
	</g>
	<g>
		<rect x="183.5" y="134.5" class="st3" width="339.5" height="122.1"/>
		<text transform="matrix(1 0 0 1 183.4653 142.5713)"><tspan x="0" y="0" class="st15 st16 st17">OUR DEMANDS:</tspan><tspan x="0" y="16.9" class="st15 st16 st17">1. A free public transportation system that reliably and effectively </tspan><tspan x="0" y="33.8" class="st15 st16 st17">meets our travel needs</tspan><tspan x="0" y="50.7" class="st15 st16 st17">2. A publicly owned utility that provides 100% renewable energy</tspan><tspan x="0" y="67.6" class="st15 st16 st17">3. Democratic control over what our communities look like</tspan><tspan x="0" y="84.5" class="st15 st16 st17">4. Community oversight over the implementation of climate </tspan><tspan x="0" y="101.4" class="st15 st16 st17">actions</tspan></text>
	</g>
</g>
</svg>
