<?xml version="1.0" encoding="UTF-8" standalone="no"?>
<svg
   xmlns:dc="http://purl.org/dc/elements/1.1/"
   xmlns:cc="http://creativecommons.org/ns#"
   xmlns:rdf="http://www.w3.org/1999/02/22-rdf-syntax-ns#"
   xmlns:svg="http://www.w3.org/2000/svg"
   xmlns="http://www.w3.org/2000/svg"
   viewBox="0 0 1706.6667 686.66669"
   height="686.66669"
   width="1706.6667"
   xml:space="preserve"
   id="svg2"
   version="1.1"><metadata
     id="metadata8"><rdf:RDF><cc:Work
         rdf:about=""><dc:format>image/svg+xml</dc:format><dc:type
           rdf:resource="http://purl.org/dc/dcmitype/StillImage" /></cc:Work></rdf:RDF></metadata><defs
     id="defs6"><clipPath
       id="clipPath18"
       clipPathUnits="userSpaceOnUse"><path
         id="path16"
         d="M 59.987,515 C 26.857,515 0,488.143 0,455.013 v 0 V 59.986 C 0,26.856 26.857,0 59.987,0 V 0 H 1220.014 C 1253.144,0 1280,26.856 1280,59.986 v 0 395.027 c 0,33.13 -26.856,59.987 -59.986,59.987 v 0 z" /></clipPath><clipPath
       id="clipPath26"
       clipPathUnits="userSpaceOnUse"><path
         id="path24"
         d="M 0,515 H 1280 V 0 H 0 Z" /></clipPath><clipPath
       id="clipPath42"
       clipPathUnits="userSpaceOnUse"><path
         id="path40"
         d="M 0,515 H 1280 V 0 H 0 Z" /></clipPath><clipPath
       id="clipPath54"
       clipPathUnits="userSpaceOnUse"><path
         id="path52"
         d="M 0,515 H 1280 V 0 H 0 Z" /></clipPath><clipPath
       id="clipPath74"
       clipPathUnits="userSpaceOnUse"><path
         id="path72"
         d="m 270.986,472.268 c -6.481,-5.922 -12.824,-11.954 -18.509,-18.653 v 0 c -30.815,-36.302 -51.198,-77.05 -51.77,-125.659 v 0 c -0.729,-62.104 30.163,-109.353 72.274,-151.139 v 0 c 2.677,-2.659 4.161,-1.241 5.928,0.677 v 0 c 6.862,7.453 13.957,14.706 20.532,22.404 v 0 c 30.557,35.78 50.414,76.03 51.385,128.132 v 0 c -1.82,55.913 -27.747,104.247 -70.832,144.468 v 0 c -1.609,1.502 -2.991,2.182 -4.334,2.182 v 0 c -1.52,0 -2.988,-0.872 -4.674,-2.412" /></clipPath><clipPath
       id="clipPath82"
       clipPathUnits="userSpaceOnUse"><path
         id="path80"
         d="M -133.297,677.749 H 689.482 V -145.03 h -822.779 z" /></clipPath><clipPath
       id="clipPath106"
       clipPathUnits="userSpaceOnUse"><path
         id="path104"
         d="M 0,515 H 1280 V 0 H 0 Z" /></clipPath><clipPath
       id="clipPath162"
       clipPathUnits="userSpaceOnUse"><path
         id="path160"
         d="M 0,515 H 1280 V 0 H 0 Z" /></clipPath><clipPath
       id="clipPath242"
       clipPathUnits="userSpaceOnUse"><path
         id="path240"
         d="M 0,515 H 1280 V 0 H 0 Z" /></clipPath><clipPath
       id="clipPath326"
       clipPathUnits="userSpaceOnUse"><path
         id="path324"
         d="M 0,515 H 1280 V 0 H 0 Z" /></clipPath><clipPath
       id="clipPath394"
       clipPathUnits="userSpaceOnUse"><path
         id="path392"
         d="M 0,515 H 1280 V 0 H 0 Z" /></clipPath></defs><g
     transform="matrix(1.3333333,0,0,-1.3333333,0,686.66667)"
     id="g10"><g
       id="g12"><g
         clip-path="url(#clipPath18)"
         id="g14"><g
           id="g20"><g
             id="g22" /><g
             id="g34"><g
               id="g32"
               clip-path="url(#clipPath26)"><g
                 id="g30"
                 transform="translate(1220.0137)"><path
                   id="path28"
                   style="fill:#6ab57b;fill-opacity:1;fill-rule:nonzero;stroke:none"
                   d="m 0,0 h -1160.027 c -33.13,0 -59.987,26.856 -59.987,59.986 v 395.027 c 0,33.13 26.857,59.987 59.987,59.987 H 0 c 33.13,0 59.986,-26.857 59.986,-59.987 V 59.986 C 59.986,26.856 33.13,0 0,0" /></g></g></g></g></g></g><g
       id="g36"><g
         clip-path="url(#clipPath42)"
         id="g38"><g
           transform="translate(1140.1084,254.0713)"
           id="g44"><path
             id="path46"
             style="fill:#f0cb6a;fill-opacity:1;fill-rule:evenodd;stroke:none"
             d="m 0,0 c -10.629,-9.18 -22.301,-14.813 -36.798,-10.796 -0.186,-0.364 -0.374,-0.727 -0.56,-1.09 1.698,-2.228 2.977,-5.099 5.192,-6.551 4.37,-2.868 9.159,-5.189 14.002,-7.198 1.309,-0.545 4.286,0.286 5.028,1.434 4.906,7.596 9.408,15.45 14.042,23.219 C 0.605,-0.653 0.303,-0.327 0,0 m -37.185,42.339 c 7.214,1.054 15.376,-4.388 21.972,4.693 0.219,-2.725 0.345,-4.25 0.474,-5.895 4.534,-0.27 9.096,-0.936 13.62,-0.726 7.049,0.328 11.819,-2.893 15.425,-8.567 3.006,9.949 -0.696,19.313 -9.522,24.177 -1.221,0.673 -2.504,1.226 -3.76,1.831 -7.282,3.504 -14.099,3.884 -20.863,-1.695 -5.621,-4.638 -11.843,-8.553 -17.799,-12.785 0.148,-0.346 0.3,-0.69 0.453,-1.033 M 75.021,-80.342 c 3.051,1.586 6.792,2.514 9.036,4.869 10.061,10.556 19.671,21.54 29.5,32.322 2.12,2.324 2.64,4.69 1.345,7.612 -1.074,2.426 -1.78,5.015 -2.754,7.488 -3.652,9.257 -11.092,13.479 -20.397,15.016 -0.861,0.142 -2.307,-0.719 -2.852,-1.536 -10.592,-15.81 -21.032,-31.715 -31.645,-47.509 -1.857,-2.76 -1.696,-5.144 -0.082,-7.734 3.204,-5.15 11.175,-9.559 17.849,-10.528 M 9.756,-46.916 c 3.651,-0.096 6.914,0.832 8.92,4.067 11.832,19.067 23.565,38.192 35.416,57.244 1.819,2.923 1.69,5.485 0.189,8.493 C 49.808,31.859 43.862,39.177 33.075,39.676 28.562,39.883 23.947,38.252 19.421,37.261 18.713,37.106 17.735,35.912 17.723,35.183 17.533,25.841 13.705,17.747 9.279,9.844 3.268,-0.889 -2.735,-11.624 -8.788,-22.332 c -3.642,-6.446 -3.289,-11.592 1.706,-16.934 4.51,-4.823 10.137,-7.506 16.838,-7.65 M 64.281,17.021 C 60.821,16.974 58.602,15.867 56.606,12.596 45.397,-5.812 33.797,-23.982 22.317,-42.228 c -3.586,-5.703 -3.264,-10.968 1.416,-15.892 5.601,-5.898 12.737,-8.638 20.756,-9.015 4.685,-0.221 7.838,2.677 10.39,6.121 5.135,6.926 10.432,13.768 15.034,21.038 6.435,10.165 12.299,20.692 18.412,31.058 1.944,3.295 1.698,6.582 -0.179,9.746 C 82.725,9.971 74.921,15.63 64.281,17.021 m -192.779,-350.592 c 19.728,52.614 39.508,105.206 59.146,157.851 4.782,12.823 9.302,25.747 13.568,38.751 1.58,4.813 1.982,9.91 -0.471,14.862 -4.505,9.092 -9.047,18.18 -13.152,27.455 -6.517,14.713 -12.775,29.542 -18.962,44.398 -1.946,4.675 -1.838,9.608 -0.806,14.607 3.033,14.665 5.816,29.378 8.833,44.047 1.354,6.585 2.738,13.192 4.658,19.626 1.793,6.007 5.261,10.885 12.29,11.36 21.744,1.464 43.408,-0.027 65.048,-1.939 5.308,-0.468 9.686,-4.389 10.153,-9.674 0.297,-3.408 -0.077,-7.209 -1.328,-10.364 -7.153,-18.002 -31.55,-30.763 -50.462,-26.664 -2.433,0.527 -4.785,1.43 -7.175,2.16 1.197,-2.098 2.62,-4.035 4.525,-4.935 2.76,-1.304 2.452,-3.004 1.248,-4.835 -1.253,-1.905 -2.914,-3.535 -4.396,-5.289 0.163,-0.227 0.323,-0.454 0.487,-0.681 2.599,1.787 5.2,3.572 8.28,5.691 0.109,-5.736 4.19,-9.224 7.768,-13.071 10.289,-11.067 20.613,-22.111 30.787,-33.29 5.1,-5.605 7.788,-12.443 8.814,-19.896 1.844,-13.362 -2.966,-24.677 -10.992,-34.957 -0.676,-0.864 -1.335,-1.739 -1.999,-2.611 13.555,12.346 22.731,26.478 17.563,46.861 2.1,-0.798 3.733,-1 4.778,-1.89 4.561,-3.882 9.721,-6.428 15.598,-7.425 6.727,-1.142 13.049,0.628 19.46,3.471 3.191,-6.171 6.251,-12.084 9.31,-17.999 0.311,0.101 0.621,0.201 0.935,0.303 -1.701,5.942 -3.402,11.883 -5.111,17.855 2.446,-0.733 5.029,-1.359 7.504,-2.271 8.531,-3.157 15.4,-0.723 21.061,6.038 0.326,0.387 0.719,0.73 0.995,1.152 2.133,3.297 4.643,4.115 8.6,2.651 4.002,-1.477 8.43,-1.805 12.677,-2.636 0.066,0.328 0.137,0.656 0.208,0.983 -5.045,2.118 -11.235,1.577 -15.363,5.904 6.722,7.731 13.165,15.143 19.94,22.936 0.049,-1.033 0.186,-1.534 0.071,-1.971 -2.156,-8.37 -1.594,-16.551 1.616,-24.563 0.14,-0.348 0.118,-0.757 0.234,-1.118 1.196,-3.75 -0.128,-6.426 -2.975,-9.066 -2.309,-2.148 -4.552,-4.876 -5.611,-7.789 -10.495,-28.838 -26.39,-54.561 -45.2,-78.557 -4.247,-5.413 -7.414,-10.942 -9.188,-17.635 -13.065,-49.31 -26.346,-98.563 -39.558,-147.836 z" /></g></g></g><g
       id="g48"><g
         clip-path="url(#clipPath54)"
         id="g50"><g
           transform="translate(250.8564,79.3301)"
           id="g56"><path
             id="path58"
             style="fill:#6ab57a;fill-opacity:1;fill-rule:nonzero;stroke:none"
             d="m 0,0 c 1.926,-22.084 1.921,-22.323 -20.442,-21.893 -41.581,0.801 -80.948,9.862 -115.702,33.772 -41.59,28.613 -63.737,69.579 -73.409,118.179 -3.387,17.019 -3.78,34.2 -3.879,51.489 -0.046,8.174 3.351,10.165 10.519,10.169 22.008,0.015 43.729,-2.221 65.011,-7.874 C -93.486,172.044 -56.553,149.297 -31.149,110 -11.935,80.278 -3.497,47.157 -0.703,12.302 -0.375,8.209 -0.23,4.102 0,0" /></g><g
           transform="translate(304.9473,79.4922)"
           id="g60"><path
             id="path62"
             style="fill:#6ab57a;fill-opacity:1;fill-rule:nonzero;stroke:none"
             d="m 0,0 c 1.957,39.33 9.738,76.011 30.84,108.712 30.602,47.425 76.252,70.58 130.36,79.63 14.328,2.396 28.793,3.377 43.349,3.166 6.501,-0.094 9.77,-2.141 9.945,-9.408 C 216.644,92.607 172.15,-1.718 56.104,-19.035 39.5,-21.514 22.9,-22.264 6.179,-22.24 c -4.521,0.006 -6.501,1.299 -6.25,6.06 C 0.231,-10.444 0,-4.682 0,0" /></g><g
           transform="translate(350.8267,328.0298)"
           id="g64"><path
             id="path66"
             style="fill:#6ab57a;fill-opacity:1;fill-rule:nonzero;stroke:none"
             d="m 0,0 c -0.972,-52.102 -20.829,-92.352 -51.386,-128.131 -6.574,-7.699 -13.67,-14.952 -20.531,-22.405 -1.768,-1.919 -3.251,-3.336 -5.929,-0.677 -42.111,41.786 -73.003,89.035 -72.274,151.139 0.572,48.61 20.955,89.357 51.77,125.659 5.686,6.699 12.029,12.731 18.51,18.653 3.174,2.902 5.579,3.43 9.007,0.231 C -27.747,104.248 -1.821,55.913 0,0" /></g></g></g><g
       id="g68"><g
         clip-path="url(#clipPath74)"
         id="g70"><g
           id="g76"><g
             id="g78" /><g
             id="g90"><g
               style="opacity:0.5"
               id="g88"
               clip-path="url(#clipPath82)"><g
                 id="g86"
                 transform="translate(-133.1426,-144.875)"><path
                   id="path84"
                   style="fill:#6ab57a;fill-opacity:1;fill-rule:nonzero;stroke:none"
                   d="m 0,0 c 0,271.688 0.024,543.378 -0.155,815.067 -0.004,6.166 1.388,7.561 7.557,7.558 269.222,-0.18 538.443,-0.18 807.664,-10e-4 6.166,0.004 7.563,-1.387 7.558,-7.556 -0.179,-269.222 -0.179,-538.444 0,-807.666 0.004,-6.168 -1.389,-7.561 -7.557,-7.556 C 543.378,0.024 271.689,0 0,0" /></g></g></g></g></g></g><text
       id="text98"
       style="font-variant:normal;font-weight:800;font-stretch:normal;font-size:36px;font-family:'Open Sans ExtraBold';-inkscape-font-specification:OpenSans-ExtraBold;writing-mode:lr-tb;fill:#dad9d8;fill-opacity:1;fill-rule:nonzero;stroke:none"
       transform="matrix(1,0,0,-1,52.8311,192.2344)"><tspan
         id="tspan92"
         y="0"
         x="0 29.124001 51.588001 89.099998 120.492 146.556 173.62801 202.464 228.528">DEMOCRACY</tspan><tspan
         id="tspan94"
         y="69.984001"
         x="-41.543999 -18.072001 11.88 35.352001 59.327999 88.164001 103.392 136.116 164.952 191.916 207.144 230.79601 246.024 270">SUSTAINABILITY</tspan><tspan
         id="tspan96"
         y="139.968"
         x="49.284 64.655998 94.608002 118.08 142.056 157.284 183.34801">JUSTICE</tspan></text>
<g
       id="g100"><g
         clip-path="url(#clipPath106)"
         id="g102"><g
           transform="translate(500.7554,443.1299)"
           id="g108"><path
             id="path110"
             style="fill:#eb2229;fill-opacity:1;fill-rule:nonzero;stroke:none"
             d="m 0,0 -464.317,-40.623 c -5.913,-0.517 -10.288,-5.731 -9.771,-11.644 l 1.699,-19.414 c 0.517,-5.913 5.73,-10.288 11.644,-9.77 L 3.572,-40.829 c 5.914,0.517 10.288,5.731 9.771,11.644 L 11.645,-9.771 C 11.127,-3.857 5.914,0.517 0,0" /></g><g
           transform="translate(566.4165,335.0029)"
           id="g112"><path
             id="path114"
             style="fill:#eb2229;fill-opacity:1;fill-rule:nonzero;stroke:none"
             d="m 0,0 -520.036,-45.497 c -5.914,-0.518 -10.288,-5.731 -9.771,-11.645 l 1.699,-19.413 c 0.517,-5.914 5.731,-10.288 11.644,-9.771 L 3.572,-40.829 c 5.914,0.518 10.288,5.731 9.771,11.645 L 11.645,-9.771 C 11.127,-3.857 5.914,0.518 0,0" /></g><text
           id="text118"
           style="font-style:italic;font-variant:normal;font-weight:800;font-stretch:normal;font-size:109.99952698px;font-family:'Open Sans ExtraBold';-inkscape-font-specification:OpenSans-ExtraBoldItalic;writing-mode:lr-tb;fill:#231f20;fill-opacity:1;fill-rule:nonzero;stroke:none"
           transform="matrix(0.99619429,0.08716038,0.08716038,-0.99619429,35.26,363.8804)"><tspan
             id="tspan116"
             y="0"
             x="0 76.339668 148.71936 215.48907 239.35896 303.92868 338.24854 394.23831 455.94803 484.8779">OUR CITY, </tspan></text>
<g
           transform="translate(54.9375,439.3862)"
           id="g120"><path
             id="path122"
             style="fill:none;stroke:#231f20;stroke-width:3;stroke-linecap:square;stroke-linejoin:bevel;stroke-miterlimit:10;stroke-dasharray:none;stroke-opacity:1"
             d="m 0,0 c -5.969,-4.71 -10.443,-11.185 -13.424,-19.425 -2.981,-8.241 -4.058,-17.088 -3.231,-26.54 0.827,-9.453 4.086,-16.608 9.777,-21.466 5.691,-4.858 13.333,-6.866 22.93,-6.027 8.239,0.721 15.297,3.449 21.173,8.187 5.875,4.738 10.243,11.194 13.105,19.371 2.861,8.176 3.877,17.007 3.047,26.496 C 52.546,-9.916 49.322,-2.748 43.704,2.098 38.086,6.944 30.64,8.962 21.366,8.15 13.09,7.426 5.968,4.708 0,0 Z m 31.214,-38.164 c -1.219,-5.175 -3.152,-9.371 -5.801,-12.585 -2.648,-3.216 -5.666,-4.971 -9.055,-5.268 -7.134,-0.624 -11.079,3.38 -11.834,12.013 -0.48,5.493 -0.067,10.939 1.24,16.337 1.306,5.398 3.308,9.725 6.007,12.98 2.7,3.255 5.814,5.038 9.346,5.347 3.245,0.284 5.825,-0.65 7.738,-2.801 1.915,-2.151 3.049,-5.259 3.405,-9.326 0.521,-5.958 0.173,-11.523 -1.046,-16.697 z" /></g><g
           transform="translate(161.1074,453.7168)"
           id="g124"><path
             id="path126"
             style="fill:none;stroke:#231f20;stroke-width:3;stroke-linecap:square;stroke-linejoin:bevel;stroke-miterlimit:10;stroke-dasharray:none;stroke-opacity:1"
             d="m 0,0 -6.039,-48.676 c -0.584,-4.832 -1.729,-8.481 -3.436,-10.949 -1.707,-2.467 -4.238,-3.848 -7.59,-4.141 -4.317,-0.378 -6.672,1.698 -7.069,6.228 -0.146,1.677 -0.077,3.749 0.211,6.219 l 6.159,49.764 -20.921,-1.83 -6.327,-50.318 c -0.224,-2.357 -0.237,-4.676 -0.038,-6.959 0.381,-4.352 1.716,-8.207 4.005,-11.565 2.288,-3.358 5.346,-5.859 9.175,-7.5 3.828,-1.641 8.131,-2.253 12.911,-1.836 10.167,0.89 18,3.992 23.502,9.308 5.501,5.316 8.865,13.077 10.094,23.285 l 6.284,50.8 z" /></g><g
           transform="translate(213.5615,408.1636)"
           id="g128"><path
             id="path130"
             style="fill:none;stroke:#231f20;stroke-width:3;stroke-linecap:square;stroke-linejoin:bevel;stroke-miterlimit:10;stroke-dasharray:none;stroke-opacity:1"
             d="m 0,0 12.924,-27.552 22.794,1.994 -2.59,4.95 -14.401,26.56 c 4.802,2.612 8.29,6.098 10.461,10.459 2.17,4.359 3.012,9.321 2.526,14.886 -0.628,7.169 -3.488,12.328 -8.579,15.477 -5.093,3.149 -12.133,4.331 -21.122,3.544 l -20.707,-1.811 -9.689,-79.674 20.921,1.831 3.556,28.994 z m 0.256,34.043 2.836,0.249 c 2.354,0.206 4.197,-0.218 5.53,-1.269 1.33,-1.051 2.094,-2.683 2.287,-4.895 C 11.216,24.632 10.454,21.825 8.628,19.707 6.799,17.587 4.191,16.38 0.803,16.083 l -2.729,-0.238 z" /></g><g
           transform="translate(324.1816,450.165)"
           id="g132"><path
             id="path134"
             style="fill:none;stroke:#231f20;stroke-width:3;stroke-linecap:square;stroke-linejoin:bevel;stroke-miterlimit:10;stroke-dasharray:none;stroke-opacity:1"
             d="m 0,0 c 2.868,-0.738 6.046,-1.943 9.535,-3.614 l 6.491,17.012 c -8.114,3.998 -16.897,5.585 -26.349,4.758 -8.027,-0.702 -14.975,-3.341 -20.847,-7.917 -5.872,-4.575 -10.272,-10.98 -13.199,-19.216 -2.929,-8.236 -3.978,-17.098 -3.148,-26.586 0.849,-9.704 4.012,-16.983 9.487,-21.842 5.474,-4.859 12.849,-6.882 22.125,-6.071 8.454,0.74 16.16,3.032 23.121,6.875 l -1.512,17.283 c -3.95,-2.107 -7.408,-3.659 -10.376,-4.655 -2.968,-0.997 -5.933,-1.624 -8.893,-1.883 -3.746,-0.328 -6.72,0.598 -8.923,2.778 -2.205,2.179 -3.516,5.658 -3.934,10.439 -0.499,5.706 -0.08,11.081 1.259,16.122 1.338,5.041 3.437,9.09 6.297,12.143 2.86,3.054 6.217,4.75 10.069,5.087 C -5.801,0.975 -2.869,0.737 0,0 Z" /></g><g
           transform="translate(360.8828,392.3701)"
           id="g136"><path
             id="path138"
             style="fill:none;stroke:#231f20;stroke-width:3;stroke-linecap:square;stroke-linejoin:bevel;stroke-miterlimit:10;stroke-dasharray:none;stroke-opacity:1"
             d="M 0,0 9.688,79.673 -11.554,77.814 -21.242,-1.858 Z" /></g><g
           transform="translate(413.0664,458.3462)"
           id="g140"><path
             id="path142"
             style="fill:none;stroke:#231f20;stroke-width:3;stroke-linecap:square;stroke-linejoin:bevel;stroke-miterlimit:10;stroke-dasharray:none;stroke-opacity:1"
             d="m 0,0 17.016,1.489 2.286,17.615 -55.005,-4.812 -2.179,-17.606 16.961,1.483 -7.349,-62.053 20.921,1.831 z" /></g><g
           transform="translate(451.4121,479.1162)"
           id="g144"><path
             id="path146"
             style="fill:none;stroke:#231f20;stroke-width:3;stroke-linecap:square;stroke-linejoin:bevel;stroke-miterlimit:10;stroke-dasharray:none;stroke-opacity:1"
             d="m 0,0 -21.562,-1.887 16.871,-46.778 -3.767,-30.9 20.921,1.83 3.82,30.905 L 44.839,3.923 21.51,1.882 7.354,-28.579 Z" /></g><g
           transform="translate(492.7754,416.7422)"
           id="g148"><path
             id="path150"
             style="fill:none;stroke:#231f20;stroke-width:3;stroke-linecap:square;stroke-linejoin:bevel;stroke-miterlimit:10;stroke-dasharray:none;stroke-opacity:1"
             d="M 0,0 -1.656,-6.345 C -4.179,-16.127 -6.195,-23.259 -7.71,-27.74 l 15.41,1.348 c 4.317,8.177 8.135,17.12 11.455,26.828 L 18.62,1.629 Z" /></g></g></g><text
       id="text154"
       style="font-style:italic;font-variant:normal;font-weight:800;font-stretch:normal;font-size:109.99952698px;font-family:'Open Sans ExtraBold';-inkscape-font-specification:OpenSans-ExtraBoldItalic;writing-mode:lr-tb;fill:#231f20;fill-opacity:1;fill-rule:nonzero;stroke:none"
       transform="matrix(0.99619429,0.08716038,0.08716038,-0.99619429,44.6732,256.2919)"><tspan
         id="tspan152"
         y="0"
         x="0 76.339668 148.71936 215.48907 239.35896 303.15869 356.39847 426.02817 508.19781">OUR PLAN!</tspan></text>
<g
       id="g156"><g
         clip-path="url(#clipPath162)"
         id="g158"><g
           transform="translate(64.3506,331.7974)"
           id="g164"><path
             id="path166"
             style="fill:none;stroke:#231f20;stroke-width:3;stroke-linecap:square;stroke-linejoin:bevel;stroke-miterlimit:10;stroke-dasharray:none;stroke-opacity:1"
             d="m 0,0 c -5.968,-4.71 -10.443,-11.185 -13.424,-19.425 -2.981,-8.241 -4.057,-17.088 -3.231,-26.54 0.827,-9.453 4.086,-16.608 9.777,-21.465 5.691,-4.859 13.333,-6.867 22.93,-6.028 8.239,0.721 15.297,3.45 21.173,8.188 5.876,4.737 10.244,11.194 13.105,19.37 2.861,8.176 3.877,17.008 3.047,26.497 -0.83,9.487 -4.055,16.655 -9.673,21.502 C 38.086,6.944 30.64,8.962 21.366,8.151 13.09,7.427 5.968,4.709 0,0 Z m 31.214,-38.164 c -1.219,-5.175 -3.152,-9.37 -5.8,-12.585 -2.649,-3.216 -5.667,-4.971 -9.056,-5.267 -7.134,-0.624 -11.079,3.379 -11.834,12.013 -0.48,5.492 -0.067,10.939 1.24,16.336 1.307,5.398 3.309,9.725 6.008,12.981 2.699,3.255 5.813,5.037 9.345,5.346 3.245,0.284 5.825,-0.65 7.739,-2.801 1.914,-2.151 3.048,-5.259 3.404,-9.326 0.521,-5.957 0.173,-11.522 -1.046,-16.697 z" /></g><g
           transform="translate(170.5215,346.1279)"
           id="g168"><path
             id="path170"
             style="fill:none;stroke:#231f20;stroke-width:3;stroke-linecap:square;stroke-linejoin:bevel;stroke-miterlimit:10;stroke-dasharray:none;stroke-opacity:1"
             d="m 0,0 -6.04,-48.675 c -0.583,-4.832 -1.729,-8.482 -3.435,-10.95 -1.708,-2.467 -4.239,-3.848 -7.591,-4.141 -4.317,-0.378 -6.672,1.699 -7.069,6.229 -0.146,1.676 -0.077,3.748 0.211,6.219 l 6.159,49.763 -20.921,-1.83 -6.326,-50.318 c -0.225,-2.357 -0.238,-4.676 -0.038,-6.958 0.381,-4.353 1.715,-8.207 4.004,-11.565 2.288,-3.359 5.347,-5.859 9.175,-7.501 3.828,-1.641 8.131,-2.253 12.911,-1.836 10.167,0.89 18.001,3.993 23.502,9.309 5.501,5.315 8.865,13.076 10.094,23.285 L 20.92,1.83 Z" /></g><g
           transform="translate(222.9746,300.5752)"
           id="g172"><path
             id="path174"
             style="fill:none;stroke:#231f20;stroke-width:3;stroke-linecap:square;stroke-linejoin:bevel;stroke-miterlimit:10;stroke-dasharray:none;stroke-opacity:1"
             d="m 0,0 12.924,-27.552 22.794,1.994 -2.59,4.95 -14.401,26.56 c 4.802,2.612 8.291,6.098 10.461,10.458 2.17,4.36 3.012,9.322 2.526,14.886 -0.628,7.17 -3.487,12.329 -8.579,15.478 -5.093,3.148 -12.133,4.33 -21.121,3.544 l -20.707,-1.812 -9.69,-79.673 20.921,1.831 3.556,28.994 z m 0.256,34.044 2.836,0.248 C 5.446,34.498 7.289,34.074 8.622,33.023 9.953,31.971 10.717,30.34 10.91,28.128 11.216,24.632 10.455,21.825 8.628,19.707 6.799,17.587 4.191,16.38 0.803,16.083 l -2.729,-0.238 z" /></g><g
           transform="translate(336.2969,354.5127)"
           id="g176"><path
             id="path178"
             style="fill:none;stroke:#231f20;stroke-width:3;stroke-linecap:square;stroke-linejoin:bevel;stroke-miterlimit:10;stroke-dasharray:none;stroke-opacity:1"
             d="m 0,0 c -5.295,3.616 -12.563,5.02 -21.801,4.212 l -19.957,-1.746 -9.689,-79.673 20.921,1.831 3.08,26.418 4.601,0.403 c 10.63,0.93 18.781,4.222 24.45,9.876 5.67,5.654 8.112,12.975 7.325,21.965 C 8.271,-9.188 5.295,-3.617 0,0 Z m -22.928,-13.086 3.157,0.276 c 2.247,0.197 4.068,-0.291 5.464,-1.462 1.397,-1.172 2.188,-2.811 2.372,-4.915 0.281,-3.21 -0.486,-5.946 -2.3,-8.208 -1.817,-2.262 -4.347,-3.534 -7.593,-3.818 l -3.37,-0.295 z" /></g><g
           transform="translate(394.8545,286.9307)"
           id="g180"><path
             id="path182"
             style="fill:none;stroke:#231f20;stroke-width:3;stroke-linecap:square;stroke-linejoin:bevel;stroke-miterlimit:10;stroke-dasharray:none;stroke-opacity:1"
             d="m 0,0 2.146,17.387 -25.523,-2.234 7.544,62.286 -20.92,-1.83 -9.69,-79.672 z" /></g><g
           transform="translate(446.1113,291.415)"
           id="g184"><path
             id="path186"
             style="fill:none;stroke:#231f20;stroke-width:3;stroke-linecap:square;stroke-linejoin:bevel;stroke-miterlimit:10;stroke-dasharray:none;stroke-opacity:1"
             d="M 0,0 20.386,1.784 6.961,79.434 -19.953,77.079 -52.918,-4.63 l 21.724,1.901 5.406,15.246 23.971,2.097 z m -10.211,56.312 c 1.069,2.968 1.899,6.024 2.486,9.167 0.033,-2.011 0.165,-4.353 0.4,-7.028 l 0.51,-4.592 2.894,-22.608 -15.677,-1.371 z" /></g><g
           transform="translate(549.2715,379.2656)"
           id="g188"><path
             id="path190"
             style="fill:none;stroke:#231f20;stroke-width:3;stroke-linecap:square;stroke-linejoin:bevel;stroke-miterlimit:10;stroke-dasharray:none;stroke-opacity:1"
             d="m 0,0 -18.619,-1.629 -4.146,-33.359 c -0.577,-4.903 -1.014,-11.609 -1.312,-20.117 l -0.482,-0.043 -19.904,51.258 -24.346,-2.13 -9.689,-79.673 18.62,1.63 4.047,33.242 c 0.602,4.617 0.966,12.162 1.093,22.633 l 0.428,0.037 20.276,-53.652 24.346,2.131 z" /></g><g
           transform="translate(581.8535,382.1167)"
           id="g192"><path
             id="path194"
             style="fill:none;stroke:#231f20;stroke-width:3;stroke-linecap:square;stroke-linejoin:bevel;stroke-miterlimit:10;stroke-dasharray:none;stroke-opacity:1"
             d="m 0,0 -22.793,-1.995 -3.919,-51.346 17.55,1.535 z m -27.757,-80.526 c 1.887,-1.218 4.399,-1.691 7.538,-1.416 3.923,0.343 6.924,1.684 9.002,4.023 2.078,2.338 2.946,5.468 2.602,9.393 -0.231,2.639 -1.239,4.609 -3.025,5.909 -1.784,1.3 -4.228,1.813 -7.332,1.542 -4.066,-0.356 -7.161,-1.759 -9.283,-4.209 -2.122,-2.45 -3.016,-5.584 -2.682,-9.401 0.235,-2.675 1.294,-4.622 3.18,-5.841 z" /></g><text
           id="text198"
           style="font-style:italic;font-variant:normal;font-weight:800;font-stretch:normal;font-size:109.99952698px;font-family:'Open Sans ExtraBold';-inkscape-font-specification:OpenSans-ExtraBoldItalic;writing-mode:lr-tb;fill:#ffffff;fill-opacity:1;fill-rule:nonzero;stroke:none"
           transform="matrix(0.99619429,0.08716038,0.08716038,-0.99619429,25.26,373.8804)"><tspan
             id="tspan196"
             y="0"
             x="0 76.339668 148.71936 215.48907 239.35896 303.92868 338.24854 394.23831 455.94803 484.8779">OUR CITY, </tspan></text>
<g
           transform="translate(44.9375,449.3862)"
           id="g200"><path
             id="path202"
             style="fill:none;stroke:#000000;stroke-width:3;stroke-linecap:square;stroke-linejoin:bevel;stroke-miterlimit:10;stroke-dasharray:none;stroke-opacity:1"
             d="m 0,0 c -5.969,-4.71 -10.443,-11.185 -13.424,-19.425 -2.981,-8.241 -4.058,-17.088 -3.231,-26.54 0.827,-9.453 4.086,-16.608 9.777,-21.466 5.691,-4.858 13.333,-6.866 22.93,-6.027 8.239,0.721 15.297,3.449 21.173,8.187 5.875,4.738 10.243,11.194 13.105,19.371 2.861,8.176 3.877,17.007 3.047,26.496 C 52.546,-9.916 49.322,-2.748 43.704,2.098 38.086,6.944 30.64,8.962 21.366,8.15 13.09,7.426 5.968,4.708 0,0 Z m 31.214,-38.164 c -1.219,-5.175 -3.152,-9.371 -5.801,-12.585 -2.648,-3.216 -5.666,-4.971 -9.055,-5.268 -7.134,-0.624 -11.079,3.38 -11.834,12.013 -0.48,5.493 -0.067,10.939 1.24,16.337 1.306,5.398 3.308,9.725 6.007,12.98 2.7,3.255 5.814,5.038 9.346,5.347 3.245,0.284 5.825,-0.65 7.738,-2.801 1.915,-2.151 3.049,-5.259 3.405,-9.326 0.521,-5.958 0.173,-11.523 -1.046,-16.697 z" /></g><g
           transform="translate(151.1074,463.7168)"
           id="g204"><path
             id="path206"
             style="fill:none;stroke:#000000;stroke-width:3;stroke-linecap:square;stroke-linejoin:bevel;stroke-miterlimit:10;stroke-dasharray:none;stroke-opacity:1"
             d="m 0,0 -6.039,-48.676 c -0.584,-4.832 -1.729,-8.481 -3.436,-10.949 -1.707,-2.467 -4.238,-3.848 -7.59,-4.141 -4.317,-0.378 -6.672,1.698 -7.069,6.228 -0.146,1.677 -0.077,3.749 0.211,6.219 l 6.159,49.764 -20.921,-1.83 -6.327,-50.318 c -0.224,-2.357 -0.237,-4.676 -0.038,-6.959 0.381,-4.352 1.716,-8.207 4.005,-11.565 2.288,-3.358 5.346,-5.859 9.175,-7.5 3.828,-1.641 8.131,-2.253 12.911,-1.836 10.167,0.89 18,3.992 23.502,9.308 5.501,5.316 8.865,13.077 10.094,23.285 l 6.284,50.8 z" /></g><g
           transform="translate(203.5615,418.1636)"
           id="g208"><path
             id="path210"
             style="fill:none;stroke:#000000;stroke-width:3;stroke-linecap:square;stroke-linejoin:bevel;stroke-miterlimit:10;stroke-dasharray:none;stroke-opacity:1"
             d="m 0,0 12.924,-27.552 22.794,1.994 -2.59,4.95 -14.401,26.56 c 4.802,2.612 8.29,6.098 10.461,10.459 2.17,4.359 3.012,9.321 2.526,14.886 -0.628,7.169 -3.488,12.328 -8.579,15.477 -5.093,3.149 -12.133,4.331 -21.122,3.544 l -20.707,-1.811 -9.689,-79.674 20.921,1.831 3.556,28.994 z m 0.256,34.043 2.836,0.249 c 2.354,0.206 4.197,-0.218 5.53,-1.269 1.33,-1.051 2.094,-2.683 2.287,-4.895 C 11.216,24.632 10.454,21.825 8.628,19.707 6.799,17.587 4.191,16.38 0.803,16.083 l -2.729,-0.238 z" /></g><g
           transform="translate(314.1816,460.165)"
           id="g212"><path
             id="path214"
             style="fill:none;stroke:#000000;stroke-width:3;stroke-linecap:square;stroke-linejoin:bevel;stroke-miterlimit:10;stroke-dasharray:none;stroke-opacity:1"
             d="m 0,0 c 2.868,-0.738 6.046,-1.943 9.535,-3.614 l 6.491,17.012 c -8.114,3.998 -16.897,5.585 -26.349,4.758 -8.027,-0.702 -14.975,-3.341 -20.847,-7.917 -5.872,-4.575 -10.272,-10.98 -13.199,-19.216 -2.929,-8.236 -3.978,-17.098 -3.148,-26.586 0.849,-9.704 4.012,-16.983 9.487,-21.842 5.474,-4.859 12.849,-6.882 22.125,-6.071 8.454,0.74 16.16,3.032 23.121,6.875 l -1.512,17.283 c -3.95,-2.107 -7.408,-3.659 -10.376,-4.655 -2.968,-0.997 -5.933,-1.624 -8.893,-1.883 -3.746,-0.328 -6.72,0.598 -8.923,2.778 -2.205,2.179 -3.516,5.658 -3.934,10.439 -0.499,5.706 -0.08,11.081 1.259,16.122 1.338,5.041 3.437,9.09 6.297,12.143 2.86,3.054 6.217,4.75 10.069,5.087 C -5.801,0.975 -2.869,0.737 0,0 Z" /></g><g
           transform="translate(350.8828,402.3701)"
           id="g216"><path
             id="path218"
             style="fill:none;stroke:#000000;stroke-width:3;stroke-linecap:square;stroke-linejoin:bevel;stroke-miterlimit:10;stroke-dasharray:none;stroke-opacity:1"
             d="M 0,0 9.688,79.673 -11.554,77.814 -21.242,-1.858 Z" /></g><g
           transform="translate(403.0664,468.3462)"
           id="g220"><path
             id="path222"
             style="fill:none;stroke:#000000;stroke-width:3;stroke-linecap:square;stroke-linejoin:bevel;stroke-miterlimit:10;stroke-dasharray:none;stroke-opacity:1"
             d="m 0,0 17.016,1.489 2.286,17.615 -55.005,-4.812 -2.179,-17.606 16.961,1.483 -7.349,-62.053 20.921,1.831 z" /></g><g
           transform="translate(441.4121,489.1162)"
           id="g224"><path
             id="path226"
             style="fill:none;stroke:#000000;stroke-width:3;stroke-linecap:square;stroke-linejoin:bevel;stroke-miterlimit:10;stroke-dasharray:none;stroke-opacity:1"
             d="m 0,0 -21.562,-1.887 16.871,-46.778 -3.767,-30.9 20.921,1.83 3.82,30.905 L 44.839,3.923 21.51,1.882 7.354,-28.579 Z" /></g><g
           transform="translate(482.7754,426.7422)"
           id="g228"><path
             id="path230"
             style="fill:none;stroke:#000000;stroke-width:3;stroke-linecap:square;stroke-linejoin:bevel;stroke-miterlimit:10;stroke-dasharray:none;stroke-opacity:1"
             d="M 0,0 -1.656,-6.345 C -4.179,-16.127 -6.195,-23.259 -7.71,-27.74 l 15.41,1.348 c 4.317,8.177 8.135,17.12 11.455,26.828 L 18.62,1.629 Z" /></g></g></g><text
       id="text234"
       style="font-style:italic;font-variant:normal;font-weight:800;font-stretch:normal;font-size:109.99952698px;font-family:'Open Sans ExtraBold';-inkscape-font-specification:OpenSans-ExtraBoldItalic;writing-mode:lr-tb;fill:#ffffff;fill-opacity:1;fill-rule:nonzero;stroke:none"
       transform="matrix(0.99619429,0.08716038,0.08716038,-0.99619429,34.6732,266.2919)"><tspan
         id="tspan232"
         y="0"
         x="0 76.339668 148.71936 215.48907 239.35896 303.15869 356.39847 426.02817 508.19781">OUR PLAN!</tspan></text>
<g
       id="g236"><g
         clip-path="url(#clipPath242)"
         id="g238"><g
           transform="translate(54.3506,341.7974)"
           id="g244"><path
             id="path246"
             style="fill:none;stroke:#000000;stroke-width:3;stroke-linecap:square;stroke-linejoin:bevel;stroke-miterlimit:10;stroke-dasharray:none;stroke-opacity:1"
             d="m 0,0 c -5.968,-4.71 -10.443,-11.185 -13.424,-19.425 -2.981,-8.241 -4.057,-17.088 -3.231,-26.54 0.827,-9.453 4.086,-16.608 9.777,-21.465 5.691,-4.859 13.333,-6.867 22.93,-6.028 8.239,0.721 15.297,3.45 21.173,8.188 5.876,4.737 10.244,11.194 13.105,19.37 2.861,8.176 3.877,17.008 3.047,26.497 -0.83,9.487 -4.055,16.655 -9.673,21.502 C 38.086,6.944 30.64,8.962 21.366,8.151 13.09,7.427 5.968,4.709 0,0 Z m 31.214,-38.164 c -1.219,-5.175 -3.152,-9.37 -5.8,-12.585 -2.649,-3.216 -5.667,-4.971 -9.056,-5.267 -7.134,-0.624 -11.079,3.379 -11.834,12.013 -0.48,5.492 -0.067,10.939 1.24,16.336 1.307,5.398 3.309,9.725 6.008,12.981 2.699,3.255 5.813,5.037 9.345,5.346 3.245,0.284 5.825,-0.65 7.739,-2.801 1.914,-2.151 3.048,-5.259 3.404,-9.326 0.521,-5.957 0.173,-11.522 -1.046,-16.697 z" /></g><g
           transform="translate(160.5215,356.1279)"
           id="g248"><path
             id="path250"
             style="fill:none;stroke:#000000;stroke-width:3;stroke-linecap:square;stroke-linejoin:bevel;stroke-miterlimit:10;stroke-dasharray:none;stroke-opacity:1"
             d="m 0,0 -6.04,-48.675 c -0.583,-4.832 -1.729,-8.482 -3.435,-10.95 -1.708,-2.467 -4.239,-3.848 -7.591,-4.141 -4.317,-0.378 -6.672,1.699 -7.069,6.229 -0.146,1.676 -0.077,3.748 0.211,6.219 l 6.159,49.763 -20.921,-1.83 -6.326,-50.318 c -0.225,-2.357 -0.238,-4.676 -0.038,-6.958 0.381,-4.353 1.715,-8.207 4.004,-11.565 2.288,-3.359 5.347,-5.859 9.175,-7.501 3.828,-1.641 8.131,-2.253 12.911,-1.836 10.167,0.89 18.001,3.993 23.502,9.309 5.501,5.315 8.865,13.076 10.094,23.285 L 20.92,1.83 Z" /></g><g
           transform="translate(212.9746,310.5752)"
           id="g252"><path
             id="path254"
             style="fill:none;stroke:#000000;stroke-width:3;stroke-linecap:square;stroke-linejoin:bevel;stroke-miterlimit:10;stroke-dasharray:none;stroke-opacity:1"
             d="m 0,0 12.924,-27.552 22.794,1.994 -2.59,4.95 -14.401,26.56 c 4.802,2.612 8.291,6.098 10.461,10.458 2.17,4.36 3.012,9.322 2.526,14.886 -0.628,7.17 -3.487,12.329 -8.579,15.478 -5.093,3.148 -12.133,4.33 -21.121,3.544 l -20.707,-1.812 -9.69,-79.673 20.921,1.831 3.556,28.994 z m 0.256,34.044 2.836,0.248 C 5.446,34.498 7.289,34.074 8.622,33.023 9.953,31.971 10.717,30.34 10.91,28.128 11.216,24.632 10.455,21.825 8.628,19.707 6.799,17.587 4.191,16.38 0.803,16.083 l -2.729,-0.238 z" /></g><g
           transform="translate(326.2969,364.5127)"
           id="g256"><path
             id="path258"
             style="fill:none;stroke:#000000;stroke-width:3;stroke-linecap:square;stroke-linejoin:bevel;stroke-miterlimit:10;stroke-dasharray:none;stroke-opacity:1"
             d="m 0,0 c -5.295,3.616 -12.563,5.02 -21.801,4.212 l -19.957,-1.746 -9.689,-79.673 20.921,1.831 3.08,26.418 4.601,0.403 c 10.63,0.93 18.781,4.222 24.45,9.876 5.67,5.654 8.112,12.975 7.325,21.965 C 8.271,-9.188 5.295,-3.617 0,0 Z m -22.928,-13.086 3.157,0.276 c 2.247,0.197 4.068,-0.291 5.464,-1.462 1.397,-1.172 2.188,-2.811 2.372,-4.915 0.281,-3.21 -0.486,-5.946 -2.3,-8.208 -1.817,-2.262 -4.347,-3.534 -7.593,-3.818 l -3.37,-0.295 z" /></g><g
           transform="translate(384.8545,296.9307)"
           id="g260"><path
             id="path262"
             style="fill:none;stroke:#000000;stroke-width:3;stroke-linecap:square;stroke-linejoin:bevel;stroke-miterlimit:10;stroke-dasharray:none;stroke-opacity:1"
             d="m 0,0 2.146,17.387 -25.523,-2.234 7.544,62.286 -20.92,-1.83 -9.69,-79.672 z" /></g><g
           transform="translate(436.1113,301.415)"
           id="g264"><path
             id="path266"
             style="fill:none;stroke:#000000;stroke-width:3;stroke-linecap:square;stroke-linejoin:bevel;stroke-miterlimit:10;stroke-dasharray:none;stroke-opacity:1"
             d="M 0,0 20.386,1.784 6.961,79.434 -19.953,77.079 -52.918,-4.63 l 21.724,1.901 5.406,15.246 23.971,2.097 z m -10.211,56.312 c 1.069,2.968 1.899,6.024 2.486,9.167 0.033,-2.011 0.165,-4.353 0.4,-7.028 l 0.51,-4.592 2.894,-22.608 -15.677,-1.371 z" /></g><g
           transform="translate(539.2715,389.2656)"
           id="g268"><path
             id="path270"
             style="fill:none;stroke:#000000;stroke-width:3;stroke-linecap:square;stroke-linejoin:bevel;stroke-miterlimit:10;stroke-dasharray:none;stroke-opacity:1"
             d="m 0,0 -18.619,-1.629 -4.146,-33.359 c -0.577,-4.903 -1.014,-11.609 -1.312,-20.117 l -0.482,-0.043 -19.904,51.258 -24.346,-2.13 -9.689,-79.673 18.62,1.63 4.047,33.242 c 0.602,4.617 0.966,12.162 1.093,22.633 l 0.428,0.037 20.276,-53.652 24.346,2.131 z" /></g><g
           transform="translate(571.8535,392.1167)"
           id="g272"><path
             id="path274"
             style="fill:none;stroke:#000000;stroke-width:3;stroke-linecap:square;stroke-linejoin:bevel;stroke-miterlimit:10;stroke-dasharray:none;stroke-opacity:1"
             d="m 0,0 -22.793,-1.995 -3.919,-51.346 17.55,1.535 z m -27.757,-80.526 c 1.887,-1.218 4.399,-1.691 7.538,-1.416 3.923,0.343 6.924,1.684 9.002,4.023 2.078,2.338 2.946,5.468 2.602,9.393 -0.231,2.639 -1.239,4.609 -3.025,5.909 -1.784,1.3 -4.228,1.813 -7.332,1.542 -4.066,-0.356 -7.161,-1.759 -9.283,-4.209 -2.122,-2.45 -3.016,-5.584 -2.682,-9.401 0.235,-2.675 1.294,-4.622 3.18,-5.841 z" /></g><g
           transform="translate(1127.8838,458.0947)"
           id="g276"><path
             id="path278"
             style="fill:#eb2229;fill-opacity:1;fill-rule:nonzero;stroke:none"
             d="m 0,0 -452.503,-39.589 c -5.914,-0.517 -10.289,-5.731 -9.771,-11.644 l 1.699,-19.414 c 0.516,-5.914 5.73,-10.288 11.643,-9.77 L 3.572,-40.829 c 5.913,0.517 10.288,5.731 9.771,11.644 L 11.645,-9.771 C 11.127,-3.857 5.914,0.517 0,0" /></g><g
           transform="translate(1059.1973,332.0854)"
           id="g280"><path
             id="path282"
             style="fill:#eb2229;fill-opacity:1;fill-rule:nonzero;stroke:none"
             d="m 0,0 -358.093,-31.329 c -5.913,-0.518 -10.288,-5.731 -9.77,-11.645 l 1.698,-19.413 c 0.518,-5.914 5.731,-10.288 11.644,-9.771 L 3.571,-40.829 c 5.914,0.517 10.288,5.731 9.772,11.644 L 11.644,-9.771 C 11.127,-3.857 5.913,0.517 0,0" /></g><text
           id="text286"
           style="font-style:italic;font-variant:normal;font-weight:800;font-stretch:normal;font-size:109.99952698px;font-family:'Open Sans ExtraBold';-inkscape-font-specification:OpenSans-ExtraBoldItalic;writing-mode:lr-tb;fill:#231f20;fill-opacity:1;fill-rule:nonzero;stroke:none"
           transform="matrix(0.99619429,0.08716038,0.08716038,-0.99619429,698.2604,373.8804)"><tspan
             id="tspan284"
             y="0"
             x="0 36.299843 112.63951 146.95937 229.12901 252.99892 308.98868 382.79834 439.88809">JOIN THE </tspan></text>
<g
           transform="translate(709.6724,352.8276)"
           id="g288"><path
             id="path290"
             style="fill:none;stroke:#231f20;stroke-width:3;stroke-linecap:square;stroke-linejoin:bevel;stroke-miterlimit:10;stroke-dasharray:none;stroke-opacity:1"
             d="m 0,0 c 3.851,2.206 6.849,5.424 8.995,9.656 2.145,4.231 3.673,9.982 4.583,17.25 l 9.473,75.987 -20.921,-1.83 -9.167,-73.319 c -0.61,-4.943 -1.805,-8.551 -3.582,-10.827 -1.777,-2.276 -4.574,-3.582 -8.392,-3.916 -2.675,-0.233 -5.816,-0.077 -9.422,0.47 l 1.494,-17.069 c 3.907,-0.7 7.752,-0.884 11.532,-0.554 C -8.986,-3.59 -3.851,-2.206 0,0 Z" /></g><g
           transform="translate(754.105,452.5503)"
           id="g292"><path
             id="path294"
             style="fill:none;stroke:#231f20;stroke-width:3;stroke-linecap:square;stroke-linejoin:bevel;stroke-miterlimit:10;stroke-dasharray:none;stroke-opacity:1"
             d="m 0,0 c -5.969,-4.71 -10.443,-11.185 -13.424,-19.425 -2.981,-8.24 -4.057,-17.087 -3.231,-26.539 0.827,-9.453 4.086,-16.609 9.776,-21.467 5.691,-4.858 13.334,-6.866 22.93,-6.027 8.24,0.721 15.298,3.45 21.174,8.187 5.875,4.738 10.244,11.195 13.104,19.371 2.861,8.176 3.877,17.007 3.047,26.497 -0.83,9.488 -4.054,16.655 -9.672,21.502 C 38.086,6.945 30.64,8.962 21.365,8.151 13.09,7.427 5.968,4.709 0,0 Z m 31.214,-38.164 c -1.219,-5.175 -3.152,-9.37 -5.801,-12.585 -2.648,-3.215 -5.667,-4.971 -9.055,-5.267 -7.134,-0.625 -11.079,3.379 -11.834,12.012 -0.48,5.493 -0.067,10.939 1.24,16.337 1.306,5.398 3.308,9.725 6.007,12.98 2.699,3.256 5.814,5.038 9.345,5.347 3.246,0.284 5.826,-0.649 7.739,-2.8 1.915,-2.151 3.049,-5.26 3.405,-9.326 0.521,-5.958 0.173,-11.524 -1.046,-16.698 z" /></g><g
           transform="translate(833.3579,385.7002)"
           id="g296"><path
             id="path298"
             style="fill:none;stroke:#231f20;stroke-width:3;stroke-linecap:square;stroke-linejoin:bevel;stroke-miterlimit:10;stroke-dasharray:none;stroke-opacity:1"
             d="M 0,0 9.688,79.673 -11.554,77.815 -21.242,-1.858 Z" /></g><g
           transform="translate(924.9067,472.5356)"
           id="g300"><path
             id="path302"
             style="fill:none;stroke:#231f20;stroke-width:3;stroke-linecap:square;stroke-linejoin:bevel;stroke-miterlimit:10;stroke-dasharray:none;stroke-opacity:1"
             d="m 0,0 -18.62,-1.629 -4.144,-33.359 c -0.577,-4.903 -1.015,-11.609 -1.312,-20.118 l -0.482,-0.042 -19.905,51.258 -24.346,-2.13 -9.688,-79.673 18.62,1.629 4.047,33.243 c 0.601,4.616 0.966,12.161 1.093,22.632 l 0.427,0.038 20.277,-53.652 24.345,2.13 z" /></g><g
           transform="translate(991.1558,460.917)"
           id="g304"><path
             id="path306"
             style="fill:none;stroke:#231f20;stroke-width:3;stroke-linecap:square;stroke-linejoin:bevel;stroke-miterlimit:10;stroke-dasharray:none;stroke-opacity:1"
             d="m 0,0 17.015,1.489 2.286,17.615 -55.004,-4.812 -2.18,-17.606 16.962,1.483 -7.35,-62.053 20.922,1.831 z" /></g><g
           transform="translate(1077.979,485.9287)"
           id="g308"><path
             id="path310"
             style="fill:none;stroke:#231f20;stroke-width:3;stroke-linecap:square;stroke-linejoin:bevel;stroke-miterlimit:10;stroke-dasharray:none;stroke-opacity:1"
             d="m 0,0 -20.975,-1.835 -3.454,-29.525 -18.621,-1.629 3.455,29.525 -20.921,-1.831 -9.688,-79.673 20.921,1.83 4.005,32.485 18.513,1.62 -3.898,-32.475 20.921,1.83 z" /></g><g
           transform="translate(1129.8628,429.0034)"
           id="g312"><path
             id="path314"
             style="fill:none;stroke:#231f20;stroke-width:3;stroke-linecap:square;stroke-linejoin:bevel;stroke-miterlimit:10;stroke-dasharray:none;stroke-opacity:1"
             d="m 0,0 -25.522,-2.233 1.757,15.035 23.757,2.078 2.369,17.299 -23.757,-2.078 1.438,12.525 25.522,2.234 1.994,17.266 -46.444,-4.063 -9.688,-79.674 46.443,4.064 z" /></g></g></g><text
       id="text318"
       style="font-style:italic;font-variant:normal;font-weight:800;font-stretch:normal;font-size:109.99952698px;font-family:'Open Sans ExtraBold';-inkscape-font-specification:OpenSans-ExtraBoldItalic;writing-mode:lr-tb;fill:#231f20;fill-opacity:1;fill-rule:nonzero;stroke:none"
       transform="matrix(0.99619429,0.08716038,0.08716038,-0.99619429,707.6737,266.2919)"><tspan
         id="tspan316"
         y="0"
         x="0 70.509697 134.30942 198.87915 268.50885 332.30856">DPCAP!</tspan></text>
<g
       id="g320"><g
         clip-path="url(#clipPath326)"
         id="g322"><g
           transform="translate(764.938,342.3364)"
           id="g328"><path
             id="path330"
             style="fill:none;stroke:#231f20;stroke-width:3;stroke-linecap:square;stroke-linejoin:bevel;stroke-miterlimit:10;stroke-dasharray:none;stroke-opacity:1"
             d="m 0,0 c -5.855,4.681 -13.705,6.591 -23.551,5.73 l -22.259,-1.947 -9.688,-79.673 25.201,2.205 c 9.203,0.805 16.996,3.446 23.38,7.922 6.384,4.476 11.021,10.535 13.911,18.174 2.89,7.639 3.898,16.453 3.024,26.441 C 9.194,-11.731 5.855,-4.683 0,0 Z m -32.349,-56.396 5.37,44.627 3.798,0.332 c 3.459,0.303 6.254,-0.611 8.381,-2.744 2.128,-2.132 3.387,-5.428 3.777,-9.887 0.518,-5.921 0.124,-11.266 -1.185,-16.036 -1.309,-4.77 -3.396,-8.538 -6.263,-11.303 -2.867,-2.768 -6.262,-4.322 -10.186,-4.666 z" /></g><g
           transform="translate(831.1382,349.7998)"
           id="g332"><path
             id="path334"
             style="fill:none;stroke:#231f20;stroke-width:3;stroke-linecap:square;stroke-linejoin:bevel;stroke-miterlimit:10;stroke-dasharray:none;stroke-opacity:1"
             d="m 0,0 c -5.296,3.616 -12.563,5.02 -21.802,4.212 l -19.957,-1.746 -9.689,-79.673 20.921,1.831 3.08,26.418 4.601,0.403 c 10.63,0.93 18.78,4.222 24.45,9.876 5.67,5.654 8.112,12.975 7.325,21.965 C 8.271,-9.188 5.293,-3.617 0,0 Z m -22.93,-13.086 3.158,0.276 c 2.247,0.197 4.068,-0.291 5.464,-1.462 1.397,-1.172 2.188,-2.811 2.371,-4.915 0.282,-3.21 -0.486,-5.946 -2.3,-8.208 -1.816,-2.262 -4.346,-3.534 -7.592,-3.818 l -3.371,-0.295 z" /></g><g
           transform="translate(891.9966,343.4248)"
           id="g336"><path
             id="path338"
             style="fill:none;stroke:#231f20;stroke-width:3;stroke-linecap:square;stroke-linejoin:bevel;stroke-miterlimit:10;stroke-dasharray:none;stroke-opacity:1"
             d="m 0,0 c 2.868,-0.738 6.047,-1.943 9.535,-3.614 l 6.491,17.013 c -8.112,3.998 -16.897,5.584 -26.349,4.757 -8.026,-0.702 -14.974,-3.342 -20.846,-7.916 -5.873,-4.576 -10.272,-10.982 -13.199,-19.217 -2.929,-8.236 -3.978,-17.098 -3.148,-26.586 0.85,-9.704 4.012,-16.983 9.487,-21.842 5.475,-4.859 12.849,-6.883 22.125,-6.071 8.454,0.74 16.16,3.032 23.121,6.876 l -1.513,17.282 c -3.949,-2.107 -7.408,-3.659 -10.376,-4.655 -2.968,-0.997 -5.932,-1.624 -8.891,-1.883 -3.747,-0.328 -6.722,0.598 -8.925,2.777 -2.204,2.18 -3.514,5.659 -3.933,10.44 -0.499,5.706 -0.079,11.08 1.26,16.123 1.337,5.041 3.435,9.089 6.296,12.142 2.86,3.055 6.216,4.75 10.068,5.087 C -5.801,0.975 -2.868,0.737 0,0 Z" /></g><g
           transform="translate(952.2407,287.6899)"
           id="g340"><path
             id="path342"
             style="fill:none;stroke:#231f20;stroke-width:3;stroke-linecap:square;stroke-linejoin:bevel;stroke-miterlimit:10;stroke-dasharray:none;stroke-opacity:1"
             d="M 0,0 20.386,1.784 6.961,79.434 -19.953,77.079 -52.918,-4.63 l 21.724,1.901 5.406,15.246 23.971,2.097 z m -10.21,56.311 c 1.068,2.969 1.898,6.025 2.486,9.168 0.032,-2.011 0.165,-4.353 0.4,-7.028 L -6.815,53.859 -3.92,31.251 -19.598,29.88 Z" /></g><g
           transform="translate(1028.3521,367.0547)"
           id="g344"><path
             id="path346"
             style="fill:none;stroke:#231f20;stroke-width:3;stroke-linecap:square;stroke-linejoin:bevel;stroke-miterlimit:10;stroke-dasharray:none;stroke-opacity:1"
             d="m 0,0 c -5.295,3.616 -12.563,5.02 -21.801,4.212 l -19.957,-1.746 -9.69,-79.673 20.922,1.831 3.08,26.418 4.601,0.403 c 10.629,0.93 18.78,4.222 24.449,9.876 5.67,5.654 8.112,12.975 7.325,21.965 C 8.271,-9.188 5.294,-3.617 0,0 Z m -22.929,-13.086 3.157,0.276 c 2.248,0.197 4.069,-0.291 5.465,-1.462 1.397,-1.172 2.187,-2.811 2.371,-4.915 0.281,-3.21 -0.486,-5.946 -2.3,-8.208 -1.816,-2.262 -4.347,-3.534 -7.592,-3.818 l -3.371,-0.295 z" /></g><g
           transform="translate(1069.6841,376.7905)"
           id="g348"><path
             id="path350"
             style="fill:none;stroke:#231f20;stroke-width:3;stroke-linecap:square;stroke-linejoin:bevel;stroke-miterlimit:10;stroke-dasharray:none;stroke-opacity:1"
             d="m 0,0 -22.793,-1.995 -3.919,-51.346 17.55,1.535 z m -27.757,-80.526 c 1.887,-1.218 4.399,-1.691 7.538,-1.416 3.923,0.343 6.924,1.684 9.002,4.023 2.078,2.338 2.946,5.468 2.602,9.393 -0.231,2.639 -1.239,4.609 -3.025,5.909 -1.784,1.299 -4.228,1.813 -7.332,1.542 -4.066,-0.356 -7.161,-1.759 -9.283,-4.209 -2.122,-2.45 -3.016,-5.584 -2.682,-9.401 0.235,-2.675 1.294,-4.622 3.18,-5.841 z" /></g><text
           id="text354"
           style="font-style:italic;font-variant:normal;font-weight:800;font-stretch:normal;font-size:109.99952698px;font-family:'Open Sans ExtraBold';-inkscape-font-specification:OpenSans-ExtraBoldItalic;writing-mode:lr-tb;fill:#ffffff;fill-opacity:1;fill-rule:nonzero;stroke:none"
           transform="matrix(0.99619429,0.08716038,0.08716038,-0.99619429,688.2604,383.8804)"><tspan
             id="tspan352"
             y="0"
             x="0 36.299843 112.63951 146.95937 229.12901 252.99892 308.98868 382.79834 439.88809">JOIN THE </tspan></text>
<g
           transform="translate(699.6724,362.8276)"
           id="g356"><path
             id="path358"
             style="fill:none;stroke:#000000;stroke-width:3;stroke-linecap:square;stroke-linejoin:bevel;stroke-miterlimit:10;stroke-dasharray:none;stroke-opacity:1"
             d="m 0,0 c 3.851,2.206 6.849,5.424 8.995,9.656 2.145,4.231 3.673,9.982 4.583,17.25 l 9.473,75.987 -20.921,-1.83 -9.167,-73.319 c -0.61,-4.943 -1.805,-8.551 -3.582,-10.827 -1.777,-2.276 -4.574,-3.582 -8.392,-3.916 -2.675,-0.233 -5.816,-0.077 -9.422,0.47 l 1.494,-17.069 c 3.907,-0.7 7.752,-0.884 11.532,-0.554 C -8.986,-3.59 -3.851,-2.206 0,0 Z" /></g><g
           transform="translate(744.105,462.5503)"
           id="g360"><path
             id="path362"
             style="fill:none;stroke:#000000;stroke-width:3;stroke-linecap:square;stroke-linejoin:bevel;stroke-miterlimit:10;stroke-dasharray:none;stroke-opacity:1"
             d="m 0,0 c -5.969,-4.71 -10.443,-11.185 -13.424,-19.425 -2.981,-8.24 -4.057,-17.087 -3.231,-26.539 0.827,-9.453 4.086,-16.609 9.776,-21.467 5.691,-4.858 13.334,-6.866 22.93,-6.027 8.24,0.721 15.298,3.45 21.174,8.187 5.875,4.738 10.244,11.195 13.104,19.371 2.861,8.176 3.877,17.007 3.047,26.497 -0.83,9.488 -4.054,16.655 -9.672,21.502 C 38.086,6.945 30.64,8.962 21.365,8.151 13.09,7.427 5.968,4.709 0,0 Z m 31.214,-38.164 c -1.219,-5.175 -3.152,-9.37 -5.801,-12.585 -2.648,-3.215 -5.667,-4.971 -9.055,-5.267 -7.134,-0.625 -11.079,3.379 -11.834,12.012 -0.48,5.493 -0.067,10.939 1.24,16.337 1.306,5.398 3.308,9.725 6.007,12.98 2.699,3.256 5.814,5.038 9.345,5.347 3.246,0.284 5.826,-0.649 7.739,-2.8 1.915,-2.151 3.049,-5.26 3.405,-9.326 0.521,-5.958 0.173,-11.524 -1.046,-16.698 z" /></g><g
           transform="translate(823.3579,395.7002)"
           id="g364"><path
             id="path366"
             style="fill:none;stroke:#000000;stroke-width:3;stroke-linecap:square;stroke-linejoin:bevel;stroke-miterlimit:10;stroke-dasharray:none;stroke-opacity:1"
             d="M 0,0 9.688,79.673 -11.554,77.815 -21.242,-1.858 Z" /></g><g
           transform="translate(914.9067,482.5356)"
           id="g368"><path
             id="path370"
             style="fill:none;stroke:#000000;stroke-width:3;stroke-linecap:square;stroke-linejoin:bevel;stroke-miterlimit:10;stroke-dasharray:none;stroke-opacity:1"
             d="m 0,0 -18.62,-1.629 -4.144,-33.359 c -0.577,-4.903 -1.015,-11.609 -1.312,-20.118 l -0.482,-0.042 -19.905,51.258 -24.346,-2.13 -9.688,-79.673 18.62,1.629 4.047,33.243 c 0.601,4.616 0.966,12.161 1.093,22.632 l 0.427,0.038 20.277,-53.652 24.345,2.13 z" /></g><g
           transform="translate(981.1558,470.917)"
           id="g372"><path
             id="path374"
             style="fill:none;stroke:#000000;stroke-width:3;stroke-linecap:square;stroke-linejoin:bevel;stroke-miterlimit:10;stroke-dasharray:none;stroke-opacity:1"
             d="m 0,0 17.015,1.489 2.286,17.615 -55.004,-4.812 -2.18,-17.606 16.962,1.483 -7.35,-62.053 20.922,1.831 z" /></g><g
           transform="translate(1067.979,495.9287)"
           id="g376"><path
             id="path378"
             style="fill:none;stroke:#000000;stroke-width:3;stroke-linecap:square;stroke-linejoin:bevel;stroke-miterlimit:10;stroke-dasharray:none;stroke-opacity:1"
             d="m 0,0 -20.975,-1.835 -3.454,-29.525 -18.621,-1.629 3.455,29.525 -20.921,-1.831 -9.688,-79.673 20.921,1.83 4.005,32.485 18.513,1.62 -3.898,-32.475 20.921,1.83 z" /></g><g
           transform="translate(1119.8628,439.0034)"
           id="g380"><path
             id="path382"
             style="fill:none;stroke:#000000;stroke-width:3;stroke-linecap:square;stroke-linejoin:bevel;stroke-miterlimit:10;stroke-dasharray:none;stroke-opacity:1"
             d="m 0,0 -25.522,-2.233 1.757,15.035 23.757,2.078 2.369,17.299 -23.757,-2.078 1.438,12.525 25.522,2.234 1.994,17.266 -46.444,-4.063 -9.688,-79.674 46.443,4.064 z" /></g></g></g><text
       id="text386"
       style="font-style:italic;font-variant:normal;font-weight:800;font-stretch:normal;font-size:109.99952698px;font-family:'Open Sans ExtraBold';-inkscape-font-specification:OpenSans-ExtraBoldItalic;writing-mode:lr-tb;fill:#ffffff;fill-opacity:1;fill-rule:nonzero;stroke:none"
       transform="matrix(0.99619429,0.08716038,0.08716038,-0.99619429,697.6737,276.2919)"><tspan
         id="tspan384"
         y="0"
         x="0 70.509697 134.30942 198.87915 268.50885 332.30856">DPCAP!</tspan></text>
<g
       id="g388"><g
         clip-path="url(#clipPath394)"
         id="g390"><g
           transform="translate(754.938,352.3364)"
           id="g396"><path
             id="path398"
             style="fill:none;stroke:#000000;stroke-width:3;stroke-linecap:square;stroke-linejoin:bevel;stroke-miterlimit:10;stroke-dasharray:none;stroke-opacity:1"
             d="m 0,0 c -5.855,4.681 -13.705,6.591 -23.551,5.73 l -22.259,-1.947 -9.688,-79.673 25.201,2.205 c 9.203,0.805 16.996,3.446 23.38,7.922 6.384,4.476 11.021,10.535 13.911,18.174 2.89,7.639 3.898,16.453 3.024,26.441 C 9.194,-11.731 5.855,-4.683 0,0 Z m -32.349,-56.396 5.37,44.627 3.798,0.332 c 3.459,0.303 6.254,-0.611 8.381,-2.744 2.128,-2.132 3.387,-5.428 3.777,-9.887 0.518,-5.921 0.124,-11.266 -1.185,-16.036 -1.309,-4.77 -3.396,-8.538 -6.263,-11.303 -2.867,-2.768 -6.262,-4.322 -10.186,-4.666 z" /></g><g
           transform="translate(821.1382,359.7998)"
           id="g400"><path
             id="path402"
             style="fill:none;stroke:#000000;stroke-width:3;stroke-linecap:square;stroke-linejoin:bevel;stroke-miterlimit:10;stroke-dasharray:none;stroke-opacity:1"
             d="m 0,0 c -5.296,3.616 -12.563,5.02 -21.802,4.212 l -19.957,-1.746 -9.689,-79.673 20.921,1.831 3.08,26.418 4.601,0.403 c 10.63,0.93 18.78,4.222 24.45,9.876 5.67,5.654 8.112,12.975 7.325,21.965 C 8.271,-9.188 5.293,-3.617 0,0 Z m -22.93,-13.086 3.158,0.276 c 2.247,0.197 4.068,-0.291 5.464,-1.462 1.397,-1.172 2.188,-2.811 2.371,-4.915 0.282,-3.21 -0.486,-5.946 -2.3,-8.208 -1.816,-2.262 -4.346,-3.534 -7.592,-3.818 l -3.371,-0.295 z" /></g><g
           transform="translate(881.9966,353.4248)"
           id="g404"><path
             id="path406"
             style="fill:none;stroke:#000000;stroke-width:3;stroke-linecap:square;stroke-linejoin:bevel;stroke-miterlimit:10;stroke-dasharray:none;stroke-opacity:1"
             d="m 0,0 c 2.868,-0.738 6.047,-1.943 9.535,-3.614 l 6.491,17.013 c -8.112,3.998 -16.897,5.584 -26.349,4.757 -8.026,-0.702 -14.974,-3.342 -20.846,-7.916 -5.873,-4.576 -10.272,-10.982 -13.199,-19.217 -2.929,-8.236 -3.978,-17.098 -3.148,-26.586 0.85,-9.704 4.012,-16.983 9.487,-21.842 5.475,-4.859 12.849,-6.883 22.125,-6.071 8.454,0.74 16.16,3.032 23.121,6.876 l -1.513,17.282 c -3.949,-2.107 -7.408,-3.659 -10.376,-4.655 -2.968,-0.997 -5.932,-1.624 -8.891,-1.883 -3.747,-0.328 -6.722,0.598 -8.925,2.777 -2.204,2.18 -3.514,5.659 -3.933,10.44 -0.499,5.706 -0.079,11.08 1.26,16.123 1.337,5.041 3.435,9.089 6.296,12.142 2.86,3.055 6.216,4.75 10.068,5.087 C -5.801,0.975 -2.868,0.737 0,0 Z" /></g><g
           transform="translate(942.2407,297.6899)"
           id="g408"><path
             id="path410"
             style="fill:none;stroke:#000000;stroke-width:3;stroke-linecap:square;stroke-linejoin:bevel;stroke-miterlimit:10;stroke-dasharray:none;stroke-opacity:1"
             d="M 0,0 20.386,1.784 6.961,79.434 -19.953,77.079 -52.918,-4.63 l 21.724,1.901 5.406,15.246 23.971,2.097 z m -10.21,56.311 c 1.068,2.969 1.898,6.025 2.486,9.168 0.032,-2.011 0.165,-4.353 0.4,-7.028 L -6.815,53.859 -3.92,31.251 -19.598,29.88 Z" /></g><g
           transform="translate(1018.3521,377.0547)"
           id="g412"><path
             id="path414"
             style="fill:none;stroke:#000000;stroke-width:3;stroke-linecap:square;stroke-linejoin:bevel;stroke-miterlimit:10;stroke-dasharray:none;stroke-opacity:1"
             d="m 0,0 c -5.295,3.616 -12.563,5.02 -21.801,4.212 l -19.957,-1.746 -9.69,-79.673 20.922,1.831 3.08,26.418 4.601,0.403 c 10.629,0.93 18.78,4.222 24.449,9.876 5.67,5.654 8.112,12.975 7.325,21.965 C 8.271,-9.188 5.294,-3.617 0,0 Z m -22.929,-13.086 3.157,0.276 c 2.248,0.197 4.069,-0.291 5.465,-1.462 1.397,-1.172 2.187,-2.811 2.371,-4.915 0.281,-3.21 -0.486,-5.946 -2.3,-8.208 -1.816,-2.262 -4.347,-3.534 -7.592,-3.818 l -3.371,-0.295 z" /></g><g
           transform="translate(1059.6841,386.7905)"
           id="g416"><path
             id="path418"
             style="fill:none;stroke:#000000;stroke-width:3;stroke-linecap:square;stroke-linejoin:bevel;stroke-miterlimit:10;stroke-dasharray:none;stroke-opacity:1"
             d="m 0,0 -22.793,-1.995 -3.919,-51.346 17.55,1.535 z m -27.757,-80.526 c 1.887,-1.218 4.399,-1.691 7.538,-1.416 3.923,0.343 6.924,1.684 9.002,4.023 2.078,2.338 2.946,5.468 2.602,9.393 -0.231,2.639 -1.239,4.609 -3.025,5.909 -1.784,1.299 -4.228,1.813 -7.332,1.542 -4.066,-0.356 -7.161,-1.759 -9.283,-4.209 -2.122,-2.45 -3.016,-5.584 -2.682,-9.401 0.235,-2.675 1.294,-4.622 3.18,-5.841 z" /></g></g></g><text
       id="text422"
       style="font-variant:normal;font-weight:normal;font-stretch:normal;font-size:19px;font-family:'Open Sans';-inkscape-font-specification:OpenSans-Regular;writing-mode:lr-tb;fill:#ffffff;fill-opacity:1;fill-rule:nonzero;stroke:none"
       transform="matrix(1,0,0,-1,366.0625,229.8022)"><tspan
         id="tspan420"
         y="0"
         x="0 16.226 31.483 44.650002 51.014999 66.291 78.279999 96.862 110.314 126.065 141.341 153.19701">OUR DEMANDS:</tspan></text>
<text
       id="text434"
       style="font-variant:normal;font-weight:normal;font-stretch:normal;font-size:19px;font-family:'Open Sans';-inkscape-font-specification:OpenSans-Regular;writing-mode:lr-tb;fill:#ffffff;fill-opacity:1;fill-rule:nonzero;stroke:none"
       transform="matrix(1,0,0,-1,366.0625,195.8112)"><tspan
         id="tspan424"
         y="0"
         x="0 12.293 18.771999 25.136999 38.589001 44.953999 52.82 61.997002 74.081001 86.165001 92.529999 105.602 118.693 131.765 137.99699 144.229 154.698 161.063 169.19501 178.37199 190.36099 203.452 213.94 227.01199 239.91299 249.09 257.22198 269.211 277.34299 283.57501 296.47601 309.56699 315.93201 326.42001 337.42099 347.909 356.04099 368.125 387.22 393.58499 401.71701 414.80801 426.797 434.92899 441.29401 450.47101 462.55499 468.78699 475.01901 487.008 500.07999 506.31201 517.31299 523.67798 535.66699 548.758 561.83002 568.19501 580.27899 594.586 606.66998 617.13898 625.271 631.50299 642.44702 654.53101 660.763 671.76398">1. A free public transportation system that reliably and eectively </tspan><tspan
         id="tspan426"
         y="33.991001"
         x="0 19.094999 31.179001 43.263 51.395 61.882999 68.248001 81.149002 94.239998 103.417 109.782 117.914 127.091 139.08 150.024 162.108 168.34 174.705 187.79601 199.88 211.964 225.036">meets our travel needs</tspan><tspan
         id="tspan428"
         y="67.982002"
         x="0 12.293 18.771999 25.136999 38.589001 44.953999 58.026001 71.116997 84.189003 90.420998 96.653 107.122 113.354 124.355 130.72 143.621 159.828 172.91901 185.00301 198.075 204.44 217.53101 225.66299 231.895 238.127 244.35899 252.491 263.492 269.85699 277.98901 291.07999 303.069 311.20099 317.56601 330.638 339.815 352.716 363.66 369.892 382.96399 395.048 405.53601 411.901 424.194 436.487 448.78 465.84201 472.207 481.384 493.46799 506.55899 518.64301 534.84998 546.83899 559.91101 566.14301 578.22699 584.59198 596.67603 609.76703 621.85101 631.02802 642.86499">2. A publicly owned utility that provides 100% renewable energy</tspan><tspan
         id="tspan430"
         y="101.973"
         x="0 12.293 18.771999 25.136999 40.412998 52.497002 71.592003 84.492996 94.961998 104.139 116.128 124.26 130.492 140.961 147.326 157.795 170.696 183.787 191.91901 201.09599 213.99699 220.229 226.59399 239.495 250.439 262.52301 271.70001 278.065 294.272 307.36301 319.35199 327.48401 333.849 346.75 359.841 369.01801 375.383 385.85199 398.75299 417.84799 436.94299 450.034 463.125 469.35699 477.48901 483.72101 495.80499 506.293 512.65802 518.89001 531.79102 544.69202 556.09198 562.45697 568.68903 574.92102 586.32098">3. Democratic control over what our communities look like</tspan><tspan
         id="tspan432"
         y="135.964"
         x="0 12.293 18.771999 25.136999 38.550999 51.452 70.546997 89.641998 102.733 115.824 122.056 130.188 141.189 147.554 160.455 171.399 183.483 192.66 203.14799 209.38 221.217 234.308 242.44 248.80499 261.70599 272.64999 284.73401 293.91101 300.276 308.40799 321.49899 333.58301 339.948 346.17999 365.27499 378.34698 384.57901 396.66299 415.758 427.84201 440.93301 449.065 461.05399 469.186 475.418 488.319 501.41 507.77499 520.67603 528.54199 534.90698 545.37598 551.60797 557.84003 576.935 588.92401 597.05603 609.14001">4. Community oversight over the implementation of climate </tspan></text>
<text
       id="text438"
       style="font-variant:normal;font-weight:normal;font-stretch:normal;font-size:19px;font-family:'Open Sans';-inkscape-font-specification:OpenSans-Regular;writing-mode:lr-tb;fill:#ffffff;fill-opacity:1;fill-rule:nonzero;stroke:none"
       transform="matrix(1,0,0,-1,366.0625,25.8562)"><tspan
         id="tspan436"
         y="0"
         x="0 11.989 22.458 30.59 36.821999 49.723 62.813999">actions</tspan></text>
</g></svg>